<svg xmlns="http://www.w3.org/2000/svg" xmlns:xlink="http://www.w3.org/1999/xlink" contentStyleType="text/css" height="517px" preserveAspectRatio="none" style="width:784px;height:517px;background:#FFFFFF;" version="1.1" viewBox="0 0 784 517" width="784px" zoomAndPan="magnify"><defs/><g><!--class Step_1--><g id="elem_Step_1"><rect codeLine="4" fill="#F1F1F1" height="64.2969" id="Step_1" rx="2.5" ry="2.5" style="stroke:#181818;stroke-width:0.5;" width="275.1357" x="477.32" y="7"/><ellipse cx="586.7463" cy="23" fill="#ADD1B2" rx="11" ry="11" style="stroke:#181818;stroke-width:1.0;"/><path d="M589.715,28.6406 Q589.1369,28.9375 588.4963,29.0781 Q587.8556,29.2344 587.1525,29.2344 Q584.6525,29.2344 583.3244,27.5938 Q582.0119,25.9375 582.0119,22.8125 Q582.0119,19.6875 583.3244,18.0313 Q584.6525,16.375 587.1525,16.375 Q587.8556,16.375 588.4963,16.5313 Q589.1525,16.6875 589.715,16.9844 L589.715,19.7031 Q589.09,19.125 588.4963,18.8594 Q587.9025,18.5781 587.2775,18.5781 Q585.9338,18.5781 585.2463,19.6563 Q584.5588,20.7188 584.5588,22.8125 Q584.5588,24.9063 585.2463,25.9844 Q585.9338,27.0469 587.2775,27.0469 Q587.9025,27.0469 588.4963,26.7813 Q589.09,26.5 589.715,25.9219 L589.715,28.6406 Z " fill="#000000"/><text fill="#000000" font-family="sans-serif" font-size="14" lengthAdjust="spacing" textLength="47.7832" x="607.2463" y="27.8467">Step_1</text><line style="stroke:#181818;stroke-width:0.5;" x1="478.32" x2="751.4557" y1="39" y2="39"/><text fill="#000000" font-family="sans-serif" font-size="14" lengthAdjust="spacing" textLength="263.1357" x="483.32" y="55.9951">Doosan robot picks block of the slide.</text><line style="stroke:#181818;stroke-width:0.5;" x1="478.32" x2="751.4557" y1="63.2969" y2="63.2969"/></g><!--class Step_2--><g id="elem_Step_2"><rect codeLine="7" fill="#F1F1F1" height="64.2969" id="Step_2" rx="2.5" ry="2.5" style="stroke:#181818;stroke-width:0.5;" width="272.5039" x="360.64" y="148.3"/><ellipse cx="468.7504" cy="164.3" fill="#ADD1B2" rx="11" ry="11" style="stroke:#181818;stroke-width:1.0;"/><path d="M471.7191,169.9406 Q471.141,170.2375 470.5004,170.3781 Q469.8597,170.5344 469.1566,170.5344 Q466.6566,170.5344 465.3285,168.8938 Q464.016,167.2375 464.016,164.1125 Q464.016,160.9875 465.3285,159.3313 Q466.6566,157.675 469.1566,157.675 Q469.8597,157.675 470.5004,157.8313 Q471.1566,157.9875 471.7191,158.2844 L471.7191,161.0031 Q471.0941,160.425 470.5004,160.1594 Q469.9066,159.8781 469.2816,159.8781 Q467.9379,159.8781 467.2504,160.9563 Q466.5629,162.0188 466.5629,164.1125 Q466.5629,166.2063 467.2504,167.2844 Q467.9379,168.3469 469.2816,168.3469 Q469.9066,168.3469 470.5004,168.0813 Q471.0941,167.8 471.7191,167.2219 L471.7191,169.9406 Z " fill="#000000"/><text fill="#000000" font-family="sans-serif" font-size="14" lengthAdjust="spacing" textLength="47.7832" x="489.2504" y="169.1467">Step_2</text><line style="stroke:#181818;stroke-width:0.5;" x1="361.64" x2="632.1439" y1="180.3" y2="180.3"/><text fill="#000000" font-family="sans-serif" font-size="14" lengthAdjust="spacing" textLength="260.5039" x="366.64" y="197.2951">Coral devboard scans color or shape.</text><line style="stroke:#181818;stroke-width:0.5;" x1="361.64" x2="632.1439" y1="204.5969" y2="204.5969"/></g><!--class Step_3--><g id="elem_Step_3"><rect codeLine="10" fill="#F1F1F1" height="64.2969" id="Step_3" rx="2.5" ry="2.5" style="stroke:#181818;stroke-width:0.5;" width="302.5752" x="448.6" y="304.6"/><ellipse cx="571.746" cy="320.6" fill="#ADD1B2" rx="11" ry="11" style="stroke:#181818;stroke-width:1.0;"/><path d="M574.7147,326.2406 Q574.1366,326.5375 573.496,326.6781 Q572.8554,326.8344 572.1522,326.8344 Q569.6522,326.8344 568.3241,325.1937 Q567.0116,323.5375 567.0116,320.4125 Q567.0116,317.2875 568.3241,315.6312 Q569.6522,313.975 572.1522,313.975 Q572.8554,313.975 573.496,314.1312 Q574.1522,314.2875 574.7147,314.5844 L574.7147,317.3031 Q574.0897,316.725 573.496,316.4594 Q572.9022,316.1781 572.2772,316.1781 Q570.9335,316.1781 570.246,317.2562 Q569.5585,318.3187 569.5585,320.4125 Q569.5585,322.5062 570.246,323.5844 Q570.9335,324.6469 572.2772,324.6469 Q572.9022,324.6469 573.496,324.3812 Q574.0897,324.1 574.7147,323.5219 L574.7147,326.2406 Z " fill="#000000"/><text fill="#000000" font-family="sans-serif" font-size="14" lengthAdjust="spacing" textLength="47.7832" x="592.246" y="325.4467">Step_3</text><line style="stroke:#181818;stroke-width:0.5;" x1="449.6" x2="750.1752" y1="336.6" y2="336.6"/><text fill="#000000" font-family="sans-serif" font-size="14" lengthAdjust="spacing" textLength="290.5752" x="454.6" y="353.5951">Places item on the right place of the AMR</text><line style="stroke:#181818;stroke-width:0.5;" x1="449.6" x2="750.1752" y1="360.8969" y2="360.8969"/></g><!--class Step_4--><g id="elem_Step_4"><rect codeLine="13" fill="#F1F1F1" height="64.2969" id="Step_4" rx="2.5" ry="2.5" style="stroke:#181818;stroke-width:0.5;" width="239.3838" x="480.2" y="445.89"/><ellipse cx="571.7503" cy="461.89" fill="#ADD1B2" rx="11" ry="11" style="stroke:#181818;stroke-width:1.0;"/><path d="M574.719,467.5306 Q574.1409,467.8275 573.5003,467.9681 Q572.8597,468.1244 572.1565,468.1244 Q569.6565,468.1244 568.3284,466.4838 Q567.0159,464.8275 567.0159,461.7025 Q567.0159,458.5775 568.3284,456.9213 Q569.6565,455.265 572.1565,455.265 Q572.8597,455.265 573.5003,455.4213 Q574.1565,455.5775 574.719,455.8744 L574.719,458.5931 Q574.094,458.015 573.5003,457.7494 Q572.9065,457.4681 572.2815,457.4681 Q570.9378,457.4681 570.2503,458.5463 Q569.5628,459.6088 569.5628,461.7025 Q569.5628,463.7963 570.2503,464.8744 Q570.9378,465.9369 572.2815,465.9369 Q572.9065,465.9369 573.5003,465.6713 Q574.094,465.39 574.719,464.8119 L574.719,467.5306 Z " fill="#000000"/><text fill="#000000" font-family="sans-serif" font-size="14" lengthAdjust="spacing" textLength="47.7832" x="592.2503" y="466.7367">Step_4</text><line style="stroke:#181818;stroke-width:0.5;" x1="481.2" x2="718.5838" y1="477.89" y2="477.89"/><text fill="#000000" font-family="sans-serif" font-size="14" lengthAdjust="spacing" textLength="227.3838" x="486.2" y="494.8851">AMR goes to cordinated location</text><line style="stroke:#181818;stroke-width:0.5;" x1="481.2" x2="718.5838" y1="502.1869" y2="502.1869"/></g><!--class Step_5--><g id="elem_Step_5"><rect codeLine="16" fill="#F1F1F1" height="48" id="Step_5" rx="2.5" ry="2.5" style="stroke:#181818;stroke-width:0.5;" width="79.7832" x="7" y="15.15"/><ellipse cx="22" cy="31.15" fill="#ADD1B2" rx="11" ry="11" style="stroke:#181818;stroke-width:1.0;"/><path d="M24.9688,36.7906 Q24.3906,37.0875 23.75,37.2281 Q23.1094,37.3844 22.4063,37.3844 Q19.9063,37.3844 18.5781,35.7437 Q17.2656,34.0875 17.2656,30.9625 Q17.2656,27.8375 18.5781,26.1812 Q19.9063,24.525 22.4063,24.525 Q23.1094,24.525 23.75,24.6812 Q24.4063,24.8375 24.9688,25.1344 L24.9688,27.8531 Q24.3438,27.275 23.75,27.0094 Q23.1563,26.7281 22.5313,26.7281 Q21.1875,26.7281 20.5,27.8062 Q19.8125,28.8687 19.8125,30.9625 Q19.8125,33.0562 20.5,34.1344 Q21.1875,35.1969 22.5313,35.1969 Q23.1563,35.1969 23.75,34.9312 Q24.3438,34.65 24.9688,34.0719 L24.9688,36.7906 Z " fill="#000000"/><text fill="#000000" font-family="sans-serif" font-size="14" lengthAdjust="spacing" textLength="47.7832" x="36" y="35.9967">Step_5</text><line style="stroke:#181818;stroke-width:0.5;" x1="8" x2="85.7832" y1="47.15" y2="47.15"/><line style="stroke:#181818;stroke-width:0.5;" x1="8" x2="85.7832" y1="55.15" y2="55.15"/></g><!--class Step_6--><g id="elem_Step_6"><rect codeLine="19" fill="#F1F1F1" height="48" id="Step_6" rx="2.5" ry="2.5" style="stroke:#181818;stroke-width:0.5;" width="79.7832" x="122" y="15.15"/><ellipse cx="137" cy="31.15" fill="#ADD1B2" rx="11" ry="11" style="stroke:#181818;stroke-width:1.0;"/><path d="M139.9688,36.7906 Q139.3906,37.0875 138.75,37.2281 Q138.1094,37.3844 137.4063,37.3844 Q134.9063,37.3844 133.5781,35.7437 Q132.2656,34.0875 132.2656,30.9625 Q132.2656,27.8375 133.5781,26.1812 Q134.9063,24.525 137.4063,24.525 Q138.1094,24.525 138.75,24.6812 Q139.4063,24.8375 139.9688,25.1344 L139.9688,27.8531 Q139.3438,27.275 138.75,27.0094 Q138.1563,26.7281 137.5313,26.7281 Q136.1875,26.7281 135.5,27.8062 Q134.8125,28.8687 134.8125,30.9625 Q134.8125,33.0562 135.5,34.1344 Q136.1875,35.1969 137.5313,35.1969 Q138.1563,35.1969 138.75,34.9312 Q139.3438,34.65 139.9688,34.0719 L139.9688,36.7906 Z " fill="#000000"/><text fill="#000000" font-family="sans-serif" font-size="14" lengthAdjust="spacing" textLength="47.7832" x="151" y="35.9967">Step_6</text><line style="stroke:#181818;stroke-width:0.5;" x1="123" x2="200.7832" y1="47.15" y2="47.15"/><line style="stroke:#181818;stroke-width:0.5;" x1="123" x2="200.7832" y1="55.15" y2="55.15"/></g><!--class Step_7--><g id="elem_Step_7"><rect codeLine="22" fill="#F1F1F1" height="48" id="Step_7" rx="2.5" ry="2.5" style="stroke:#181818;stroke-width:0.5;" width="79.7832" x="237" y="15.15"/><ellipse cx="252" cy="31.15" fill="#ADD1B2" rx="11" ry="11" style="stroke:#181818;stroke-width:1.0;"/><path d="M254.9688,36.7906 Q254.3906,37.0875 253.75,37.2281 Q253.1094,37.3844 252.4063,37.3844 Q249.9063,37.3844 248.5781,35.7437 Q247.2656,34.0875 247.2656,30.9625 Q247.2656,27.8375 248.5781,26.1812 Q249.9063,24.525 252.4063,24.525 Q253.1094,24.525 253.75,24.6812 Q254.4063,24.8375 254.9688,25.1344 L254.9688,27.8531 Q254.3438,27.275 253.75,27.0094 Q253.1563,26.7281 252.5313,26.7281 Q251.1875,26.7281 250.5,27.8062 Q249.8125,28.8687 249.8125,30.9625 Q249.8125,33.0562 250.5,34.1344 Q251.1875,35.1969 252.5313,35.1969 Q253.1563,35.1969 253.75,34.9312 Q254.3438,34.65 254.9688,34.0719 L254.9688,36.7906 Z " fill="#000000"/><text fill="#000000" font-family="sans-serif" font-size="14" lengthAdjust="spacing" textLength="47.7832" x="266" y="35.9967">Step_7</text><line style="stroke:#181818;stroke-width:0.5;" x1="238" x2="315.7832" y1="47.15" y2="47.15"/><line style="stroke:#181818;stroke-width:0.5;" x1="238" x2="315.7832" y1="55.15" y2="55.15"/></g><!--class Step_8--><g id="elem_Step_8"><rect codeLine="25" fill="#F1F1F1" height="48" id="Step_8" rx="2.5" ry="2.5" style="stroke:#181818;stroke-width:0.5;" width="79.7832" x="7" y="156.45"/><ellipse cx="22" cy="172.45" fill="#ADD1B2" rx="11" ry="11" style="stroke:#181818;stroke-width:1.0;"/><path d="M24.9688,178.0906 Q24.3906,178.3875 23.75,178.5281 Q23.1094,178.6844 22.4063,178.6844 Q19.9063,178.6844 18.5781,177.0438 Q17.2656,175.3875 17.2656,172.2625 Q17.2656,169.1375 18.5781,167.4813 Q19.9063,165.825 22.4063,165.825 Q23.1094,165.825 23.75,165.9813 Q24.4063,166.1375 24.9688,166.4344 L24.9688,169.1531 Q24.3438,168.575 23.75,168.3094 Q23.1563,168.0281 22.5313,168.0281 Q21.1875,168.0281 20.5,169.1063 Q19.8125,170.1688 19.8125,172.2625 Q19.8125,174.3563 20.5,175.4344 Q21.1875,176.4969 22.5313,176.4969 Q23.1563,176.4969 23.75,176.2313 Q24.3438,175.95 24.9688,175.3719 L24.9688,178.0906 Z " fill="#000000"/><text fill="#000000" font-family="sans-serif" font-size="14" lengthAdjust="spacing" textLength="47.7832" x="36" y="177.2967">Step_8</text><line style="stroke:#181818;stroke-width:0.5;" x1="8" x2="85.7832" y1="188.45" y2="188.45"/><line style="stroke:#181818;stroke-width:0.5;" x1="8" x2="85.7832" y1="196.45" y2="196.45"/></g><!--class Step_9--><g id="elem_Step_9"><rect codeLine="28" fill="#F1F1F1" height="48" id="Step_9" rx="2.5" ry="2.5" style="stroke:#181818;stroke-width:0.5;" width="79.7832" x="122" y="156.45"/><ellipse cx="137" cy="172.45" fill="#ADD1B2" rx="11" ry="11" style="stroke:#181818;stroke-width:1.0;"/><path d="M139.9688,178.0906 Q139.3906,178.3875 138.75,178.5281 Q138.1094,178.6844 137.4063,178.6844 Q134.9063,178.6844 133.5781,177.0438 Q132.2656,175.3875 132.2656,172.2625 Q132.2656,169.1375 133.5781,167.4813 Q134.9063,165.825 137.4063,165.825 Q138.1094,165.825 138.75,165.9813 Q139.4063,166.1375 139.9688,166.4344 L139.9688,169.1531 Q139.3438,168.575 138.75,168.3094 Q138.1563,168.0281 137.5313,168.0281 Q136.1875,168.0281 135.5,169.1063 Q134.8125,170.1688 134.8125,172.2625 Q134.8125,174.3563 135.5,175.4344 Q136.1875,176.4969 137.5313,176.4969 Q138.1563,176.4969 138.75,176.2313 Q139.3438,175.95 139.9688,175.3719 L139.9688,178.0906 Z " fill="#000000"/><text fill="#000000" font-family="sans-serif" font-size="14" lengthAdjust="spacing" textLength="47.7832" x="151" y="177.2967">Step_9</text><line style="stroke:#181818;stroke-width:0.5;" x1="123" x2="200.7832" y1="188.45" y2="188.45"/><line style="stroke:#181818;stroke-width:0.5;" x1="123" x2="200.7832" y1="196.45" y2="196.45"/></g><!--class Step_10--><g id="elem_Step_10"><rect codeLine="31" fill="#F1F1F1" height="48" id="Step_10" rx="2.5" ry="2.5" style="stroke:#181818;stroke-width:0.5;" width="88.6904" x="236.55" y="156.45"/><ellipse cx="251.55" cy="172.45" fill="#ADD1B2" rx="11" ry="11" style="stroke:#181818;stroke-width:1.0;"/><path d="M254.5188,178.0906 Q253.9406,178.3875 253.3,178.5281 Q252.6594,178.6844 251.9563,178.6844 Q249.4563,178.6844 248.1281,177.0438 Q246.8156,175.3875 246.8156,172.2625 Q246.8156,169.1375 248.1281,167.4813 Q249.4563,165.825 251.9563,165.825 Q252.6594,165.825 253.3,165.9813 Q253.9563,166.1375 254.5188,166.4344 L254.5188,169.1531 Q253.8938,168.575 253.3,168.3094 Q252.7063,168.0281 252.0813,168.0281 Q250.7375,168.0281 250.05,169.1063 Q249.3625,170.1688 249.3625,172.2625 Q249.3625,174.3563 250.05,175.4344 Q250.7375,176.4969 252.0813,176.4969 Q252.7063,176.4969 253.3,176.2313 Q253.8938,175.95 254.5188,175.3719 L254.5188,178.0906 Z " fill="#000000"/><text fill="#000000" font-family="sans-serif" font-size="14" lengthAdjust="spacing" textLength="56.6904" x="265.55" y="177.2967">Step_10</text><line style="stroke:#181818;stroke-width:0.5;" x1="237.55" x2="324.2404" y1="188.45" y2="188.45"/><line style="stroke:#181818;stroke-width:0.5;" x1="237.55" x2="324.2404" y1="196.45" y2="196.45"/></g><!--link Step_1 to Step_2--><g id="link_Step_1_Step_2"><path codeLine="36" d="M581.64,71.63 C572.35,80.91 562.46,91.27 553.89,101.3 C541.34,115.98 538.9451,118.5309 528.6751,133.0909 " fill="none" id="Step_1-to-Step_2" style="stroke:#181818;stroke-width:1.0;"/><polygon fill="none" points="518.3,147.8,533.5782,136.5493,523.7721,129.6326,518.3,147.8" style="stroke:#181818;stroke-width:1.0;"/><text fill="#000000" font-family="sans-serif" font-size="13" lengthAdjust="spacing" textLength="121.3545" x="554.89" y="114.3669">Block is picked up.</text></g><!--link Step_2 to Step_3--><g id="link_Step_2_Step_3"><path codeLine="37" d="M517.98,213.04 C535.76,239.67 551.0637,262.6109 568.8337,289.2209 " fill="none" id="Step_2-to-Step_3" style="stroke:#181818;stroke-width:1.0;"/><polygon fill="none" points="578.83,304.19,573.8234,285.8888,563.844,292.553,578.83,304.19" style="stroke:#181818;stroke-width:1.0;"/><text fill="#000000" font-family="sans-serif" font-size="13" lengthAdjust="spacing" textLength="96.8208" x="557.89" y="255.6669">Color scanned.</text><text fill="#000000" font-family="sans-serif" font-size="13" lengthAdjust="spacing" textLength="84.2334" x="568.316" y="270.7997">AMR in place</text></g><!--link Step_3 to Step_1--><g id="link_Step_3_Step_1"><path codeLine="38" d="M644.11,304.13 C653.09,295.58 661.44,285.6 666.89,274.6 C697.87,212.11 677.78,187.97 680.89,118.3 C681.23,110.75 683.92,108.22 680.89,101.3 C676.02,90.13 680.8825,92.651 672.0725,84.081 " fill="none" id="Step_3-to-Step_1" style="stroke:#181818;stroke-width:1.0;"/><polygon fill="none" points="659.17,71.53,667.8888,88.3818,676.2561,79.7801,659.17,71.53" style="stroke:#181818;stroke-width:1.0;"/><text fill="#000000" font-family="sans-serif" font-size="13" lengthAdjust="spacing" textLength="82.8687" x="687.2355" y="177.5169">AMR not full.</text><text fill="#000000" font-family="sans-serif" font-size="13" lengthAdjust="spacing" textLength="87.5596" x="689.0223" y="192.6497">requirements</text></g><!--link Step_3 to Step_4--><g id="link_Step_3_Step_4"><path codeLine="39" d="M599.89,369.35 C599.89,392.15 599.89,404.79 599.89,427.56 " fill="none" id="Step_3-to-Step_4" style="stroke:#181818;stroke-width:1.0;"/><polygon fill="none" points="599.89,445.56,605.89,427.56,593.89,427.56,599.89,445.56" style="stroke:#181818;stroke-width:1.0;"/><text fill="#000000" font-family="sans-serif" font-size="13" lengthAdjust="spacing" textLength="57.4463" x="600.89" y="411.9569">AMR full.</text></g><!--SRC=[TP5DJiCm48NtFiNq08q8BRyBf91K28aML5WY8IUUD5OTJx0TDi3TSKoYI8H8NhrvtypupK9WAJN2VfE-9BkxXmqKYblB5hsUtIVRnrq6GlAQj61iD3uxRDvY-6G06P7b6WpbvA2HnT52hgWu0fNWAWIhfC28VV-bJmETak4A17xan8q0Mt1jeI151lop5M_-OrU1VLAyG0lIOGsamp0Z3vNVeYiCyvFj7gOTrg53LpkGx-783pL2QkvGW5-VEqbwYfq5RAgVp-WNC_hbZ7ureySdGu6nFllbykjcIF8QRaFaqeOB-2-qJSJwucXSUMCQikrorYWYUDKX1Ab_GsEzRsHYptGExQzRjae5nE1xAmtMg9sT8kiU2VOV]--></g></svg>