<svg xmlns="http://www.w3.org/2000/svg" xmlns:xlink="http://www.w3.org/1999/xlink" contentStyleType="text/css" height="611px" preserveAspectRatio="none" style="width:1027px;height:611px;background:#FFFFFF;" version="1.1" viewBox="0 0 1027 611" width="1027px" zoomAndPan="magnify"><defs/><g><!--class WeldingRobot--><g id="elem_WeldingRobot"><rect codeLine="5" fill="#F1F1F1" height="48" id="WeldingRobot" rx="2.5" ry="2.5" style="stroke:#181818;stroke-width:0.5;" width="130.1162" x="120.95" y="7"/><ellipse cx="135.95" cy="23" fill="#ADD1B2" rx="11" ry="11" style="stroke:#181818;stroke-width:1.0;"/><path d="M138.9188,28.6406 Q138.3406,28.9375 137.7,29.0781 Q137.0594,29.2344 136.3563,29.2344 Q133.8563,29.2344 132.5281,27.5938 Q131.2156,25.9375 131.2156,22.8125 Q131.2156,19.6875 132.5281,18.0313 Q133.8563,16.375 136.3563,16.375 Q137.0594,16.375 137.7,16.5313 Q138.3563,16.6875 138.9188,16.9844 L138.9188,19.7031 Q138.2938,19.125 137.7,18.8594 Q137.1063,18.5781 136.4813,18.5781 Q135.1375,18.5781 134.45,19.6563 Q133.7625,20.7188 133.7625,22.8125 Q133.7625,24.9063 134.45,25.9844 Q135.1375,27.0469 136.4813,27.0469 Q137.1063,27.0469 137.7,26.7813 Q138.2938,26.5 138.9188,25.9219 L138.9188,28.6406 Z " fill="#000000"/><text fill="#000000" font-family="sans-serif" font-size="14" lengthAdjust="spacing" textLength="98.1162" x="149.95" y="27.8467">WeldingRobot</text><line style="stroke:#181818;stroke-width:0.5;" x1="121.95" x2="250.0662" y1="39" y2="39"/><line style="stroke:#181818;stroke-width:0.5;" x1="121.95" x2="250.0662" y1="47" y2="47"/></g><!--class Step_1_Welding--><g id="elem_Step_1_Welding"><rect codeLine="6" fill="#F1F1F1" height="64.2969" id="Step_1_Welding" rx="2.5" ry="2.5" style="stroke:#181818;stroke-width:0.5;" width="214.6582" x="78.67" y="116"/><ellipse cx="125.9166" cy="132" fill="#ADD1B2" rx="11" ry="11" style="stroke:#181818;stroke-width:1.0;"/><path d="M128.8853,137.6406 Q128.3072,137.9375 127.6666,138.0781 Q127.026,138.2344 126.3228,138.2344 Q123.8228,138.2344 122.4947,136.5938 Q121.1822,134.9375 121.1822,131.8125 Q121.1822,128.6875 122.4947,127.0313 Q123.8228,125.375 126.3228,125.375 Q127.026,125.375 127.6666,125.5313 Q128.3228,125.6875 128.8853,125.9844 L128.8853,128.7031 Q128.2603,128.125 127.6666,127.8594 Q127.0728,127.5781 126.4478,127.5781 Q125.1041,127.5781 124.4166,128.6563 Q123.7291,129.7188 123.7291,131.8125 Q123.7291,133.9063 124.4166,134.9844 Q125.1041,136.0469 126.4478,136.0469 Q127.0728,136.0469 127.6666,135.7813 Q128.2603,135.5 128.8853,134.9219 L128.8853,137.6406 Z " fill="#000000"/><text fill="#000000" font-family="sans-serif" font-size="14" lengthAdjust="spacing" textLength="111.665" x="146.4166" y="136.8467">Step_1_Welding</text><line style="stroke:#181818;stroke-width:0.5;" x1="79.67" x2="292.3282" y1="148" y2="148"/><text fill="#000000" font-family="sans-serif" font-size="14" lengthAdjust="spacing" textLength="202.6582" x="84.67" y="164.9951">Assemble the hammer mold.</text><line style="stroke:#181818;stroke-width:0.5;" x1="79.67" x2="292.3282" y1="172.2969" y2="172.2969"/></g><!--class Step_2_Welding--><g id="elem_Step_2_Welding"><rect codeLine="9" fill="#F1F1F1" height="64.2969" id="Step_2_Welding" rx="2.5" ry="2.5" style="stroke:#181818;stroke-width:0.5;" width="358.0078" x="7" y="257.3"/><ellipse cx="125.9214" cy="273.3" fill="#ADD1B2" rx="11" ry="11" style="stroke:#181818;stroke-width:1.0;"/><path d="M128.8901,278.9406 Q128.312,279.2375 127.6714,279.3781 Q127.0308,279.5344 126.3276,279.5344 Q123.8276,279.5344 122.4995,277.8938 Q121.187,276.2375 121.187,273.1125 Q121.187,269.9875 122.4995,268.3313 Q123.8276,266.675 126.3276,266.675 Q127.0308,266.675 127.6714,266.8313 Q128.3276,266.9875 128.8901,267.2844 L128.8901,270.0031 Q128.2651,269.425 127.6714,269.1594 Q127.0776,268.8781 126.4526,268.8781 Q125.1089,268.8781 124.4214,269.9563 Q123.7339,271.0188 123.7339,273.1125 Q123.7339,275.2063 124.4214,276.2844 Q125.1089,277.3469 126.4526,277.3469 Q127.0776,277.3469 127.6714,277.0813 Q128.2651,276.8 128.8901,276.2219 L128.8901,278.9406 Z " fill="#000000"/><text fill="#000000" font-family="sans-serif" font-size="14" lengthAdjust="spacing" textLength="111.665" x="146.4214" y="278.1467">Step_2_Welding</text><line style="stroke:#181818;stroke-width:0.5;" x1="8" x2="364.0078" y1="289.3" y2="289.3"/><text fill="#000000" font-family="sans-serif" font-size="14" lengthAdjust="spacing" textLength="346.0078" x="13" y="306.2951">Program the robot according to the video guides.</text><line style="stroke:#181818;stroke-width:0.5;" x1="8" x2="364.0078" y1="313.5969" y2="313.5969"/></g><!--class Step_3_Welding--><g id="elem_Step_3_Welding"><rect codeLine="12" fill="#F1F1F1" height="64.2969" id="Step_3_Welding" rx="2.5" ry="2.5" style="stroke:#181818;stroke-width:0.5;" width="143.665" x="114.17" y="398.6"/><ellipse cx="129.17" cy="414.6" fill="#ADD1B2" rx="11" ry="11" style="stroke:#181818;stroke-width:1.0;"/><path d="M132.1388,420.2406 Q131.5606,420.5375 130.92,420.6781 Q130.2794,420.8344 129.5763,420.8344 Q127.0763,420.8344 125.7481,419.1938 Q124.4356,417.5375 124.4356,414.4125 Q124.4356,411.2875 125.7481,409.6313 Q127.0763,407.975 129.5763,407.975 Q130.2794,407.975 130.92,408.1313 Q131.5763,408.2875 132.1388,408.5844 L132.1388,411.3031 Q131.5138,410.725 130.92,410.4594 Q130.3263,410.1781 129.7013,410.1781 Q128.3575,410.1781 127.67,411.2563 Q126.9825,412.3188 126.9825,414.4125 Q126.9825,416.5063 127.67,417.5844 Q128.3575,418.6469 129.7013,418.6469 Q130.3263,418.6469 130.92,418.3813 Q131.5138,418.1 132.1388,417.5219 L132.1388,420.2406 Z " fill="#000000"/><text fill="#000000" font-family="sans-serif" font-size="14" lengthAdjust="spacing" textLength="111.665" x="143.17" y="419.4467">Step_3_Welding</text><line style="stroke:#181818;stroke-width:0.5;" x1="115.17" x2="256.835" y1="430.6" y2="430.6"/><text fill="#000000" font-family="sans-serif" font-size="14" lengthAdjust="spacing" textLength="129.4316" x="120.17" y="447.5951">Enjoy the hammer</text><line style="stroke:#181818;stroke-width:0.5;" x1="115.17" x2="256.835" y1="454.8969" y2="454.8969"/></g><!--class KuKaRobot--><g id="elem_KuKaRobot"><rect codeLine="22" fill="#F1F1F1" height="48" id="KuKaRobot" rx="2.5" ry="2.5" style="stroke:#181818;stroke-width:0.5;" width="109.0479" x="439.48" y="7"/><ellipse cx="454.48" cy="23" fill="#ADD1B2" rx="11" ry="11" style="stroke:#181818;stroke-width:1.0;"/><path d="M457.4488,28.6406 Q456.8706,28.9375 456.23,29.0781 Q455.5894,29.2344 454.8863,29.2344 Q452.3863,29.2344 451.0581,27.5938 Q449.7456,25.9375 449.7456,22.8125 Q449.7456,19.6875 451.0581,18.0313 Q452.3863,16.375 454.8863,16.375 Q455.5894,16.375 456.23,16.5313 Q456.8863,16.6875 457.4488,16.9844 L457.4488,19.7031 Q456.8238,19.125 456.23,18.8594 Q455.6363,18.5781 455.0113,18.5781 Q453.6675,18.5781 452.98,19.6563 Q452.2925,20.7188 452.2925,22.8125 Q452.2925,24.9063 452.98,25.9844 Q453.6675,27.0469 455.0113,27.0469 Q455.6363,27.0469 456.23,26.7813 Q456.8238,26.5 457.4488,25.9219 L457.4488,28.6406 Z " fill="#000000"/><text fill="#000000" font-family="sans-serif" font-size="14" lengthAdjust="spacing" textLength="77.0479" x="468.48" y="27.8467">KuKaRobot</text><line style="stroke:#181818;stroke-width:0.5;" x1="440.48" x2="547.5279" y1="39" y2="39"/><line style="stroke:#181818;stroke-width:0.5;" x1="440.48" x2="547.5279" y1="47" y2="47"/></g><!--class Step_1_KuKa--><g id="elem_Step_1_KuKa"><rect codeLine="23" fill="#F1F1F1" height="64.2969" id="Step_1_KuKa" rx="2.5" ry="2.5" style="stroke:#181818;stroke-width:0.5;" width="172.6309" x="407.69" y="116"/><ellipse cx="445.2054" cy="132" fill="#ADD1B2" rx="11" ry="11" style="stroke:#181818;stroke-width:1.0;"/><path d="M448.1741,137.6406 Q447.596,137.9375 446.9554,138.0781 Q446.3148,138.2344 445.6116,138.2344 Q443.1116,138.2344 441.7835,136.5938 Q440.471,134.9375 440.471,131.8125 Q440.471,128.6875 441.7835,127.0313 Q443.1116,125.375 445.6116,125.375 Q446.3148,125.375 446.9554,125.5313 Q447.6116,125.6875 448.1741,125.9844 L448.1741,128.7031 Q447.5491,128.125 446.9554,127.8594 Q446.3616,127.5781 445.7366,127.5781 Q444.3929,127.5781 443.7054,128.6563 Q443.0179,129.7188 443.0179,131.8125 Q443.0179,133.9063 443.7054,134.9844 Q444.3929,136.0469 445.7366,136.0469 Q446.3616,136.0469 446.9554,135.7813 Q447.5491,135.5 448.1741,134.9219 L448.1741,137.6406 Z " fill="#000000"/><text fill="#000000" font-family="sans-serif" font-size="14" lengthAdjust="spacing" textLength="90.5967" x="464.2088" y="136.8467">Step_1_KuKa</text><line style="stroke:#181818;stroke-width:0.5;" x1="408.69" x2="579.3209" y1="148" y2="148"/><text fill="#000000" font-family="sans-serif" font-size="14" lengthAdjust="spacing" textLength="160.6309" x="413.69" y="164.9951">Research on the robot.</text><line style="stroke:#181818;stroke-width:0.5;" x1="408.69" x2="579.3209" y1="172.2969" y2="172.2969"/></g><!--class Step_2_KuKa--><g id="elem_Step_2_KuKa"><rect codeLine="26" fill="#F1F1F1" height="64.2969" id="Step_2_KuKa" rx="2.5" ry="2.5" style="stroke:#181818;stroke-width:0.5;" width="187.4375" x="400.29" y="257.3"/><ellipse cx="444.4684" cy="273.3" fill="#ADD1B2" rx="11" ry="11" style="stroke:#181818;stroke-width:1.0;"/><path d="M447.4371,278.9406 Q446.859,279.2375 446.2184,279.3781 Q445.5777,279.5344 444.8746,279.5344 Q442.3746,279.5344 441.0465,277.8938 Q439.734,276.2375 439.734,273.1125 Q439.734,269.9875 441.0465,268.3313 Q442.3746,266.675 444.8746,266.675 Q445.5777,266.675 446.2184,266.8313 Q446.8746,266.9875 447.4371,267.2844 L447.4371,270.0031 Q446.8121,269.425 446.2184,269.1594 Q445.6246,268.8781 444.9996,268.8781 Q443.6559,268.8781 442.9684,269.9563 Q442.2809,271.0188 442.2809,273.1125 Q442.2809,275.2063 442.9684,276.2844 Q443.6559,277.3469 444.9996,277.3469 Q445.6246,277.3469 446.2184,277.0813 Q446.8121,276.8 447.4371,276.2219 L447.4371,278.9406 Z " fill="#000000"/><text fill="#000000" font-family="sans-serif" font-size="14" lengthAdjust="spacing" textLength="90.5967" x="464.9525" y="278.1467">Step_2_KuKa</text><line style="stroke:#181818;stroke-width:0.5;" x1="401.29" x2="586.7275" y1="289.3" y2="289.3"/><text fill="#000000" font-family="sans-serif" font-size="14" lengthAdjust="spacing" textLength="175.4375" x="406.29" y="306.2951">Research the vision part.</text><line style="stroke:#181818;stroke-width:0.5;" x1="401.29" x2="586.7275" y1="313.5969" y2="313.5969"/></g><!--class Step_3_KuKa--><g id="elem_Step_3_KuKa"><rect codeLine="29" fill="#F1F1F1" height="64.2969" id="Step_3_KuKa" rx="2.5" ry="2.5" style="stroke:#181818;stroke-width:0.5;" width="209.5996" x="389.2" y="398.6"/><ellipse cx="444.4515" cy="414.6" fill="#ADD1B2" rx="11" ry="11" style="stroke:#181818;stroke-width:1.0;"/><path d="M447.4202,420.2406 Q446.8421,420.5375 446.2015,420.6781 Q445.5608,420.8344 444.8577,420.8344 Q442.3577,420.8344 441.0296,419.1938 Q439.7171,417.5375 439.7171,414.4125 Q439.7171,411.2875 441.0296,409.6313 Q442.3577,407.975 444.8577,407.975 Q445.5608,407.975 446.2015,408.1313 Q446.8577,408.2875 447.4202,408.5844 L447.4202,411.3031 Q446.7952,410.725 446.2015,410.4594 Q445.6077,410.1781 444.9827,410.1781 Q443.639,410.1781 442.9515,411.2563 Q442.264,412.3188 442.264,414.4125 Q442.264,416.5063 442.9515,417.5844 Q443.639,418.6469 444.9827,418.6469 Q445.6077,418.6469 446.2015,418.3813 Q446.7952,418.1 447.4202,417.5219 L447.4202,420.2406 Z " fill="#000000"/><text fill="#000000" font-family="sans-serif" font-size="14" lengthAdjust="spacing" textLength="90.5967" x="464.9515" y="419.4467">Step_3_KuKa</text><line style="stroke:#181818;stroke-width:0.5;" x1="390.2" x2="597.7996" y1="430.6" y2="430.6"/><text fill="#000000" font-family="sans-serif" font-size="14" lengthAdjust="spacing" textLength="197.5996" x="395.2" y="447.5951">Develop a student program.</text><line style="stroke:#181818;stroke-width:0.5;" x1="390.2" x2="597.7996" y1="454.8969" y2="454.8969"/></g><!--class DoosanRobot--><g id="elem_DoosanRobot"><rect codeLine="38" fill="#F1F1F1" height="48" id="DoosanRobot" rx="2.5" ry="2.5" style="stroke:#181818;stroke-width:0.5;" width="125.8916" x="717.06" y="7"/><ellipse cx="732.06" cy="23" fill="#ADD1B2" rx="11" ry="11" style="stroke:#181818;stroke-width:1.0;"/><path d="M735.0288,28.6406 Q734.4506,28.9375 733.81,29.0781 Q733.1694,29.2344 732.4663,29.2344 Q729.9663,29.2344 728.6381,27.5938 Q727.3256,25.9375 727.3256,22.8125 Q727.3256,19.6875 728.6381,18.0313 Q729.9663,16.375 732.4663,16.375 Q733.1694,16.375 733.81,16.5313 Q734.4663,16.6875 735.0288,16.9844 L735.0288,19.7031 Q734.4038,19.125 733.81,18.8594 Q733.2163,18.5781 732.5913,18.5781 Q731.2475,18.5781 730.56,19.6563 Q729.8725,20.7188 729.8725,22.8125 Q729.8725,24.9063 730.56,25.9844 Q731.2475,27.0469 732.5913,27.0469 Q733.2163,27.0469 733.81,26.7813 Q734.4038,26.5 735.0288,25.9219 L735.0288,28.6406 Z " fill="#000000"/><text fill="#000000" font-family="sans-serif" font-size="14" lengthAdjust="spacing" textLength="93.8916" x="746.06" y="27.8467">DoosanRobot</text><line style="stroke:#181818;stroke-width:0.5;" x1="718.06" x2="841.9516" y1="39" y2="39"/><line style="stroke:#181818;stroke-width:0.5;" x1="718.06" x2="841.9516" y1="47" y2="47"/></g><!--class Step_1_Doosan--><g id="elem_Step_1_Doosan"><rect codeLine="39" fill="#F1F1F1" height="64.2969" id="Step_1_Doosan" rx="2.5" ry="2.5" style="stroke:#181818;stroke-width:0.5;" width="150.7422" x="704.63" y="116"/><ellipse cx="724.7158" cy="132" fill="#ADD1B2" rx="11" ry="11" style="stroke:#181818;stroke-width:1.0;"/><path d="M727.6845,137.6406 Q727.1064,137.9375 726.4658,138.0781 Q725.8252,138.2344 725.122,138.2344 Q722.622,138.2344 721.2939,136.5938 Q719.9814,134.9375 719.9814,131.8125 Q719.9814,128.6875 721.2939,127.0313 Q722.622,125.375 725.122,125.375 Q725.8252,125.375 726.4658,125.5313 Q727.122,125.6875 727.6845,125.9844 L727.6845,128.7031 Q727.0595,128.125 726.4658,127.8594 Q725.872,127.5781 725.247,127.5781 Q723.9033,127.5781 723.2158,128.6563 Q722.5283,129.7188 722.5283,131.8125 Q722.5283,133.9063 723.2158,134.9844 Q723.9033,136.0469 725.247,136.0469 Q725.872,136.0469 726.4658,135.7813 Q727.0595,135.5 727.6845,134.9219 L727.6845,137.6406 Z " fill="#000000"/><text fill="#000000" font-family="sans-serif" font-size="14" lengthAdjust="spacing" textLength="107.4404" x="739.846" y="136.8467">Step_1_Doosan</text><line style="stroke:#181818;stroke-width:0.5;" x1="705.63" x2="854.3722" y1="148" y2="148"/><text fill="#000000" font-family="sans-serif" font-size="14" lengthAdjust="spacing" textLength="138.7422" x="710.63" y="164.9951">Research the robot.</text><line style="stroke:#181818;stroke-width:0.5;" x1="705.63" x2="854.3722" y1="172.2969" y2="172.2969"/></g><!--class Step_2_Doosan--><g id="elem_Step_2_Doosan"><rect codeLine="42" fill="#F1F1F1" height="64.2969" id="Step_2_Doosan" rx="2.5" ry="2.5" style="stroke:#181818;stroke-width:0.5;" width="222.0479" x="668.98" y="257.3"/><ellipse cx="722.0337" cy="273.3" fill="#ADD1B2" rx="11" ry="11" style="stroke:#181818;stroke-width:1.0;"/><path d="M725.0025,278.9406 Q724.4243,279.2375 723.7837,279.3781 Q723.1431,279.5344 722.44,279.5344 Q719.94,279.5344 718.6118,277.8938 Q717.2993,276.2375 717.2993,273.1125 Q717.2993,269.9875 718.6118,268.3313 Q719.94,266.675 722.44,266.675 Q723.1431,266.675 723.7837,266.8313 Q724.44,266.9875 725.0025,267.2844 L725.0025,270.0031 Q724.3775,269.425 723.7837,269.1594 Q723.19,268.8781 722.565,268.8781 Q721.2212,268.8781 720.5337,269.9563 Q719.8462,271.0188 719.8462,273.1125 Q719.8462,275.2063 720.5337,276.2844 Q721.2212,277.3469 722.565,277.3469 Q723.19,277.3469 723.7837,277.0813 Q724.3775,276.8 725.0025,276.2219 L725.0025,278.9406 Z " fill="#000000"/><text fill="#000000" font-family="sans-serif" font-size="14" lengthAdjust="spacing" textLength="107.4404" x="742.5337" y="278.1467">Step_2_Doosan</text><line style="stroke:#181818;stroke-width:0.5;" x1="669.98" x2="890.0279" y1="289.3" y2="289.3"/><text fill="#000000" font-family="sans-serif" font-size="14" lengthAdjust="spacing" textLength="210.0479" x="674.98" y="306.2951">Research the Coral def board.</text><line style="stroke:#181818;stroke-width:0.5;" x1="669.98" x2="890.0279" y1="313.5969" y2="313.5969"/></g><!--class Step_3_Doosan--><g id="elem_Step_3_Doosan"><rect codeLine="45" fill="#F1F1F1" height="64.2969" id="Step_3_Doosan" rx="2.5" ry="2.5" style="stroke:#181818;stroke-width:0.5;" width="210.543" x="674.73" y="398.6"/><ellipse cx="722.0313" cy="414.6" fill="#ADD1B2" rx="11" ry="11" style="stroke:#181818;stroke-width:1.0;"/><path d="M725,420.2406 Q724.4219,420.5375 723.7813,420.6781 Q723.1406,420.8344 722.4375,420.8344 Q719.9375,420.8344 718.6094,419.1938 Q717.2969,417.5375 717.2969,414.4125 Q717.2969,411.2875 718.6094,409.6313 Q719.9375,407.975 722.4375,407.975 Q723.1406,407.975 723.7813,408.1313 Q724.4375,408.2875 725,408.5844 L725,411.3031 Q724.375,410.725 723.7813,410.4594 Q723.1875,410.1781 722.5625,410.1781 Q721.2188,410.1781 720.5313,411.2563 Q719.8438,412.3188 719.8438,414.4125 Q719.8438,416.5063 720.5313,417.5844 Q721.2188,418.6469 722.5625,418.6469 Q723.1875,418.6469 723.7813,418.3813 Q724.375,418.1 725,417.5219 L725,420.2406 Z " fill="#000000"/><text fill="#000000" font-family="sans-serif" font-size="14" lengthAdjust="spacing" textLength="107.4404" x="742.5313" y="419.4467">Step_3_Doosan</text><line style="stroke:#181818;stroke-width:0.5;" x1="675.73" x2="884.273" y1="430.6" y2="430.6"/><text fill="#000000" font-family="sans-serif" font-size="14" lengthAdjust="spacing" textLength="198.543" x="680.73" y="447.5951">Implement the AMR system.</text><line style="stroke:#181818;stroke-width:0.5;" x1="675.73" x2="884.273" y1="454.8969" y2="454.8969"/></g><!--class Step_4_Doosan--><g id="elem_Step_4_Doosan"><rect codeLine="48" fill="#F1F1F1" height="64.2969" id="Step_4_Doosan" rx="2.5" ry="2.5" style="stroke:#181818;stroke-width:0.5;" width="209.5996" x="675.2" y="539.89"/><ellipse cx="722.0296" cy="555.89" fill="#ADD1B2" rx="11" ry="11" style="stroke:#181818;stroke-width:1.0;"/><path d="M724.9983,561.5306 Q724.4202,561.8275 723.7796,561.9681 Q723.139,562.1244 722.4358,562.1244 Q719.9358,562.1244 718.6077,560.4838 Q717.2952,558.8275 717.2952,555.7025 Q717.2952,552.5775 718.6077,550.9213 Q719.9358,549.265 722.4358,549.265 Q723.139,549.265 723.7796,549.4213 Q724.4358,549.5775 724.9983,549.8744 L724.9983,552.5931 Q724.3733,552.015 723.7796,551.7494 Q723.1858,551.4681 722.5608,551.4681 Q721.2171,551.4681 720.5296,552.5463 Q719.8421,553.6088 719.8421,555.7025 Q719.8421,557.7963 720.5296,558.8744 Q721.2171,559.9369 722.5608,559.9369 Q723.1858,559.9369 723.7796,559.6713 Q724.3733,559.39 724.9983,558.8119 L724.9983,561.5306 Z " fill="#000000"/><text fill="#000000" font-family="sans-serif" font-size="14" lengthAdjust="spacing" textLength="107.4404" x="742.5296" y="560.7367">Step_4_Doosan</text><line style="stroke:#181818;stroke-width:0.5;" x1="676.2" x2="883.7996" y1="571.89" y2="571.89"/><text fill="#000000" font-family="sans-serif" font-size="14" lengthAdjust="spacing" textLength="197.5996" x="681.2" y="588.8851">Develop a student program.</text><line style="stroke:#181818;stroke-width:0.5;" x1="676.2" x2="883.7996" y1="596.1869" y2="596.1869"/></g><!--link WeldingRobot to Step_1_Welding--><g id="link_WeldingRobot_Step_1_Welding"><path codeLine="16" d="M186,55.3 C186,72.65 186,78.53 186,97.59 " fill="none" id="WeldingRobot-to-Step_1_Welding" style="stroke:#181818;stroke-width:1.0;"/><polygon fill="none" points="186,115.59,192,97.59,180,97.59,186,115.59" style="stroke:#181818;stroke-width:1.0;"/></g><!--link Step_1_Welding to Step_2_Welding--><g id="link_Step_1_Welding_Step_2_Welding"><path codeLine="17" d="M186,180.76 C186,203.56 186,216.2 186,238.96 " fill="none" id="Step_1_Welding-to-Step_2_Welding" style="stroke:#181818;stroke-width:1.0;"/><polygon fill="none" points="186,256.96,192,238.96,180,238.96,186,256.96" style="stroke:#181818;stroke-width:1.0;"/><text fill="#000000" font-family="sans-serif" font-size="13" lengthAdjust="spacing" textLength="238.7544" x="187" y="223.3669">Place the mold into the welding tool.</text></g><!--link Step_2_Welding to Step_3_Welding--><g id="link_Step_2_Welding_Step_3_Welding"><path codeLine="18" d="M186,322.06 C186,344.85 186,357.49 186,380.26 " fill="none" id="Step_2_Welding-to-Step_3_Welding" style="stroke:#181818;stroke-width:1.0;"/><polygon fill="none" points="186,398.26,192,380.26,180,380.26,186,398.26" style="stroke:#181818;stroke-width:1.0;"/><text fill="#000000" font-family="sans-serif" font-size="13" lengthAdjust="spacing" textLength="207.543" x="187" y="364.6669">Take the hammer out the mold.</text></g><!--link KuKaRobot to Step_1_KuKa--><g id="link_KuKaRobot_Step_1_KuKa"><path codeLine="34" d="M494,55.3 C494,72.65 494,78.53 494,97.59 " fill="none" id="KuKaRobot-to-Step_1_KuKa" style="stroke:#181818;stroke-width:1.0;"/><polygon fill="none" points="494,115.59,500,97.59,488,97.59,494,115.59" style="stroke:#181818;stroke-width:1.0;"/></g><!--link Step_1_KuKa to Step_2_KuKa--><g id="link_Step_1_KuKa_Step_2_KuKa"><path codeLine="35" d="M494,180.76 C494,203.56 494,216.2 494,238.96 " fill="none" id="Step_1_KuKa-to-Step_2_KuKa" style="stroke:#181818;stroke-width:1.0;"/><polygon fill="none" points="494,256.96,500,238.96,488,238.96,494,256.96" style="stroke:#181818;stroke-width:1.0;"/><text fill="#000000" font-family="sans-serif" font-size="13" lengthAdjust="spacing" textLength="171.0439" x="495" y="223.3669">Create a small programm.</text></g><!--link Step_2_KuKa to Step_3_KuKa--><g id="link_Step_2_KuKa_Step_3_KuKa"><path codeLine="36" d="M492.17,321.86 C491.69,331.41 491.24,341.93 491,351.6 C490.63,366.93 490.2604,365.983 490.9804,380.213 " fill="none" id="Step_2_KuKa-to-Step_3_KuKa" style="stroke:#181818;stroke-width:1.0;"/><polygon fill="none" points="491.89,398.19,496.9727,379.9098,484.9881,380.5162,491.89,398.19" style="stroke:#181818;stroke-width:1.0;"/><text fill="#000000" font-family="sans-serif" font-size="13" lengthAdjust="spacing" textLength="244.772" x="492" y="364.6669">Create a small programm with vision.</text></g><!--link DoosanRobot to Step_1_Doosan--><g id="link_DoosanRobot_Step_1_Doosan"><path codeLine="53" d="M780,55.3 C780,72.65 780,78.53 780,97.59 " fill="none" id="DoosanRobot-to-Step_1_Doosan" style="stroke:#181818;stroke-width:1.0;"/><polygon fill="none" points="780,115.59,786,97.59,774,97.59,780,115.59" style="stroke:#181818;stroke-width:1.0;"/></g><!--link Step_1_Doosan to Step_2_Doosan--><g id="link_Step_1_Doosan_Step_2_Doosan"><path codeLine="54" d="M780,180.76 C780,203.56 780,216.2 780,238.96 " fill="none" id="Step_1_Doosan-to-Step_2_Doosan" style="stroke:#181818;stroke-width:1.0;"/><polygon fill="none" points="780,256.96,786,238.96,774,238.96,780,256.96" style="stroke:#181818;stroke-width:1.0;"/><text fill="#000000" font-family="sans-serif" font-size="13" lengthAdjust="spacing" textLength="238.7544" x="781" y="223.3669">Place the mold into the welding tool.</text></g><!--link Step_2_Doosan to Step_3_Doosan--><g id="link_Step_2_Doosan_Step_3_Doosan"><path codeLine="55" d="M780,322.06 C780,344.85 780,357.49 780,380.26 " fill="none" id="Step_2_Doosan-to-Step_3_Doosan" style="stroke:#181818;stroke-width:1.0;"/><polygon fill="none" points="780,398.26,786,380.26,774,380.26,780,398.26" style="stroke:#181818;stroke-width:1.0;"/><text fill="#000000" font-family="sans-serif" font-size="13" lengthAdjust="spacing" textLength="202.4775" x="781" y="364.6669">Simple test with vision system.</text></g><!--link Step_3_Doosan to Step_4_Doosan--><g id="link_Step_3_Doosan_Step_4_Doosan"><path codeLine="56" d="M780,463.35 C780,486.15 780,498.79 780,521.56 " fill="none" id="Step_3_Doosan-to-Step_4_Doosan" style="stroke:#181818;stroke-width:1.0;"/><polygon fill="none" points="780,539.56,786,521.56,774,521.56,780,539.56" style="stroke:#181818;stroke-width:1.0;"/><text fill="#000000" font-family="sans-serif" font-size="13" lengthAdjust="spacing" textLength="219.2036" x="781" y="505.9569">Simple test with the AMR system.</text></g><!--SRC=[bPF1Re9048Rl-nJZ0qZIuib34uEcCRQDGPCUpGfJfTrboEwYCMtVlIvGM11hUYAPcUzd_dzW4EDRaY84yp1uca4akDPiK1N3MR2Ul3pMTSQgiLSKSPBkGjgIOStKoc2skTjKNVXa01EjKMu5WjaZxBcKg42IY3tstGNlM-1IqKvnMN3AlWTu594g-eQAyY69aM2Ndn-wHyzlwStITpgvMvm1vlg0uV3heME1THmr8ysoOrWA7fK6hJD8qcg_OpLXY8J7EbWZvJjIQ_xHYefoKmjxh3d08b_mA-dRLk4uH8rSHNkWj4cnD_TBf8nN9sSquyhqfbjJKpoWe0muQ9F7c1h8okDPZB5wrrR2jihSbTriYy8O0eNSeDMLN8XVLLbdsU7y6nmS4xElR7brb5CYpTChOPRDosokPtcD24Xn0USV2xR4LToRgCFEPIPGsYmjF7aEGP-qGTd3ZLpknYqSiwrhb7NMTkrUf2hzysE_4F8ReLLYBO91RTp3r3xRyut4w0-9JbO_]--></g></svg>