<svg xmlns="http://www.w3.org/2000/svg" xmlns:xlink="http://www.w3.org/1999/xlink" contentStyleType="text/css" height="611px" preserveAspectRatio="none" style="width:1119px;height:611px;background:#FFFFFF;" version="1.1" viewBox="0 0 1119 611" width="1119px" zoomAndPan="magnify"><defs/><g><!--class WeldingRobot--><g id="elem_WeldingRobot"><rect codeLine="4" fill="#F1F1F1" height="48" id="WeldingRobot" rx="2.5" ry="2.5" style="stroke:#181818;stroke-width:0.5;" width="130.1162" x="95.64" y="7"/><ellipse cx="110.64" cy="23" fill="#ADD1B2" rx="11" ry="11" style="stroke:#181818;stroke-width:1.0;"/><path d="M113.6088,28.6406 Q113.0306,28.9375 112.39,29.0781 Q111.7494,29.2344 111.0463,29.2344 Q108.5463,29.2344 107.2181,27.5938 Q105.9056,25.9375 105.9056,22.8125 Q105.9056,19.6875 107.2181,18.0313 Q108.5463,16.375 111.0463,16.375 Q111.7494,16.375 112.39,16.5313 Q113.0463,16.6875 113.6088,16.9844 L113.6088,19.7031 Q112.9838,19.125 112.39,18.8594 Q111.7963,18.5781 111.1713,18.5781 Q109.8275,18.5781 109.14,19.6563 Q108.4525,20.7188 108.4525,22.8125 Q108.4525,24.9063 109.14,25.9844 Q109.8275,27.0469 111.1713,27.0469 Q111.7963,27.0469 112.39,26.7813 Q112.9838,26.5 113.6088,25.9219 L113.6088,28.6406 Z " fill="#000000"/><text fill="#000000" font-family="sans-serif" font-size="14" lengthAdjust="spacing" textLength="98.1162" x="124.64" y="27.8467">WeldingRobot</text><line style="stroke:#181818;stroke-width:0.5;" x1="96.64" x2="224.7562" y1="39" y2="39"/><line style="stroke:#181818;stroke-width:0.5;" x1="96.64" x2="224.7562" y1="47" y2="47"/></g><!--class Step_1_Welding--><g id="elem_Step_1_Welding"><rect codeLine="5" fill="#F1F1F1" height="64.2969" id="Step_1_Welding" rx="2.5" ry="2.5" style="stroke:#181818;stroke-width:0.5;" width="214.6582" x="53.37" y="116"/><ellipse cx="100.6166" cy="132" fill="#ADD1B2" rx="11" ry="11" style="stroke:#181818;stroke-width:1.0;"/><path d="M103.5853,137.6406 Q103.0072,137.9375 102.3666,138.0781 Q101.726,138.2344 101.0228,138.2344 Q98.5228,138.2344 97.1947,136.5938 Q95.8822,134.9375 95.8822,131.8125 Q95.8822,128.6875 97.1947,127.0313 Q98.5228,125.375 101.0228,125.375 Q101.726,125.375 102.3666,125.5313 Q103.0228,125.6875 103.5853,125.9844 L103.5853,128.7031 Q102.9603,128.125 102.3666,127.8594 Q101.7728,127.5781 101.1478,127.5781 Q99.8041,127.5781 99.1166,128.6563 Q98.4291,129.7188 98.4291,131.8125 Q98.4291,133.9063 99.1166,134.9844 Q99.8041,136.0469 101.1478,136.0469 Q101.7728,136.0469 102.3666,135.7813 Q102.9603,135.5 103.5853,134.9219 L103.5853,137.6406 Z " fill="#000000"/><text fill="#000000" font-family="sans-serif" font-size="14" lengthAdjust="spacing" textLength="111.665" x="121.1166" y="136.8467">Step_1_Welding</text><line style="stroke:#181818;stroke-width:0.5;" x1="54.37" x2="267.0282" y1="148" y2="148"/><text fill="#000000" font-family="sans-serif" font-size="14" lengthAdjust="spacing" textLength="202.6582" x="59.37" y="164.9951">Assemble the hammer mold.</text><line style="stroke:#181818;stroke-width:0.5;" x1="54.37" x2="267.0282" y1="172.2969" y2="172.2969"/></g><!--class Step_2_Welding--><g id="elem_Step_2_Welding"><rect codeLine="8" fill="#F1F1F1" height="64.2969" id="Step_2_Welding" rx="2.5" ry="2.5" style="stroke:#181818;stroke-width:0.5;" width="307.3945" x="7" y="257.3"/><ellipse cx="100.6147" cy="273.3" fill="#ADD1B2" rx="11" ry="11" style="stroke:#181818;stroke-width:1.0;"/><path d="M103.5835,278.9406 Q103.0054,279.2375 102.3647,279.3781 Q101.7241,279.5344 101.021,279.5344 Q98.521,279.5344 97.1929,277.8938 Q95.8804,276.2375 95.8804,273.1125 Q95.8804,269.9875 97.1929,268.3313 Q98.521,266.675 101.021,266.675 Q101.7241,266.675 102.3647,266.8313 Q103.021,266.9875 103.5835,267.2844 L103.5835,270.0031 Q102.9585,269.425 102.3647,269.1594 Q101.771,268.8781 101.146,268.8781 Q99.8022,268.8781 99.1147,269.9563 Q98.4272,271.0188 98.4272,273.1125 Q98.4272,275.2063 99.1147,276.2844 Q99.8022,277.3469 101.146,277.3469 Q101.771,277.3469 102.3647,277.0813 Q102.9585,276.8 103.5835,276.2219 L103.5835,278.9406 Z " fill="#000000"/><text fill="#000000" font-family="sans-serif" font-size="14" lengthAdjust="spacing" textLength="111.665" x="121.1147" y="278.1467">Step_2_Welding</text><line style="stroke:#181818;stroke-width:0.5;" x1="8" x2="313.3945" y1="289.3" y2="289.3"/><text fill="#000000" font-family="sans-serif" font-size="14" lengthAdjust="spacing" textLength="295.3945" x="13" y="306.2951">Program the robot based on video guides.</text><line style="stroke:#181818;stroke-width:0.5;" x1="8" x2="313.3945" y1="313.5969" y2="313.5969"/></g><!--class Step_3_Welding--><g id="elem_Step_3_Welding"><rect codeLine="11" fill="#F1F1F1" height="64.2969" id="Step_3_Welding" rx="2.5" ry="2.5" style="stroke:#181818;stroke-width:0.5;" width="212.3066" x="54.54" y="398.6"/><ellipse cx="100.6108" cy="414.6" fill="#ADD1B2" rx="11" ry="11" style="stroke:#181818;stroke-width:1.0;"/><path d="M103.5796,420.2406 Q103.0014,420.5375 102.3608,420.6781 Q101.7202,420.8344 101.0171,420.8344 Q98.5171,420.8344 97.1889,419.1938 Q95.8764,417.5375 95.8764,414.4125 Q95.8764,411.2875 97.1889,409.6313 Q98.5171,407.975 101.0171,407.975 Q101.7202,407.975 102.3608,408.1313 Q103.0171,408.2875 103.5796,408.5844 L103.5796,411.3031 Q102.9546,410.725 102.3608,410.4594 Q101.7671,410.1781 101.1421,410.1781 Q99.7983,410.1781 99.1108,411.2563 Q98.4233,412.3188 98.4233,414.4125 Q98.4233,416.5063 99.1108,417.5844 Q99.7983,418.6469 101.1421,418.6469 Q101.7671,418.6469 102.3608,418.3813 Q102.9546,418.1 103.5796,417.5219 L103.5796,420.2406 Z " fill="#000000"/><text fill="#000000" font-family="sans-serif" font-size="14" lengthAdjust="spacing" textLength="111.665" x="121.1108" y="419.4467">Step_3_Welding</text><line style="stroke:#181818;stroke-width:0.5;" x1="55.54" x2="265.8466" y1="430.6" y2="430.6"/><text fill="#000000" font-family="sans-serif" font-size="14" lengthAdjust="spacing" textLength="200.3066" x="60.54" y="447.5951">Use the completed hammer.</text><line style="stroke:#181818;stroke-width:0.5;" x1="55.54" x2="265.8466" y1="454.8969" y2="454.8969"/></g><!--class KuKaRobot--><g id="elem_KuKaRobot"><rect codeLine="19" fill="#F1F1F1" height="48" id="KuKaRobot" rx="2.5" ry="2.5" style="stroke:#181818;stroke-width:0.5;" width="109.0479" x="428.17" y="7"/><ellipse cx="443.17" cy="23" fill="#ADD1B2" rx="11" ry="11" style="stroke:#181818;stroke-width:1.0;"/><path d="M446.1388,28.6406 Q445.5606,28.9375 444.92,29.0781 Q444.2794,29.2344 443.5763,29.2344 Q441.0763,29.2344 439.7481,27.5938 Q438.4356,25.9375 438.4356,22.8125 Q438.4356,19.6875 439.7481,18.0313 Q441.0763,16.375 443.5763,16.375 Q444.2794,16.375 444.92,16.5313 Q445.5763,16.6875 446.1388,16.9844 L446.1388,19.7031 Q445.5138,19.125 444.92,18.8594 Q444.3263,18.5781 443.7013,18.5781 Q442.3575,18.5781 441.67,19.6563 Q440.9825,20.7188 440.9825,22.8125 Q440.9825,24.9063 441.67,25.9844 Q442.3575,27.0469 443.7013,27.0469 Q444.3263,27.0469 444.92,26.7813 Q445.5138,26.5 446.1388,25.9219 L446.1388,28.6406 Z " fill="#000000"/><text fill="#000000" font-family="sans-serif" font-size="14" lengthAdjust="spacing" textLength="77.0479" x="457.17" y="27.8467">KuKaRobot</text><line style="stroke:#181818;stroke-width:0.5;" x1="429.17" x2="536.2179" y1="39" y2="39"/><line style="stroke:#181818;stroke-width:0.5;" x1="429.17" x2="536.2179" y1="47" y2="47"/></g><!--class Step_1_KuKa--><g id="elem_Step_1_KuKa"><rect codeLine="20" fill="#F1F1F1" height="64.2969" id="Step_1_KuKa" rx="2.5" ry="2.5" style="stroke:#181818;stroke-width:0.5;" width="231.2695" x="367.06" y="116"/><ellipse cx="433.1464" cy="132" fill="#ADD1B2" rx="11" ry="11" style="stroke:#181818;stroke-width:1.0;"/><path d="M436.1152,137.6406 Q435.5371,137.9375 434.8964,138.0781 Q434.2558,138.2344 433.5527,138.2344 Q431.0527,138.2344 429.7246,136.5938 Q428.4121,134.9375 428.4121,131.8125 Q428.4121,128.6875 429.7246,127.0313 Q431.0527,125.375 433.5527,125.375 Q434.2558,125.375 434.8964,125.5313 Q435.5527,125.6875 436.1152,125.9844 L436.1152,128.7031 Q435.4902,128.125 434.8964,127.8594 Q434.3027,127.5781 433.6777,127.5781 Q432.3339,127.5781 431.6464,128.6563 Q430.9589,129.7188 430.9589,131.8125 Q430.9589,133.9063 431.6464,134.9844 Q432.3339,136.0469 433.6777,136.0469 Q434.3027,136.0469 434.8964,135.7813 Q435.4902,135.5 436.1152,134.9219 L436.1152,137.6406 Z " fill="#000000"/><text fill="#000000" font-family="sans-serif" font-size="14" lengthAdjust="spacing" textLength="90.5967" x="453.6464" y="136.8467">Step_1_KuKa</text><line style="stroke:#181818;stroke-width:0.5;" x1="368.06" x2="597.3295" y1="148" y2="148"/><text fill="#000000" font-family="sans-serif" font-size="14" lengthAdjust="spacing" textLength="219.2695" x="373.06" y="164.9951">Conduct research on the robot.</text><line style="stroke:#181818;stroke-width:0.5;" x1="368.06" x2="597.3295" y1="172.2969" y2="172.2969"/></g><!--class Step_2_KuKa--><g id="elem_Step_2_KuKa"><rect codeLine="23" fill="#F1F1F1" height="64.2969" id="Step_2_KuKa" rx="2.5" ry="2.5" style="stroke:#181818;stroke-width:0.5;" width="201.8203" x="381.79" y="257.3"/><ellipse cx="433.1518" cy="273.3" fill="#ADD1B2" rx="11" ry="11" style="stroke:#181818;stroke-width:1.0;"/><path d="M436.1206,278.9406 Q435.5424,279.2375 434.9018,279.3781 Q434.2612,279.5344 433.5581,279.5344 Q431.0581,279.5344 429.7299,277.8938 Q428.4174,276.2375 428.4174,273.1125 Q428.4174,269.9875 429.7299,268.3313 Q431.0581,266.675 433.5581,266.675 Q434.2612,266.675 434.9018,266.8313 Q435.5581,266.9875 436.1206,267.2844 L436.1206,270.0031 Q435.4956,269.425 434.9018,269.1594 Q434.3081,268.8781 433.6831,268.8781 Q432.3393,268.8781 431.6518,269.9563 Q430.9643,271.0188 430.9643,273.1125 Q430.9643,275.2063 431.6518,276.2844 Q432.3393,277.3469 433.6831,277.3469 Q434.3081,277.3469 434.9018,277.0813 Q435.4956,276.8 436.1206,276.2219 L436.1206,278.9406 Z " fill="#000000"/><text fill="#000000" font-family="sans-serif" font-size="14" lengthAdjust="spacing" textLength="90.5967" x="453.6518" y="278.1467">Step_2_KuKa</text><line style="stroke:#181818;stroke-width:0.5;" x1="382.79" x2="582.6103" y1="289.3" y2="289.3"/><text fill="#000000" font-family="sans-serif" font-size="14" lengthAdjust="spacing" textLength="189.8203" x="387.79" y="306.2951">Develop the vision system.</text><line style="stroke:#181818;stroke-width:0.5;" x1="382.79" x2="582.6103" y1="313.5969" y2="313.5969"/></g><!--class Step_3_KuKa--><g id="elem_Step_3_KuKa"><rect codeLine="26" fill="#F1F1F1" height="64.2969" id="Step_3_KuKa" rx="2.5" ry="2.5" style="stroke:#181818;stroke-width:0.5;" width="362.2256" x="301.58" y="398.6"/><ellipse cx="433.1445" cy="414.6" fill="#ADD1B2" rx="11" ry="11" style="stroke:#181818;stroke-width:1.0;"/><path d="M436.1132,420.2406 Q435.5351,420.5375 434.8945,420.6781 Q434.2538,420.8344 433.5507,420.8344 Q431.0507,420.8344 429.7226,419.1938 Q428.4101,417.5375 428.4101,414.4125 Q428.4101,411.2875 429.7226,409.6313 Q431.0507,407.975 433.5507,407.975 Q434.2538,407.975 434.8945,408.1313 Q435.5507,408.2875 436.1132,408.5844 L436.1132,411.3031 Q435.4882,410.725 434.8945,410.4594 Q434.3007,410.1781 433.6757,410.1781 Q432.332,410.1781 431.6445,411.2563 Q430.957,412.3188 430.957,414.4125 Q430.957,416.5063 431.6445,417.5844 Q432.332,418.6469 433.6757,418.6469 Q434.3007,418.6469 434.8945,418.3813 Q435.4882,418.1 436.1132,417.5219 L436.1132,420.2406 Z " fill="#000000"/><text fill="#000000" font-family="sans-serif" font-size="14" lengthAdjust="spacing" textLength="90.5967" x="453.6445" y="419.4467">Step_3_KuKa</text><line style="stroke:#181818;stroke-width:0.5;" x1="302.58" x2="662.8056" y1="430.6" y2="430.6"/><text fill="#000000" font-family="sans-serif" font-size="14" lengthAdjust="spacing" textLength="350.2256" x="307.58" y="447.5951">Create a student program with vision capabilities.</text><line style="stroke:#181818;stroke-width:0.5;" x1="302.58" x2="662.8056" y1="454.8969" y2="454.8969"/></g><!--class DoosanRobot--><g id="elem_DoosanRobot"><rect codeLine="34" fill="#F1F1F1" height="48" id="DoosanRobot" rx="2.5" ry="2.5" style="stroke:#181818;stroke-width:0.5;" width="125.8916" x="755.75" y="7"/><ellipse cx="770.75" cy="23" fill="#ADD1B2" rx="11" ry="11" style="stroke:#181818;stroke-width:1.0;"/><path d="M773.7188,28.6406 Q773.1406,28.9375 772.5,29.0781 Q771.8594,29.2344 771.1563,29.2344 Q768.6563,29.2344 767.3281,27.5938 Q766.0156,25.9375 766.0156,22.8125 Q766.0156,19.6875 767.3281,18.0313 Q768.6563,16.375 771.1563,16.375 Q771.8594,16.375 772.5,16.5313 Q773.1563,16.6875 773.7188,16.9844 L773.7188,19.7031 Q773.0938,19.125 772.5,18.8594 Q771.9063,18.5781 771.2813,18.5781 Q769.9375,18.5781 769.25,19.6563 Q768.5625,20.7188 768.5625,22.8125 Q768.5625,24.9063 769.25,25.9844 Q769.9375,27.0469 771.2813,27.0469 Q771.9063,27.0469 772.5,26.7813 Q773.0938,26.5 773.7188,25.9219 L773.7188,28.6406 Z " fill="#000000"/><text fill="#000000" font-family="sans-serif" font-size="14" lengthAdjust="spacing" textLength="93.8916" x="784.75" y="27.8467">DoosanRobot</text><line style="stroke:#181818;stroke-width:0.5;" x1="756.75" x2="880.6416" y1="39" y2="39"/><line style="stroke:#181818;stroke-width:0.5;" x1="756.75" x2="880.6416" y1="47" y2="47"/></g><!--class Step_1_Doosan--><g id="elem_Step_1_Doosan"><rect codeLine="35" fill="#F1F1F1" height="64.2969" id="Step_1_Doosan" rx="2.5" ry="2.5" style="stroke:#181818;stroke-width:0.5;" width="231.2695" x="703.06" y="116"/><ellipse cx="760.7246" cy="132" fill="#ADD1B2" rx="11" ry="11" style="stroke:#181818;stroke-width:1.0;"/><path d="M763.6933,137.6406 Q763.1152,137.9375 762.4746,138.0781 Q761.8339,138.2344 761.1308,138.2344 Q758.6308,138.2344 757.3027,136.5938 Q755.9902,134.9375 755.9902,131.8125 Q755.9902,128.6875 757.3027,127.0313 Q758.6308,125.375 761.1308,125.375 Q761.8339,125.375 762.4746,125.5313 Q763.1308,125.6875 763.6933,125.9844 L763.6933,128.7031 Q763.0683,128.125 762.4746,127.8594 Q761.8808,127.5781 761.2558,127.5781 Q759.9121,127.5781 759.2246,128.6563 Q758.5371,129.7188 758.5371,131.8125 Q758.5371,133.9063 759.2246,134.9844 Q759.9121,136.0469 761.2558,136.0469 Q761.8808,136.0469 762.4746,135.7813 Q763.0683,135.5 763.6933,134.9219 L763.6933,137.6406 Z " fill="#000000"/><text fill="#000000" font-family="sans-serif" font-size="14" lengthAdjust="spacing" textLength="107.4404" x="781.2246" y="136.8467">Step_1_Doosan</text><line style="stroke:#181818;stroke-width:0.5;" x1="704.06" x2="933.3295" y1="148" y2="148"/><text fill="#000000" font-family="sans-serif" font-size="14" lengthAdjust="spacing" textLength="219.2695" x="709.06" y="164.9951">Conduct research on the robot.</text><line style="stroke:#181818;stroke-width:0.5;" x1="704.06" x2="933.3295" y1="172.2969" y2="172.2969"/></g><!--class Step_2_Doosan--><g id="elem_Step_2_Doosan"><rect codeLine="38" fill="#F1F1F1" height="64.2969" id="Step_2_Doosan" rx="2.5" ry="2.5" style="stroke:#181818;stroke-width:0.5;" width="209.7363" x="713.83" y="257.3"/><ellipse cx="760.7279" cy="273.3" fill="#ADD1B2" rx="11" ry="11" style="stroke:#181818;stroke-width:1.0;"/><path d="M763.6967,278.9406 Q763.1186,279.2375 762.4779,279.3781 Q761.8373,279.5344 761.1342,279.5344 Q758.6342,279.5344 757.3061,277.8938 Q755.9936,276.2375 755.9936,273.1125 Q755.9936,269.9875 757.3061,268.3313 Q758.6342,266.675 761.1342,266.675 Q761.8373,266.675 762.4779,266.8313 Q763.1342,266.9875 763.6967,267.2844 L763.6967,270.0031 Q763.0717,269.425 762.4779,269.1594 Q761.8842,268.8781 761.2592,268.8781 Q759.9154,268.8781 759.2279,269.9563 Q758.5404,271.0188 758.5404,273.1125 Q758.5404,275.2063 759.2279,276.2844 Q759.9154,277.3469 761.2592,277.3469 Q761.8842,277.3469 762.4779,277.0813 Q763.0717,276.8 763.6967,276.2219 L763.6967,278.9406 Z " fill="#000000"/><text fill="#000000" font-family="sans-serif" font-size="14" lengthAdjust="spacing" textLength="107.4404" x="781.2279" y="278.1467">Step_2_Doosan</text><line style="stroke:#181818;stroke-width:0.5;" x1="714.83" x2="922.5663" y1="289.3" y2="289.3"/><text fill="#000000" font-family="sans-serif" font-size="14" lengthAdjust="spacing" textLength="197.7363" x="719.83" y="306.2951">Explore the Coral def board.</text><line style="stroke:#181818;stroke-width:0.5;" x1="714.83" x2="922.5663" y1="313.5969" y2="313.5969"/></g><!--class Step_3_Doosan--><g id="elem_Step_3_Doosan"><rect codeLine="41" fill="#F1F1F1" height="64.2969" id="Step_3_Doosan" rx="2.5" ry="2.5" style="stroke:#181818;stroke-width:0.5;" width="198.874" x="719.26" y="398.6"/><ellipse cx="761.0051" cy="414.6" fill="#ADD1B2" rx="11" ry="11" style="stroke:#181818;stroke-width:1.0;"/><path d="M763.9739,420.2406 Q763.3957,420.5375 762.7551,420.6781 Q762.1145,420.8344 761.4114,420.8344 Q758.9114,420.8344 757.5832,419.1938 Q756.2707,417.5375 756.2707,414.4125 Q756.2707,411.2875 757.5832,409.6313 Q758.9114,407.975 761.4114,407.975 Q762.1145,407.975 762.7551,408.1313 Q763.4114,408.2875 763.9739,408.5844 L763.9739,411.3031 Q763.3489,410.725 762.7551,410.4594 Q762.1614,410.1781 761.5364,410.1781 Q760.1926,410.1781 759.5051,411.2563 Q758.8176,412.3188 758.8176,414.4125 Q758.8176,416.5063 759.5051,417.5844 Q760.1926,418.6469 761.5364,418.6469 Q762.1614,418.6469 762.7551,418.3813 Q763.3489,418.1 763.9739,417.5219 L763.9739,420.2406 Z " fill="#000000"/><text fill="#000000" font-family="sans-serif" font-size="14" lengthAdjust="spacing" textLength="107.4404" x="780.9485" y="419.4467">Step_3_Doosan</text><line style="stroke:#181818;stroke-width:0.5;" x1="720.26" x2="917.134" y1="430.6" y2="430.6"/><text fill="#000000" font-family="sans-serif" font-size="14" lengthAdjust="spacing" textLength="186.874" x="725.26" y="447.5951">Test with the AMR system.</text><line style="stroke:#181818;stroke-width:0.5;" x1="720.26" x2="917.134" y1="454.8969" y2="454.8969"/></g><!--class Step_4_Doosan--><g id="elem_Step_4_Doosan"><rect codeLine="44" fill="#F1F1F1" height="64.2969" id="Step_4_Doosan" rx="2.5" ry="2.5" style="stroke:#181818;stroke-width:0.5;" width="198.792" x="719.3" y="539.89"/><ellipse cx="761.0082" cy="555.89" fill="#ADD1B2" rx="11" ry="11" style="stroke:#181818;stroke-width:1.0;"/><path d="M763.977,561.5306 Q763.3988,561.8275 762.7582,561.9681 Q762.1176,562.1244 761.4145,562.1244 Q758.9145,562.1244 757.5863,560.4838 Q756.2738,558.8275 756.2738,555.7025 Q756.2738,552.5775 757.5863,550.9213 Q758.9145,549.265 761.4145,549.265 Q762.1176,549.265 762.7582,549.4213 Q763.4145,549.5775 763.977,549.8744 L763.977,552.5931 Q763.352,552.015 762.7582,551.7494 Q762.1645,551.4681 761.5395,551.4681 Q760.1957,551.4681 759.5082,552.5463 Q758.8207,553.6088 758.8207,555.7025 Q758.8207,557.7963 759.5082,558.8744 Q760.1957,559.9369 761.5395,559.9369 Q762.1645,559.9369 762.7582,559.6713 Q763.352,559.39 763.977,558.8119 L763.977,561.5306 Z " fill="#000000"/><text fill="#000000" font-family="sans-serif" font-size="14" lengthAdjust="spacing" textLength="107.4404" x="780.9434" y="560.7367">Step_4_Doosan</text><line style="stroke:#181818;stroke-width:0.5;" x1="720.3" x2="917.092" y1="571.89" y2="571.89"/><text fill="#000000" font-family="sans-serif" font-size="14" lengthAdjust="spacing" textLength="186.792" x="725.3" y="588.8851">Create a student program.</text><line style="stroke:#181818;stroke-width:0.5;" x1="720.3" x2="917.092" y1="596.1869" y2="596.1869"/></g><!--link WeldingRobot to Step_1_Welding--><g id="link_WeldingRobot_Step_1_Welding"><path codeLine="15" d="M160.7,55.3 C160.7,72.65 160.7,90.53 160.7,109.59 " fill="none" id="WeldingRobot-to-Step_1_Welding" style="stroke:#181818;stroke-width:1.0;"/><polygon fill="#181818" points="160.7,115.59,164.7,106.59,160.7,110.59,156.7,106.59,160.7,115.59" style="stroke:#181818;stroke-width:1.0;"/></g><!--link Step_1_Welding to Step_2_Welding--><g id="link_Step_1_Welding_Step_2_Welding"><path codeLine="16" d="M160.7,180.76 C160.7,203.56 160.7,228.2 160.7,250.96 " fill="none" id="Step_1_Welding-to-Step_2_Welding" style="stroke:#181818;stroke-width:1.0;"/><polygon fill="#181818" points="160.7,256.96,164.7,247.96,160.7,251.96,156.7,247.96,160.7,256.96" style="stroke:#181818;stroke-width:1.0;"/><text fill="#000000" font-family="sans-serif" font-size="13" lengthAdjust="spacing" textLength="238.7544" x="161.7" y="223.3669">Place the mold into the welding tool.</text></g><!--link Step_2_Welding to Step_3_Welding--><g id="link_Step_2_Welding_Step_3_Welding"><path codeLine="17" d="M160.7,322.06 C160.7,344.85 160.7,369.49 160.7,392.26 " fill="none" id="Step_2_Welding-to-Step_3_Welding" style="stroke:#181818;stroke-width:1.0;"/><polygon fill="#181818" points="160.7,398.26,164.7,389.26,160.7,393.26,156.7,389.26,160.7,398.26" style="stroke:#181818;stroke-width:1.0;"/><text fill="#000000" font-family="sans-serif" font-size="13" lengthAdjust="spacing" textLength="238.6973" x="161.7" y="364.6669">Remove the hammer from the mold.</text></g><!--link KuKaRobot to Step_1_KuKa--><g id="link_KuKaRobot_Step_1_KuKa"><path codeLine="30" d="M482.7,55.3 C482.7,72.65 482.7,90.53 482.7,109.59 " fill="none" id="KuKaRobot-to-Step_1_KuKa" style="stroke:#181818;stroke-width:1.0;"/><polygon fill="#181818" points="482.7,115.59,486.7,106.59,482.7,110.59,478.7,106.59,482.7,115.59" style="stroke:#181818;stroke-width:1.0;"/></g><!--link Step_1_KuKa to Step_2_KuKa--><g id="link_Step_1_KuKa_Step_2_KuKa"><path codeLine="31" d="M482.7,180.76 C482.7,203.56 482.7,228.2 482.7,250.96 " fill="none" id="Step_1_KuKa-to-Step_2_KuKa" style="stroke:#181818;stroke-width:1.0;"/><polygon fill="#181818" points="482.7,256.96,486.7,247.96,482.7,251.96,478.7,247.96,482.7,256.96" style="stroke:#181818;stroke-width:1.0;"/><text fill="#000000" font-family="sans-serif" font-size="13" lengthAdjust="spacing" textLength="208.127" x="483.7" y="223.3669">Develop a preliminary program.</text></g><!--link Step_2_KuKa to Step_3_KuKa--><g id="link_Step_2_KuKa_Step_3_KuKa"><path codeLine="32" d="M480.86,321.86 C480.38,331.41 479.93,341.93 479.7,351.6 C479.32,366.93 479.5568,377.9677 480.2768,392.1977 " fill="none" id="Step_2_KuKa-to-Step_3_KuKa" style="stroke:#181818;stroke-width:1.0;"/><polygon fill="#181818" points="480.58,398.19,484.1201,388.9994,480.3273,393.1964,476.1303,389.4036,480.58,398.19" style="stroke:#181818;stroke-width:1.0;"/><text fill="#000000" font-family="sans-serif" font-size="13" lengthAdjust="spacing" textLength="294.8232" x="480.7" y="364.6669">Enhance the program with vision integration.</text></g><!--link DoosanRobot to Step_1_Doosan--><g id="link_DoosanRobot_Step_1_Doosan"><path codeLine="48" d="M818.7,55.3 C818.7,72.65 818.7,90.53 818.7,109.59 " fill="none" id="DoosanRobot-to-Step_1_Doosan" style="stroke:#181818;stroke-width:1.0;"/><polygon fill="#181818" points="818.7,115.59,822.7,106.59,818.7,110.59,814.7,106.59,818.7,115.59" style="stroke:#181818;stroke-width:1.0;"/></g><!--link Step_1_Doosan to Step_2_Doosan--><g id="link_Step_1_Doosan_Step_2_Doosan"><path codeLine="49" d="M818.7,180.76 C818.7,203.56 818.7,228.2 818.7,250.96 " fill="none" id="Step_1_Doosan-to-Step_2_Doosan" style="stroke:#181818;stroke-width:1.0;"/><polygon fill="#181818" points="818.7,256.96,822.7,247.96,818.7,251.96,814.7,247.96,818.7,256.96" style="stroke:#181818;stroke-width:1.0;"/><text fill="#000000" font-family="sans-serif" font-size="13" lengthAdjust="spacing" textLength="172.0786" x="819.7" y="223.3669">Study the Coral def board.</text></g><!--link Step_2_Doosan to Step_3_Doosan--><g id="link_Step_2_Doosan_Step_3_Doosan"><path codeLine="50" d="M818.7,322.06 C818.7,344.85 818.7,369.49 818.7,392.26 " fill="none" id="Step_2_Doosan-to-Step_3_Doosan" style="stroke:#181818;stroke-width:1.0;"/><polygon fill="#181818" points="818.7,398.26,822.7,389.26,818.7,393.26,814.7,389.26,818.7,398.26" style="stroke:#181818;stroke-width:1.0;"/><text fill="#000000" font-family="sans-serif" font-size="13" lengthAdjust="spacing" textLength="291.3765" x="819.7" y="364.6669">Conduct simple tests with the vision system.</text></g><!--link Step_3_Doosan to Step_4_Doosan--><g id="link_Step_3_Doosan_Step_4_Doosan"><path codeLine="51" d="M818.7,463.35 C818.7,486.15 818.7,510.79 818.7,533.56 " fill="none" id="Step_3_Doosan-to-Step_4_Doosan" style="stroke:#181818;stroke-width:1.0;"/><polygon fill="#181818" points="818.7,539.56,822.7,530.56,818.7,534.56,814.7,530.56,818.7,539.56" style="stroke:#181818;stroke-width:1.0;"/><text fill="#000000" font-family="sans-serif" font-size="13" lengthAdjust="spacing" textLength="234.1396" x="819.7" y="505.9569">Test and integrate the AMR system.</text></g><!--SRC=[dLFBRjim4BppApOV40EjS_AXWA4OHP6s2DGKFGPhSMCH8Ba2IJarYlvxgOSfIf0lFKbSxipkp4XtajwK9IY-bCNN0rGQlHTtOx4y52_xxvzJNOnTlqXBPKyb7pc8gUb7eERrm-ju2ty4mDvxCaTD46g26eqX1uQrt8Y_I-376V3PyScXwN6kcmD7z2I1BPoL98PJ6nz-XMSxu_dfXzaLcqPJY0p35XrGv3hW_lxJGe5O24eTqwexUDPO3ICwNQ1iuFxqFdO4PhqH2rXYscPC9Ha-pvnwSsmIzIRP_zG-uGtlkwjUTy5MjbK0HvxGLNLdNF9orVq4VQGpQMxwzhFoAYBznGSogsPF4nrX843mePLa0pHZXEygr5UY2XiyAgs26h8JIKlkVrSKkQBC-VwyIqjY74DQ6MNHNQuZazzpyFOAFjWQxPZQsfOnH8h54Dydrn-PFTeRlW-N_-by1ZxyRZIxORE27Mg8lo8S6PrSTJ-3lf0FWueElFzMtaxjORRlZTpwU3BHUK13MSp5Po6DbLqyj_AohcRUceMKm5SdlUh-NGXHe9yKBZxDEJZHFKnqlK5ePOgNbaxz0m00]--></g></svg>