<svg xmlns="http://www.w3.org/2000/svg" xmlns:xlink="http://www.w3.org/1999/xlink" contentStyleType="text/css" height="997px" preserveAspectRatio="none" style="width:983px;height:997px;background:#FFFFFF;" version="1.1" viewBox="0 0 983 997" width="983px" zoomAndPan="magnify"><defs/><g><!--entity Students--><g id="elem_Students"><ellipse cx="99.1826" cy="14" fill="#F1F1F1" rx="8" ry="8" style="stroke:#181818;stroke-width:0.5;"/><path d="M99.1826,22 L99.1826,49 M86.1826,30 L112.1826,30 M99.1826,49 L86.1826,64 M99.1826,49 L112.1826,64 " fill="none" style="stroke:#181818;stroke-width:0.5;"/><text fill="#000000" font-family="sans-serif" font-size="14" lengthAdjust="spacing" textLength="62.4053" x="67.98" y="78.4951">Students</text></g><!--entity ResearchersSaxion--><g id="elem_ResearchersSaxion"><ellipse cx="306.1778" cy="167.3" fill="#F1F1F1" rx="8" ry="8" style="stroke:#181818;stroke-width:0.5;"/><path d="M306.1778,175.3 L306.1778,202.3 M293.1778,183.3 L319.1778,183.3 M306.1778,202.3 L293.1778,217.3 M306.1778,202.3 L319.1778,217.3 " fill="none" style="stroke:#181818;stroke-width:0.5;"/><text fill="#000000" font-family="sans-serif" font-size="14" lengthAdjust="spacing" textLength="133.8955" x="239.23" y="231.7951">ResearchersSaxion</text></g><!--entity TeachersSmeot--><g id="elem_TeachersSmeot"><ellipse cx="576.185" cy="320.6" fill="#F1F1F1" rx="8" ry="8" style="stroke:#181818;stroke-width:0.5;"/><path d="M576.185,328.6 L576.185,355.6 M563.185,336.6 L589.185,336.6 M576.185,355.6 L563.185,370.6 M576.185,355.6 L589.185,370.6 " fill="none" style="stroke:#181818;stroke-width:0.5;"/><text fill="#000000" font-family="sans-serif" font-size="14" lengthAdjust="spacing" textLength="109.1699" x="521.6" y="385.0951">TeachersSmeot</text></g><!--entity TechYourFuture--><g id="elem_TechYourFuture"><ellipse cx="202.1793" cy="342.1" fill="#F1F1F1" rx="12" ry="12" style="stroke:#181818;stroke-width:0.5;"/><line style="stroke:#181818;stroke-width:0.5;" x1="190.1793" x2="214.1793" y1="356.1" y2="356.1"/><text fill="#000000" font-family="sans-serif" font-size="14" lengthAdjust="spacing" textLength="111.1387" x="146.61" y="371.0951">TechYourFuture</text></g><!--entity SMEOT--><g id="elem_SMEOT"><ellipse cx="389.1814" cy="481.39" fill="#F1F1F1" rx="12" ry="12" style="stroke:#181818;stroke-width:0.5;"/><line style="stroke:#181818;stroke-width:0.5;" x1="377.1814" x2="401.1814" y1="495.39" y2="495.39"/><text fill="#000000" font-family="sans-serif" font-size="14" lengthAdjust="spacing" textLength="49.3828" x="364.49" y="510.3851">SMEOT</text></g><!--entity MinorIndustrialAutomation--><g id="elem_MinorIndustrialAutomation"><ellipse cx="99.1807" cy="188.8" fill="#F1F1F1" rx="12" ry="12" style="stroke:#181818;stroke-width:0.5;"/><line style="stroke:#181818;stroke-width:0.5;" x1="87.1807" x2="111.1807" y1="202.8" y2="202.8"/><text fill="#000000" font-family="sans-serif" font-size="14" lengthAdjust="spacing" textLength="186.3613" x="6" y="217.7951">MinorIndustrialAutomation</text></g><g id="elem_WeldingStation"><ellipse cx="491.1796" cy="884.0299" fill="#F1F1F1" rx="75.2496" ry="17.4499" style="stroke:#181818;stroke-width:0.5;"/><text fill="#000000" font-family="sans-serif" font-size="14" lengthAdjust="spacing" textLength="106.6543" x="434.8524" y="887.7775">WeldingStation</text></g><!--entity WeldingRobot--><g id="elem_WeldingRobot"><rect fill="#F1F1F1" height="46.2969" rx="2.5" ry="2.5" style="stroke:#181818;stroke-width:0.5;" width="138.1162" x="180.12" y="666.99"/><rect fill="#F1F1F1" height="10" style="stroke:#181818;stroke-width:0.5;" width="15" x="298.2362" y="671.99"/><rect fill="#F1F1F1" height="2" style="stroke:#181818;stroke-width:0.5;" width="4" x="296.2362" y="673.99"/><rect fill="#F1F1F1" height="2" style="stroke:#181818;stroke-width:0.5;" width="4" x="296.2362" y="677.99"/><text fill="#000000" font-family="sans-serif" font-size="14" lengthAdjust="spacing" textLength="98.1162" x="195.12" y="699.9851">WeldingRobot</text></g><!--entity KuKaRobot--><g id="elem_KuKaRobot"><rect fill="#F1F1F1" height="46.2969" rx="2.5" ry="2.5" style="stroke:#181818;stroke-width:0.5;" width="117.0479" x="349.66" y="590.69"/><rect fill="#F1F1F1" height="10" style="stroke:#181818;stroke-width:0.5;" width="15" x="446.7079" y="595.69"/><rect fill="#F1F1F1" height="2" style="stroke:#181818;stroke-width:0.5;" width="4" x="444.7079" y="597.69"/><rect fill="#F1F1F1" height="2" style="stroke:#181818;stroke-width:0.5;" width="4" x="444.7079" y="601.69"/><text fill="#000000" font-family="sans-serif" font-size="14" lengthAdjust="spacing" textLength="77.0479" x="364.66" y="623.6851">KuKaRobot</text></g><!--entity DoosanRobot--><g id="elem_DoosanRobot"><rect fill="#F1F1F1" height="46.2969" rx="2.5" ry="2.5" style="stroke:#181818;stroke-width:0.5;" width="133.8916" x="757.23" y="590.69"/><rect fill="#F1F1F1" height="10" style="stroke:#181818;stroke-width:0.5;" width="15" x="871.1216" y="595.69"/><rect fill="#F1F1F1" height="2" style="stroke:#181818;stroke-width:0.5;" width="4" x="869.1216" y="597.69"/><rect fill="#F1F1F1" height="2" style="stroke:#181818;stroke-width:0.5;" width="4" x="869.1216" y="601.69"/><text fill="#000000" font-family="sans-serif" font-size="14" lengthAdjust="spacing" textLength="93.8916" x="772.23" y="623.6851">DoosanRobot</text></g><!--entity AMR--><g id="elem_AMR"><rect fill="#F1F1F1" height="46.2969" rx="2.5" ry="2.5" style="stroke:#181818;stroke-width:0.5;" width="71.3838" x="455.49" y="743.29"/><rect fill="#F1F1F1" height="10" style="stroke:#181818;stroke-width:0.5;" width="15" x="506.8738" y="748.29"/><rect fill="#F1F1F1" height="2" style="stroke:#181818;stroke-width:0.5;" width="4" x="504.8738" y="750.29"/><rect fill="#F1F1F1" height="2" style="stroke:#181818;stroke-width:0.5;" width="4" x="504.8738" y="754.29"/><text fill="#000000" font-family="sans-serif" font-size="14" lengthAdjust="spacing" textLength="31.3838" x="470.49" y="776.2851">AMR</text></g><g id="elem_vision"><ellipse cx="713.1832" cy="766.4292" fill="#F1F1F1" rx="40.5132" ry="14.5792" style="stroke:#181818;stroke-width:0.5;"/><text fill="#000000" font-family="sans-serif" font-size="14" lengthAdjust="spacing" textLength="40.7969" x="690.1881" y="770.0774">vision</text></g><g id="elem_welding/"><ellipse cx="491.1775" cy="977.209" fill="#F1F1F1" rx="54.2475" ry="14.729" style="stroke:#181818;stroke-width:0.5;"/><text fill="#000000" font-family="sans-serif" font-size="14" lengthAdjust="spacing" textLength="59.2061" x="458.5745" y="980.9565">welding/</text></g><line style="stroke:#181818;stroke-width:0.5;" x1="541.1013" x2="524.8818" y1="972.0745" y2="988.294"/><!--link Students to MinorIndustrialAutomation--><g id="link_Students_MinorIndustrialAutomation"><path d="M99.18,82.05 C99.18,110.4 99.18,148.48 99.18,172.63 " fill="none" id="Students-MinorIndustrialAutomation" style="stroke:#181818;stroke-width:1.0;"/><text fill="#000000" font-family="sans-serif" font-size="13" lengthAdjust="spacing" textLength="128.7559" x="100.18" y="124.8669">Following the minor</text></g><!--link MinorIndustrialAutomation to TechYourFuture--><g id="link_MinorIndustrialAutomation_TechYourFuture"><path d="M92.13,221.59 C88.25,239.34 86.03,263.66 96.18,282.1 C107.16,302.04 126.83,316.89 146.28,327.49 " fill="none" id="MinorIndustrialAutomation-TechYourFuture" style="stroke:#181818;stroke-width:1.0;"/><text fill="#000000" font-family="sans-serif" font-size="13" lengthAdjust="spacing" textLength="165.3564" x="97.18" y="278.1669">Assisting TechYourFuture</text></g><!--link ResearchersSaxion to TechYourFuture--><g id="link_ResearchersSaxion_TechYourFuture"><path d="M292.02,235.43 C285.5,250.54 277.02,267.76 267.18,282.1 C256.25,298.02 241.44,313.64 228.71,325.81 " fill="none" id="ResearchersSaxion-TechYourFuture" style="stroke:#181818;stroke-width:1.0;"/><text fill="#000000" font-family="sans-serif" font-size="13" lengthAdjust="spacing" textLength="204.2739" x="277.18" y="278.1669">Developing educatinal material</text></g><!--link TechYourFuture to SMEOT--><g id="link_TechYourFuture_SMEOT"><path d="M193.95,374.71 C189.11,393.07 186.19,418.27 199.18,435.39 C219.21,461.8 317.51,478.65 364.32,485.31 " fill="none" id="TechYourFuture-SMEOT" style="stroke:#181818;stroke-width:1.0;"/><text fill="#000000" font-family="sans-serif" font-size="13" lengthAdjust="spacing" textLength="332.2427" x="200.18" y="431.4569">Designing a module for level 3 students in robotics</text></g><!--link TeachersSmeot to SMEOT--><g id="link_TeachersSmeot_SMEOT"><path d="M566,388.76 C559.94,404.96 550.73,423.01 537.18,435.39 C502.13,467.45 446.35,480.49 414.22,485.55 " fill="none" id="TeachersSmeot-SMEOT" style="stroke:#181818;stroke-width:1.0;"/><text fill="#000000" font-family="sans-serif" font-size="13" lengthAdjust="spacing" textLength="332.2427" x="550.18" y="431.4569">Designing a module for level 3 students in robotics</text></g><!--link KuKaRobot to vision--><g id="link_KuKaRobot_vision"><path d="M467.05,618.18 C540.39,623.58 659.87,636.84 691.18,666.99 C714.26,689.22 715.59,729.97 714.47,751.41 " fill="none" id="KuKaRobot-vision" style="stroke:#181818;stroke-width:1.0;"/></g><!--link DoosanRobot to vision--><g id="link_DoosanRobot_vision"><path d="M807.56,637.39 C784.1,669.22 741.99,726.34 722.98,752.14 " fill="none" id="DoosanRobot-vision" style="stroke:#181818;stroke-width:1.0;"/></g><!--link SMEOT to WeldingRobot--><g id="link_SMEOT_WeldingRobot"><path d="M364.31,495.3 C338.17,501.65 297.91,515.55 276.18,543.69 C248.33,579.78 246.12,635.75 247.38,666.68 " fill="none" id="SMEOT-WeldingRobot" style="stroke:#181818;stroke-width:1.0;"/><text fill="#000000" font-family="sans-serif" font-size="13" lengthAdjust="spacing" textLength="98.4204" x="277.18" y="556.7569">Welding a item</text></g><!--link SMEOT to DoosanRobot--><g id="link_SMEOT_DoosanRobot"><path d="M414.35,490.24 C495.18,489.8 746.35,492.62 805.18,543.69 C818.44,555.2 822.85,575.01 824.15,590.48 " fill="none" id="SMEOT-DoosanRobot" style="stroke:#181818;stroke-width:1.0;"/><text fill="#000000" font-family="sans-serif" font-size="13" lengthAdjust="spacing" textLength="156.8506" x="818.18" y="556.7569">Assist the welding robot</text></g><!--link SMEOT to KuKaRobot--><g id="link_SMEOT_KuKaRobot"><path d="M385.36,514.15 C383.84,527.86 383.09,545.4 386.18,560.69 C388.23,570.8 392.3,581.39 396.38,590.37 " fill="none" id="SMEOT-KuKaRobot" style="stroke:#181818;stroke-width:1.0;"/><text fill="#000000" font-family="sans-serif" font-size="13" lengthAdjust="spacing" textLength="413.9053" x="387.18" y="556.7569">Select the right components for the robot with the use of vision</text></g><!--link DoosanRobot to WeldingStation--><g id="link_DoosanRobot_WeldingStation"><path d="M825.15,637.37 C825.77,682.52 820.21,784.24 762.18,836.58 C733.69,862.28 634.13,874.02 563.98,879.2 " fill="none" id="DoosanRobot-WeldingStation" style="stroke:#181818;stroke-width:1.0;"/><text fill="#000000" font-family="sans-serif" font-size="13" lengthAdjust="spacing" textLength="156.8506" x="813.18" y="770.9969">Assist the welding robot</text></g><!--link WeldingRobot to WeldingStation--><g id="link_WeldingRobot_WeldingStation"><path d="M247.51,713.56 C247.1,735.3 249.85,768.07 267.18,789.58 C307.1,839.13 377.86,862.74 429.19,873.77 " fill="none" id="WeldingRobot-WeldingStation" style="stroke:#181818;stroke-width:1.0;"/><text fill="#000000" font-family="sans-serif" font-size="13" lengthAdjust="spacing" textLength="169.4951" x="268.18" y="770.9969">Welding a "Thor" hammer</text></g><!--link KuKaRobot to AMR--><g id="link_KuKaRobot_AMR"><path d="M401.27,637.13 C396.12,658.17 392.01,689.89 405.18,713.29 C415.89,732.3 436.65,745.18 455.08,753.38 " fill="none" id="KuKaRobot-AMR" style="stroke:#181818;stroke-width:1.0;"/><text fill="#000000" font-family="sans-serif" font-size="13" lengthAdjust="spacing" textLength="280.8457" x="406.18" y="694.7069">Brings selected components to on the AMR</text></g><!--link AMR to WeldingStation--><g id="link_AMR_WeldingStation"><path d="M491.18,790 C491.18,812.34 491.18,846.03 491.18,866.15 " fill="none" id="AMR-WeldingStation" style="stroke:#181818;stroke-width:1.0;"/><text fill="#000000" font-family="sans-serif" font-size="13" lengthAdjust="spacing" textLength="261.7012" x="492.18" y="832.6469">Brings components to the welding robot</text></g><!--link WeldingStation to welding/--><g id="link_WeldingStation_welding/"><path d="M491.18,901.76 C491.18,919.03 491.18,945.7 491.18,961.99 " fill="none" id="WeldingStation-welding/" style="stroke:#181818;stroke-width:1.0;"/></g><!--SRC=[fLFBJiCm4BpxArQzenwuSIigbL1L8JML44UJB8qbnukyTWj_pzf9cWSj5uuxtfdPbtKPo4CHOeKkiD8vt2EZzcMDdWlzPSXr-05r2pP8GIbXcF0jQ5c_KVIR6AB77YrsJo-7FjWPH_xPLP63DzgkOg16XoIi8cEf6U4LRMNSiGWjNbBpIKxe_SEUtiLpWBTng-VOceYrcwEhtNwmEHbEybsuXCMvbLykGAb-371tTxjaU80DMKjdOK6e4PgKgMxdYzXqHAAmOZOSai9iUhz6VvM-nXDQ-anyh68fFavR43zCtahD22AHrv6PR8uk4JKqL4MBy26RjKaGxe7x2HW7FitHbAmcQ_-lcBeiBYbrwnWjReIgraU0yGs8RnUAgmdO36bZcNx6UKNTajigXloXb0Seq6BPPdjph0DS3eXpK_aXvvvDg7CeHmJqSQbsriJqeF-gPzBTDURGx-9Garz0hPi6_MoMSkUI- -Wbau5pErYDsmW48fVyqvT8wTVCEe4fxtVHQaOKgU4l_G00]--></g></svg>