<svg xmlns="http://www.w3.org/2000/svg" xmlns:xlink="http://www.w3.org/1999/xlink" contentStyleType="text/css" height="1204px" preserveAspectRatio="none" style="width:492px;height:1204px;background:#FFFFFF;" version="1.1" viewBox="0 0 492 1204" width="492px" zoomAndPan="magnify"><defs/><g><!--cluster Project Overview--><g id="cluster_Project Overview"><path d="M8.5,6 L144.2227,6 A3.75,3.75 0 0 1 146.7227,8.5 L153.7227,28.2969 L482.96,28.2969 A2.5,2.5 0 0 1 485.46,30.7969 L485.46,1194.5 A2.5,2.5 0 0 1 482.96,1197 L8.5,1197 A2.5,2.5 0 0 1 6,1194.5 L6,8.5 A2.5,2.5 0 0 1 8.5,6 " fill="none" style="stroke:#000000;stroke-width:1.5;"/><line style="stroke:#000000;stroke-width:1.5;" x1="6" x2="153.7227" y1="28.2969" y2="28.2969"/><text fill="#000000" font-family="sans-serif" font-size="14" font-weight="bold" lengthAdjust="spacing" textLength="134.7227" x="10" y="20.9951">Project Overview</text></g><!--cluster WeldingRobot--><g id="cluster_WeldingRobot"><path d="M32.5,910 L144.7754,910 A3.75,3.75 0 0 1 147.2754,912.5 L154.2754,932.2969 L458.96,932.2969 A2.5,2.5 0 0 1 461.46,934.7969 L461.46,1170.5 A2.5,2.5 0 0 1 458.96,1173 L32.5,1173 A2.5,2.5 0 0 1 30,1170.5 L30,912.5 A2.5,2.5 0 0 1 32.5,910 " fill="none" style="stroke:#000000;stroke-width:1.5;"/><line style="stroke:#000000;stroke-width:1.5;" x1="30" x2="154.2754" y1="932.2969" y2="932.2969"/><text fill="#000000" font-family="sans-serif" font-size="14" font-weight="bold" lengthAdjust="spacing" textLength="111.2754" x="34" y="924.9951">WeldingRobot</text></g><!--cluster KuKaRobot--><g id="cluster_KuKaRobot"><path d="M32.5,623 L121.3418,623 A3.75,3.75 0 0 1 123.8418,625.5 L130.8418,645.2969 L458.96,645.2969 A2.5,2.5 0 0 1 461.46,647.7969 L461.46,883.5 A2.5,2.5 0 0 1 458.96,886 L32.5,886 A2.5,2.5 0 0 1 30,883.5 L30,625.5 A2.5,2.5 0 0 1 32.5,623 " fill="none" style="stroke:#000000;stroke-width:1.5;"/><line style="stroke:#000000;stroke-width:1.5;" x1="30" x2="130.8418" y1="645.2969" y2="645.2969"/><text fill="#000000" font-family="sans-serif" font-size="14" font-weight="bold" lengthAdjust="spacing" textLength="87.8418" x="34" y="637.9951">KuKaRobot</text></g><!--cluster DoosanRobot--><g id="cluster_DoosanRobot"><path d="M32.5,336 L138.835,336 A3.75,3.75 0 0 1 141.335,338.5 L148.335,358.2969 L458.96,358.2969 A2.5,2.5 0 0 1 461.46,360.7969 L461.46,596.5 A2.5,2.5 0 0 1 458.96,599 L32.5,599 A2.5,2.5 0 0 1 30,596.5 L30,338.5 A2.5,2.5 0 0 1 32.5,336 " fill="none" style="stroke:#000000;stroke-width:1.5;"/><line style="stroke:#000000;stroke-width:1.5;" x1="30" x2="148.335" y1="358.2969" y2="358.2969"/><text fill="#000000" font-family="sans-serif" font-size="14" font-weight="bold" lengthAdjust="spacing" textLength="105.335" x="34" y="350.9951">DoosanRobot</text></g><!--cluster AMR--><g id="cluster_AMR"><path d="M32.5,49 L69.0469,49 A3.75,3.75 0 0 1 71.5469,51.5 L78.5469,71.2969 L458.96,71.2969 A2.5,2.5 0 0 1 461.46,73.7969 L461.46,309.5 A2.5,2.5 0 0 1 458.96,312 L32.5,312 A2.5,2.5 0 0 1 30,309.5 L30,51.5 A2.5,2.5 0 0 1 32.5,49 " fill="none" style="stroke:#000000;stroke-width:1.5;"/><line style="stroke:#000000;stroke-width:1.5;" x1="30" x2="78.5469" y1="71.2969" y2="71.2969"/><text fill="#000000" font-family="sans-serif" font-size="14" font-weight="bold" lengthAdjust="spacing" textLength="35.5469" x="34" y="63.9951">AMR</text></g><!--class Bram--><g id="elem_Bram"><rect codeLine="5" fill="#F1F1F1" height="96.8906" id="Bram" rx="2.5" ry="2.5" style="stroke:#181818;stroke-width:0.5;" width="399.4609" x="46" y="1060.55"/><ellipse cx="222.6919" cy="1076.55" fill="#ADD1B2" rx="11" ry="11" style="stroke:#181818;stroke-width:1.0;"/><path d="M225.6606,1082.1906 Q225.0825,1082.4875 224.4419,1082.6281 Q223.8013,1082.7844 223.0981,1082.7844 Q220.5981,1082.7844 219.27,1081.1438 Q217.9575,1079.4875 217.9575,1076.3625 Q217.9575,1073.2375 219.27,1071.5813 Q220.5981,1069.925 223.0981,1069.925 Q223.8013,1069.925 224.4419,1070.0813 Q225.0981,1070.2375 225.6606,1070.5344 L225.6606,1073.2531 Q225.0356,1072.675 224.4419,1072.4094 Q223.8481,1072.1281 223.2231,1072.1281 Q221.8794,1072.1281 221.1919,1073.2063 Q220.5044,1074.2688 220.5044,1076.3625 Q220.5044,1078.4563 221.1919,1079.5344 Q221.8794,1080.5969 223.2231,1080.5969 Q223.8481,1080.5969 224.4419,1080.3313 Q225.0356,1080.05 225.6606,1079.4719 L225.6606,1082.1906 Z " fill="#000000"/><text fill="#000000" font-family="sans-serif" font-size="14" lengthAdjust="spacing" textLength="37.5771" x="243.1919" y="1081.3967">Bram</text><line style="stroke:#181818;stroke-width:0.5;" x1="47" x2="444.4609" y1="1092.55" y2="1092.55"/><ellipse cx="57" cy="1106.1984" fill="none" rx="3" ry="3" style="stroke:#038048;stroke-width:1.0;"/><text fill="#000000" font-family="sans-serif" font-size="14" lengthAdjust="spacing" textLength="101.6914" x="66" y="1109.5451">Project leader.</text><ellipse cx="57" cy="1122.4953" fill="none" rx="3" ry="3" style="stroke:#038048;stroke-width:1.0;"/><text fill="#000000" font-family="sans-serif" font-size="14" lengthAdjust="spacing" textLength="184.5703" x="66" y="1125.842">Develop student program.</text><ellipse cx="57" cy="1138.7922" fill="none" rx="3" ry="3" style="stroke:#038048;stroke-width:1.0;"/><text fill="#000000" font-family="sans-serif" font-size="14" lengthAdjust="spacing" textLength="373.4609" x="66" y="1142.1389">Explain the rest of the students how the robot works.</text><line style="stroke:#181818;stroke-width:0.5;" x1="47" x2="444.4609" y1="1149.4406" y2="1149.4406"/></g><!--class Project_group--><g id="elem_Project_group"><rect codeLine="10" fill="#F1F1F1" height="80.5938" id="Project_group" rx="2.5" ry="2.5" style="stroke:#181818;stroke-width:0.5;" width="293.0459" x="99.21" y="944.7"/><ellipse cx="193.2725" cy="960.7" fill="#ADD1B2" rx="11" ry="11" style="stroke:#181818;stroke-width:1.0;"/><path d="M196.2412,966.3406 Q195.6631,966.6375 195.0225,966.7781 Q194.3819,966.9344 193.6787,966.9344 Q191.1787,966.9344 189.8506,965.2938 Q188.5381,963.6375 188.5381,960.5125 Q188.5381,957.3875 189.8506,955.7313 Q191.1787,954.075 193.6787,954.075 Q194.3819,954.075 195.0225,954.2313 Q195.6787,954.3875 196.2412,954.6844 L196.2412,957.4031 Q195.6162,956.825 195.0225,956.5594 Q194.4287,956.2781 193.8037,956.2781 Q192.46,956.2781 191.7725,957.3563 Q191.085,958.4188 191.085,960.5125 Q191.085,962.6063 191.7725,963.6844 Q192.46,964.7469 193.8037,964.7469 Q194.4287,964.7469 195.0225,964.4813 Q195.6162,964.2 196.2412,963.6219 L196.2412,966.3406 Z " fill="#000000"/><text fill="#000000" font-family="sans-serif" font-size="14" lengthAdjust="spacing" textLength="96.4209" x="213.7725" y="965.5467">Project_group</text><line style="stroke:#181818;stroke-width:0.5;" x1="100.21" x2="391.2559" y1="976.7" y2="976.7"/><ellipse cx="110.21" cy="990.3484" fill="none" rx="3" ry="3" style="stroke:#038048;stroke-width:1.0;"/><text fill="#000000" font-family="sans-serif" font-size="14" lengthAdjust="spacing" textLength="192.0078" x="119.21" y="993.6951">Assist Bram where needed.</text><ellipse cx="110.21" cy="1006.6453" fill="none" rx="3" ry="3" style="stroke:#038048;stroke-width:1.0;"/><text fill="#000000" font-family="sans-serif" font-size="14" lengthAdjust="spacing" textLength="267.0459" x="119.21" y="1009.992">Learn from the progress Bram makes.</text><line style="stroke:#181818;stroke-width:0.5;" x1="100.21" x2="391.2559" y1="1017.2938" y2="1017.2938"/></g><!--class Dylan--><g id="elem_Dylan"><rect codeLine="17" fill="#F1F1F1" height="96.8906" id="Dylan" rx="2.5" ry="2.5" style="stroke:#181818;stroke-width:0.5;" width="399.4609" x="46" y="773.55"/><ellipse cx="221.2769" cy="789.55" fill="#ADD1B2" rx="11" ry="11" style="stroke:#181818;stroke-width:1.0;"/><path d="M224.2456,795.1906 Q223.6675,795.4875 223.0269,795.6281 Q222.3862,795.7844 221.6831,795.7844 Q219.1831,795.7844 217.855,794.1438 Q216.5425,792.4875 216.5425,789.3625 Q216.5425,786.2375 217.855,784.5813 Q219.1831,782.925 221.6831,782.925 Q222.3862,782.925 223.0269,783.0813 Q223.6831,783.2375 224.2456,783.5344 L224.2456,786.2531 Q223.6206,785.675 223.0269,785.4094 Q222.4331,785.1281 221.8081,785.1281 Q220.4644,785.1281 219.7769,786.2063 Q219.0894,787.2688 219.0894,789.3625 Q219.0894,791.4563 219.7769,792.5344 Q220.4644,793.5969 221.8081,793.5969 Q222.4331,793.5969 223.0269,793.3313 Q223.6206,793.05 224.2456,792.4719 L224.2456,795.1906 Z " fill="#000000"/><text fill="#000000" font-family="sans-serif" font-size="14" lengthAdjust="spacing" textLength="40.4072" x="241.7769" y="794.3967">Dylan</text><line style="stroke:#181818;stroke-width:0.5;" x1="47" x2="444.4609" y1="805.55" y2="805.55"/><ellipse cx="57" cy="819.1984" fill="none" rx="3" ry="3" style="stroke:#038048;stroke-width:1.0;"/><text fill="#000000" font-family="sans-serif" font-size="14" lengthAdjust="spacing" textLength="101.6914" x="66" y="822.5451">Project leader.</text><ellipse cx="57" cy="835.4953" fill="none" rx="3" ry="3" style="stroke:#038048;stroke-width:1.0;"/><text fill="#000000" font-family="sans-serif" font-size="14" lengthAdjust="spacing" textLength="184.5703" x="66" y="838.842">Develop student program.</text><ellipse cx="57" cy="851.7922" fill="none" rx="3" ry="3" style="stroke:#038048;stroke-width:1.0;"/><text fill="#000000" font-family="sans-serif" font-size="14" lengthAdjust="spacing" textLength="373.4609" x="66" y="855.1389">Explain the rest of the students how the robot works.</text><line style="stroke:#181818;stroke-width:0.5;" x1="47" x2="444.4609" y1="862.4406" y2="862.4406"/></g><!--class Project_group--><g id="elem_Project_group"><rect codeLine="22" fill="#F1F1F1" height="80.5938" id="Project_group" rx="2.5" ry="2.5" style="stroke:#181818;stroke-width:0.5;" width="295.876" x="97.79" y="657.7"/><ellipse cx="193.2675" cy="673.7" fill="#ADD1B2" rx="11" ry="11" style="stroke:#181818;stroke-width:1.0;"/><path d="M196.2363,679.3406 Q195.6582,679.6375 195.0175,679.7781 Q194.3769,679.9344 193.6738,679.9344 Q191.1738,679.9344 189.8457,678.2938 Q188.5332,676.6375 188.5332,673.5125 Q188.5332,670.3875 189.8457,668.7313 Q191.1738,667.075 193.6738,667.075 Q194.3769,667.075 195.0175,667.2313 Q195.6738,667.3875 196.2363,667.6844 L196.2363,670.4031 Q195.6113,669.825 195.0175,669.5594 Q194.4238,669.2781 193.7988,669.2781 Q192.455,669.2781 191.7675,670.3563 Q191.08,671.4188 191.08,673.5125 Q191.08,675.6063 191.7675,676.6844 Q192.455,677.7469 193.7988,677.7469 Q194.4238,677.7469 195.0175,677.4813 Q195.6113,677.2 196.2363,676.6219 L196.2363,679.3406 Z " fill="#000000"/><text fill="#000000" font-family="sans-serif" font-size="14" lengthAdjust="spacing" textLength="96.4209" x="213.7675" y="678.5467">Project_group</text><line style="stroke:#181818;stroke-width:0.5;" x1="98.79" x2="392.666" y1="689.7" y2="689.7"/><ellipse cx="108.79" cy="703.3484" fill="none" rx="3" ry="3" style="stroke:#038048;stroke-width:1.0;"/><text fill="#000000" font-family="sans-serif" font-size="14" lengthAdjust="spacing" textLength="194.8379" x="117.79" y="706.6951">Assist Dylan where needed.</text><ellipse cx="108.79" cy="719.6453" fill="none" rx="3" ry="3" style="stroke:#038048;stroke-width:1.0;"/><text fill="#000000" font-family="sans-serif" font-size="14" lengthAdjust="spacing" textLength="269.876" x="117.79" y="722.992">Learn from the progress Dylan makes.</text><line style="stroke:#181818;stroke-width:0.5;" x1="98.79" x2="392.666" y1="730.2938" y2="730.2938"/></g><!--class Gijs--><g id="elem_Gijs"><rect codeLine="28" fill="#F1F1F1" height="96.8906" id="Gijs" rx="2.5" ry="2.5" style="stroke:#181818;stroke-width:0.5;" width="399.4609" x="46" y="486.55"/><ellipse cx="228.5195" cy="502.55" fill="#ADD1B2" rx="11" ry="11" style="stroke:#181818;stroke-width:1.0;"/><path d="M231.4883,508.1906 Q230.9102,508.4875 230.2695,508.6281 Q229.6289,508.7844 228.9258,508.7844 Q226.4258,508.7844 225.0977,507.1437 Q223.7852,505.4875 223.7852,502.3625 Q223.7852,499.2375 225.0977,497.5812 Q226.4258,495.925 228.9258,495.925 Q229.6289,495.925 230.2695,496.0812 Q230.9258,496.2375 231.4883,496.5344 L231.4883,499.2531 Q230.8633,498.675 230.2695,498.4094 Q229.6758,498.1281 229.0508,498.1281 Q227.707,498.1281 227.0195,499.2062 Q226.332,500.2687 226.332,502.3625 Q226.332,504.4562 227.0195,505.5344 Q227.707,506.5969 229.0508,506.5969 Q229.6758,506.5969 230.2695,506.3312 Q230.8633,506.05 231.4883,505.4719 L231.4883,508.1906 Z " fill="#000000"/><text fill="#000000" font-family="sans-serif" font-size="14" lengthAdjust="spacing" textLength="25.9219" x="249.0195" y="507.3967">Gijs</text><line style="stroke:#181818;stroke-width:0.5;" x1="47" x2="444.4609" y1="518.55" y2="518.55"/><ellipse cx="57" cy="532.1984" fill="none" rx="3" ry="3" style="stroke:#038048;stroke-width:1.0;"/><text fill="#000000" font-family="sans-serif" font-size="14" lengthAdjust="spacing" textLength="101.6914" x="66" y="535.5451">Project leader.</text><ellipse cx="57" cy="548.4953" fill="none" rx="3" ry="3" style="stroke:#038048;stroke-width:1.0;"/><text fill="#000000" font-family="sans-serif" font-size="14" lengthAdjust="spacing" textLength="184.5703" x="66" y="551.842">Develop student program.</text><ellipse cx="57" cy="564.7922" fill="none" rx="3" ry="3" style="stroke:#038048;stroke-width:1.0;"/><text fill="#000000" font-family="sans-serif" font-size="14" lengthAdjust="spacing" textLength="373.4609" x="66" y="568.1389">Explain the rest of the students how the robot works.</text><line style="stroke:#181818;stroke-width:0.5;" x1="47" x2="444.4609" y1="575.4406" y2="575.4406"/></g><!--class Project_group--><g id="elem_Project_group"><rect codeLine="33" fill="#F1F1F1" height="80.5938" id="Project_group" rx="2.5" ry="2.5" style="stroke:#181818;stroke-width:0.5;" width="281.3906" x="105.04" y="370.7"/><ellipse cx="193.2749" cy="386.7" fill="#ADD1B2" rx="11" ry="11" style="stroke:#181818;stroke-width:1.0;"/><path d="M196.2436,392.3406 Q195.6655,392.6375 195.0249,392.7781 Q194.3842,392.9344 193.6811,392.9344 Q191.1811,392.9344 189.853,391.2938 Q188.5405,389.6375 188.5405,386.5125 Q188.5405,383.3875 189.853,381.7313 Q191.1811,380.075 193.6811,380.075 Q194.3842,380.075 195.0249,380.2313 Q195.6811,380.3875 196.2436,380.6844 L196.2436,383.4031 Q195.6186,382.825 195.0249,382.5594 Q194.4311,382.2781 193.8061,382.2781 Q192.4624,382.2781 191.7749,383.3563 Q191.0874,384.4188 191.0874,386.5125 Q191.0874,388.6063 191.7749,389.6844 Q192.4624,390.7469 193.8061,390.7469 Q194.4311,390.7469 195.0249,390.4813 Q195.6186,390.2 196.2436,389.6219 L196.2436,392.3406 Z " fill="#000000"/><text fill="#000000" font-family="sans-serif" font-size="14" lengthAdjust="spacing" textLength="96.4209" x="213.7749" y="391.5467">Project_group</text><line style="stroke:#181818;stroke-width:0.5;" x1="106.04" x2="385.4306" y1="402.7" y2="402.7"/><ellipse cx="116.04" cy="416.3484" fill="none" rx="3" ry="3" style="stroke:#038048;stroke-width:1.0;"/><text fill="#000000" font-family="sans-serif" font-size="14" lengthAdjust="spacing" textLength="180.3525" x="125.04" y="419.6951">Assist Gijs where needed.</text><ellipse cx="116.04" cy="432.6453" fill="none" rx="3" ry="3" style="stroke:#038048;stroke-width:1.0;"/><text fill="#000000" font-family="sans-serif" font-size="14" lengthAdjust="spacing" textLength="255.3906" x="125.04" y="435.992">Learn from the progress Gijs makes.</text><line style="stroke:#181818;stroke-width:0.5;" x1="106.04" x2="385.4306" y1="443.2938" y2="443.2938"/></g><!--class Hailing--><g id="elem_Hailing"><rect codeLine="40" fill="#F1F1F1" height="96.8906" id="Hailing" rx="2.5" ry="2.5" style="stroke:#181818;stroke-width:0.5;" width="399.4609" x="46" y="199.55"/><ellipse cx="217.2129" cy="215.55" fill="#ADD1B2" rx="11" ry="11" style="stroke:#181818;stroke-width:1.0;"/><path d="M220.1816,221.1906 Q219.6035,221.4875 218.9629,221.6281 Q218.3223,221.7844 217.6191,221.7844 Q215.1191,221.7844 213.791,220.1437 Q212.4785,218.4875 212.4785,215.3625 Q212.4785,212.2375 213.791,210.5812 Q215.1191,208.925 217.6191,208.925 Q218.3223,208.925 218.9629,209.0812 Q219.6191,209.2375 220.1816,209.5344 L220.1816,212.2531 Q219.5566,211.675 218.9629,211.4094 Q218.3691,211.1281 217.7441,211.1281 Q216.4004,211.1281 215.7129,212.2062 Q215.0254,213.2687 215.0254,215.3625 Q215.0254,217.4562 215.7129,218.5344 Q216.4004,219.5969 217.7441,219.5969 Q218.3691,219.5969 218.9629,219.3312 Q219.5566,219.05 220.1816,218.4719 L220.1816,221.1906 Z " fill="#000000"/><text fill="#000000" font-family="sans-serif" font-size="14" lengthAdjust="spacing" textLength="48.5352" x="237.7129" y="220.3967">Hailing</text><line style="stroke:#181818;stroke-width:0.5;" x1="47" x2="444.4609" y1="231.55" y2="231.55"/><ellipse cx="57" cy="245.1984" fill="none" rx="3" ry="3" style="stroke:#038048;stroke-width:1.0;"/><text fill="#000000" font-family="sans-serif" font-size="14" lengthAdjust="spacing" textLength="101.6914" x="66" y="248.5451">Project leader.</text><ellipse cx="57" cy="261.4953" fill="none" rx="3" ry="3" style="stroke:#038048;stroke-width:1.0;"/><text fill="#000000" font-family="sans-serif" font-size="14" lengthAdjust="spacing" textLength="184.5703" x="66" y="264.842">Develop student program.</text><ellipse cx="57" cy="277.7922" fill="none" rx="3" ry="3" style="stroke:#038048;stroke-width:1.0;"/><text fill="#000000" font-family="sans-serif" font-size="14" lengthAdjust="spacing" textLength="373.4609" x="66" y="281.1389">Explain the rest of the students how the robot works.</text><line style="stroke:#181818;stroke-width:0.5;" x1="47" x2="444.4609" y1="288.4406" y2="288.4406"/></g><!--class Project_group--><g id="elem_Project_group"><rect codeLine="45" fill="#F1F1F1" height="80.5938" id="Project_group" rx="2.5" ry="2.5" style="stroke:#181818;stroke-width:0.5;" width="304.0039" x="93.73" y="83.7"/><ellipse cx="193.2715" cy="99.7" fill="#ADD1B2" rx="11" ry="11" style="stroke:#181818;stroke-width:1.0;"/><path d="M196.2403,105.3406 Q195.6621,105.6375 195.0215,105.7781 Q194.3809,105.9344 193.6778,105.9344 Q191.1778,105.9344 189.8496,104.2938 Q188.5371,102.6375 188.5371,99.5125 Q188.5371,96.3875 189.8496,94.7313 Q191.1778,93.075 193.6778,93.075 Q194.3809,93.075 195.0215,93.2313 Q195.6778,93.3875 196.2403,93.6844 L196.2403,96.4031 Q195.6153,95.825 195.0215,95.5594 Q194.4278,95.2781 193.8028,95.2781 Q192.459,95.2781 191.7715,96.3563 Q191.084,97.4188 191.084,99.5125 Q191.084,101.6063 191.7715,102.6844 Q192.459,103.7469 193.8028,103.7469 Q194.4278,103.7469 195.0215,103.4813 Q195.6153,103.2 196.2403,102.6219 L196.2403,105.3406 Z " fill="#000000"/><text fill="#000000" font-family="sans-serif" font-size="14" lengthAdjust="spacing" textLength="96.4209" x="213.7715" y="104.5467">Project_group</text><line style="stroke:#181818;stroke-width:0.5;" x1="94.73" x2="396.7339" y1="115.7" y2="115.7"/><ellipse cx="104.73" cy="129.3484" fill="none" rx="3" ry="3" style="stroke:#038048;stroke-width:1.0;"/><text fill="#000000" font-family="sans-serif" font-size="14" lengthAdjust="spacing" textLength="202.9658" x="113.73" y="132.6951">Assist Hailing where needed.</text><ellipse cx="104.73" cy="145.6453" fill="none" rx="3" ry="3" style="stroke:#038048;stroke-width:1.0;"/><text fill="#000000" font-family="sans-serif" font-size="14" lengthAdjust="spacing" textLength="278.0039" x="113.73" y="148.992">Learn from the progress Hailing makes.</text><line style="stroke:#181818;stroke-width:0.5;" x1="94.73" x2="396.7339" y1="156.2938" y2="156.2938"/></g><!--SRC=[tPJ1QeGm48RlFiMmrqBVOOkbXTtIiXHwBAaPDMlCX4dKbkAxD-fAkufGF3gdGEPFlla8iI8fH8QmUs4wO-BXkKQk5JOx-8vUoO8d-23lgGIfE3GeCX64icFm3RLK9ZjHQEj2SAaZfhvBiyfoFmbtbMZX7DonAF-4khg1aKMZaCYtazqOQzI1pFbAel5WcR9mohJj_jDgeGpu787HUQ2qNrzY3d9gXisE71hYmlsUqKuuBqZl6LDbPy1xvrIueH-coP4H3A94EMKwec03AGURtSqzEOuMIb7WZA2DhcqVgeEOgHuGuoyjp6PS3jEiaJaa5snUoOo9d30BEX_KsMt6PZ_C6fbzy5ylS_zqcajy54g7ps4p7iTvrgWSimissny0]--></g></svg>