<svg xmlns="http://www.w3.org/2000/svg" xmlns:xlink="http://www.w3.org/1999/xlink" contentStyleType="text/css" height="719px" preserveAspectRatio="none" style="width:993px;height:719px;background:#FFFFFF;" version="1.1" viewBox="0 0 993 719" width="993px" zoomAndPan="magnify"><defs/><g><!--class WeldingRobot--><g id="elem_WeldingRobot"><rect codeLine="5" fill="#F1F1F1" height="48" id="WeldingRobot" rx="2.5" ry="2.5" style="stroke:#181818;stroke-width:0.5;" width="130.1162" x="120.95" y="7"/><ellipse cx="135.95" cy="23" fill="#ADD1B2" rx="11" ry="11" style="stroke:#181818;stroke-width:1.0;"/><path d="M138.9188,28.6406 Q138.3406,28.9375 137.7,29.0781 Q137.0594,29.2344 136.3563,29.2344 Q133.8563,29.2344 132.5281,27.5938 Q131.2156,25.9375 131.2156,22.8125 Q131.2156,19.6875 132.5281,18.0313 Q133.8563,16.375 136.3563,16.375 Q137.0594,16.375 137.7,16.5313 Q138.3563,16.6875 138.9188,16.9844 L138.9188,19.7031 Q138.2938,19.125 137.7,18.8594 Q137.1063,18.5781 136.4813,18.5781 Q135.1375,18.5781 134.45,19.6563 Q133.7625,20.7188 133.7625,22.8125 Q133.7625,24.9063 134.45,25.9844 Q135.1375,27.0469 136.4813,27.0469 Q137.1063,27.0469 137.7,26.7813 Q138.2938,26.5 138.9188,25.9219 L138.9188,28.6406 Z " fill="#000000"/><text fill="#000000" font-family="sans-serif" font-size="14" lengthAdjust="spacing" textLength="98.1162" x="149.95" y="27.8467">WeldingRobot</text><line style="stroke:#181818;stroke-width:0.5;" x1="121.95" x2="250.0662" y1="39" y2="39"/><line style="stroke:#181818;stroke-width:0.5;" x1="121.95" x2="250.0662" y1="47" y2="47"/></g><!--class Step_1_Welding--><g id="elem_Step_1_Welding"><rect codeLine="6" fill="#F1F1F1" height="64.2969" id="Step_1_Welding" rx="2.5" ry="2.5" style="stroke:#181818;stroke-width:0.5;" width="214.6582" x="78.67" y="116"/><ellipse cx="125.9166" cy="132" fill="#ADD1B2" rx="11" ry="11" style="stroke:#181818;stroke-width:1.0;"/><path d="M128.8853,137.6406 Q128.3072,137.9375 127.6666,138.0781 Q127.026,138.2344 126.3228,138.2344 Q123.8228,138.2344 122.4947,136.5938 Q121.1822,134.9375 121.1822,131.8125 Q121.1822,128.6875 122.4947,127.0313 Q123.8228,125.375 126.3228,125.375 Q127.026,125.375 127.6666,125.5313 Q128.3228,125.6875 128.8853,125.9844 L128.8853,128.7031 Q128.2603,128.125 127.6666,127.8594 Q127.0728,127.5781 126.4478,127.5781 Q125.1041,127.5781 124.4166,128.6563 Q123.7291,129.7188 123.7291,131.8125 Q123.7291,133.9063 124.4166,134.9844 Q125.1041,136.0469 126.4478,136.0469 Q127.0728,136.0469 127.6666,135.7813 Q128.2603,135.5 128.8853,134.9219 L128.8853,137.6406 Z " fill="#000000"/><text fill="#000000" font-family="sans-serif" font-size="14" lengthAdjust="spacing" textLength="111.665" x="146.4166" y="136.8467">Step_1_Welding</text><line style="stroke:#181818;stroke-width:0.5;" x1="79.67" x2="292.3282" y1="148" y2="148"/><text fill="#000000" font-family="sans-serif" font-size="14" lengthAdjust="spacing" textLength="202.6582" x="84.67" y="164.9951">Assemble the hammer mold.</text><line style="stroke:#181818;stroke-width:0.5;" x1="79.67" x2="292.3282" y1="172.2969" y2="172.2969"/></g><!--class Step_2_Welding--><g id="elem_Step_2_Welding"><rect codeLine="9" fill="#F1F1F1" height="64.2969" id="Step_2_Welding" rx="2.5" ry="2.5" style="stroke:#181818;stroke-width:0.5;" width="358.0078" x="7" y="257.3"/><ellipse cx="125.9214" cy="273.3" fill="#ADD1B2" rx="11" ry="11" style="stroke:#181818;stroke-width:1.0;"/><path d="M128.8901,278.9406 Q128.312,279.2375 127.6714,279.3781 Q127.0308,279.5344 126.3276,279.5344 Q123.8276,279.5344 122.4995,277.8938 Q121.187,276.2375 121.187,273.1125 Q121.187,269.9875 122.4995,268.3313 Q123.8276,266.675 126.3276,266.675 Q127.0308,266.675 127.6714,266.8313 Q128.3276,266.9875 128.8901,267.2844 L128.8901,270.0031 Q128.2651,269.425 127.6714,269.1594 Q127.0776,268.8781 126.4526,268.8781 Q125.1089,268.8781 124.4214,269.9563 Q123.7339,271.0188 123.7339,273.1125 Q123.7339,275.2063 124.4214,276.2844 Q125.1089,277.3469 126.4526,277.3469 Q127.0776,277.3469 127.6714,277.0813 Q128.2651,276.8 128.8901,276.2219 L128.8901,278.9406 Z " fill="#000000"/><text fill="#000000" font-family="sans-serif" font-size="14" lengthAdjust="spacing" textLength="111.665" x="146.4214" y="278.1467">Step_2_Welding</text><line style="stroke:#181818;stroke-width:0.5;" x1="8" x2="364.0078" y1="289.3" y2="289.3"/><text fill="#000000" font-family="sans-serif" font-size="14" lengthAdjust="spacing" textLength="346.0078" x="13" y="306.2951">Program the robot according to the video guides.</text><line style="stroke:#181818;stroke-width:0.5;" x1="8" x2="364.0078" y1="313.5969" y2="313.5969"/></g><!--class Step_3_Welding--><g id="elem_Step_3_Welding"><rect codeLine="12" fill="#F1F1F1" height="64.2969" id="Step_3_Welding" rx="2.5" ry="2.5" style="stroke:#181818;stroke-width:0.5;" width="143.665" x="114.17" y="398.59"/><ellipse cx="129.17" cy="414.59" fill="#ADD1B2" rx="11" ry="11" style="stroke:#181818;stroke-width:1.0;"/><path d="M132.1388,420.2306 Q131.5606,420.5275 130.92,420.6681 Q130.2794,420.8244 129.5763,420.8244 Q127.0763,420.8244 125.7481,419.1838 Q124.4356,417.5275 124.4356,414.4025 Q124.4356,411.2775 125.7481,409.6213 Q127.0763,407.965 129.5763,407.965 Q130.2794,407.965 130.92,408.1213 Q131.5763,408.2775 132.1388,408.5744 L132.1388,411.2931 Q131.5138,410.715 130.92,410.4494 Q130.3263,410.1681 129.7013,410.1681 Q128.3575,410.1681 127.67,411.2463 Q126.9825,412.3088 126.9825,414.4025 Q126.9825,416.4963 127.67,417.5744 Q128.3575,418.6369 129.7013,418.6369 Q130.3263,418.6369 130.92,418.3713 Q131.5138,418.09 132.1388,417.5119 L132.1388,420.2306 Z " fill="#000000"/><text fill="#000000" font-family="sans-serif" font-size="14" lengthAdjust="spacing" textLength="111.665" x="143.17" y="419.4367">Step_3_Welding</text><line style="stroke:#181818;stroke-width:0.5;" x1="115.17" x2="256.835" y1="430.59" y2="430.59"/><text fill="#000000" font-family="sans-serif" font-size="14" lengthAdjust="spacing" textLength="129.4316" x="120.17" y="447.5851">Enjoy the hammer</text><line style="stroke:#181818;stroke-width:0.5;" x1="115.17" x2="256.835" y1="454.8869" y2="454.8869"/></g><!--class KuKaRobot--><g id="elem_KuKaRobot"><rect codeLine="22" fill="#F1F1F1" height="48" id="KuKaRobot" rx="2.5" ry="2.5" style="stroke:#181818;stroke-width:0.5;" width="109.0479" x="411.48" y="7"/><ellipse cx="426.48" cy="23" fill="#ADD1B2" rx="11" ry="11" style="stroke:#181818;stroke-width:1.0;"/><path d="M429.4488,28.6406 Q428.8706,28.9375 428.23,29.0781 Q427.5894,29.2344 426.8863,29.2344 Q424.3863,29.2344 423.0581,27.5938 Q421.7456,25.9375 421.7456,22.8125 Q421.7456,19.6875 423.0581,18.0313 Q424.3863,16.375 426.8863,16.375 Q427.5894,16.375 428.23,16.5313 Q428.8863,16.6875 429.4488,16.9844 L429.4488,19.7031 Q428.8238,19.125 428.23,18.8594 Q427.6363,18.5781 427.0113,18.5781 Q425.6675,18.5781 424.98,19.6563 Q424.2925,20.7188 424.2925,22.8125 Q424.2925,24.9063 424.98,25.9844 Q425.6675,27.0469 427.0113,27.0469 Q427.6363,27.0469 428.23,26.7813 Q428.8238,26.5 429.4488,25.9219 L429.4488,28.6406 Z " fill="#000000"/><text fill="#000000" font-family="sans-serif" font-size="14" lengthAdjust="spacing" textLength="77.0479" x="440.48" y="27.8467">KuKaRobot</text><line style="stroke:#181818;stroke-width:0.5;" x1="412.48" x2="519.5279" y1="39" y2="39"/><line style="stroke:#181818;stroke-width:0.5;" x1="412.48" x2="519.5279" y1="47" y2="47"/></g><!--class Step_1_KuKa--><g id="elem_Step_1_KuKa"><rect codeLine="23" fill="#F1F1F1" height="48" id="Step_1_KuKa" rx="2.5" ry="2.5" style="stroke:#181818;stroke-width:0.5;" width="122.5967" x="404.71" y="124.15"/><ellipse cx="419.71" cy="140.15" fill="#ADD1B2" rx="11" ry="11" style="stroke:#181818;stroke-width:1.0;"/><path d="M422.6788,145.7906 Q422.1006,146.0875 421.46,146.2281 Q420.8194,146.3844 420.1163,146.3844 Q417.6163,146.3844 416.2881,144.7437 Q414.9756,143.0875 414.9756,139.9625 Q414.9756,136.8375 416.2881,135.1812 Q417.6163,133.525 420.1163,133.525 Q420.8194,133.525 421.46,133.6812 Q422.1163,133.8375 422.6788,134.1344 L422.6788,136.8531 Q422.0538,136.275 421.46,136.0094 Q420.8663,135.7281 420.2413,135.7281 Q418.8975,135.7281 418.21,136.8062 Q417.5225,137.8687 417.5225,139.9625 Q417.5225,142.0562 418.21,143.1344 Q418.8975,144.1969 420.2413,144.1969 Q420.8663,144.1969 421.46,143.9312 Q422.0538,143.65 422.6788,143.0719 L422.6788,145.7906 Z " fill="#000000"/><text fill="#000000" font-family="sans-serif" font-size="14" lengthAdjust="spacing" textLength="90.5967" x="433.71" y="144.9967">Step_1_KuKa</text><line style="stroke:#181818;stroke-width:0.5;" x1="405.71" x2="526.3067" y1="156.15" y2="156.15"/><line style="stroke:#181818;stroke-width:0.5;" x1="405.71" x2="526.3067" y1="164.15" y2="164.15"/></g><!--class Step_2_KuKa--><g id="elem_Step_2_KuKa"><rect codeLine="26" fill="#F1F1F1" height="48" id="Step_2_KuKa" rx="2.5" ry="2.5" style="stroke:#181818;stroke-width:0.5;" width="122.5967" x="404.71" y="265.44"/><ellipse cx="419.71" cy="281.44" fill="#ADD1B2" rx="11" ry="11" style="stroke:#181818;stroke-width:1.0;"/><path d="M422.6788,287.0806 Q422.1006,287.3775 421.46,287.5181 Q420.8194,287.6744 420.1163,287.6744 Q417.6163,287.6744 416.2881,286.0338 Q414.9756,284.3775 414.9756,281.2525 Q414.9756,278.1275 416.2881,276.4713 Q417.6163,274.815 420.1163,274.815 Q420.8194,274.815 421.46,274.9713 Q422.1163,275.1275 422.6788,275.4244 L422.6788,278.1431 Q422.0538,277.565 421.46,277.2994 Q420.8663,277.0181 420.2413,277.0181 Q418.8975,277.0181 418.21,278.0963 Q417.5225,279.1588 417.5225,281.2525 Q417.5225,283.3463 418.21,284.4244 Q418.8975,285.4869 420.2413,285.4869 Q420.8663,285.4869 421.46,285.2213 Q422.0538,284.94 422.6788,284.3619 L422.6788,287.0806 Z " fill="#000000"/><text fill="#000000" font-family="sans-serif" font-size="14" lengthAdjust="spacing" textLength="90.5967" x="433.71" y="286.2867">Step_2_KuKa</text><line style="stroke:#181818;stroke-width:0.5;" x1="405.71" x2="526.3067" y1="297.44" y2="297.44"/><line style="stroke:#181818;stroke-width:0.5;" x1="405.71" x2="526.3067" y1="305.44" y2="305.44"/></g><!--class Step_3_KuKa--><g id="elem_Step_3_KuKa"><rect codeLine="29" fill="#F1F1F1" height="48" id="Step_3_KuKa" rx="2.5" ry="2.5" style="stroke:#181818;stroke-width:0.5;" width="122.5967" x="404.71" y="406.74"/><ellipse cx="419.71" cy="422.74" fill="#ADD1B2" rx="11" ry="11" style="stroke:#181818;stroke-width:1.0;"/><path d="M422.6788,428.3806 Q422.1006,428.6775 421.46,428.8181 Q420.8194,428.9744 420.1163,428.9744 Q417.6163,428.9744 416.2881,427.3338 Q414.9756,425.6775 414.9756,422.5525 Q414.9756,419.4275 416.2881,417.7713 Q417.6163,416.115 420.1163,416.115 Q420.8194,416.115 421.46,416.2713 Q422.1163,416.4275 422.6788,416.7244 L422.6788,419.4431 Q422.0538,418.865 421.46,418.5994 Q420.8663,418.3181 420.2413,418.3181 Q418.8975,418.3181 418.21,419.3963 Q417.5225,420.4588 417.5225,422.5525 Q417.5225,424.6463 418.21,425.7244 Q418.8975,426.7869 420.2413,426.7869 Q420.8663,426.7869 421.46,426.5213 Q422.0538,426.24 422.6788,425.6619 L422.6788,428.3806 Z " fill="#000000"/><text fill="#000000" font-family="sans-serif" font-size="14" lengthAdjust="spacing" textLength="90.5967" x="433.71" y="427.5867">Step_3_KuKa</text><line style="stroke:#181818;stroke-width:0.5;" x1="405.71" x2="526.3067" y1="438.74" y2="438.74"/><line style="stroke:#181818;stroke-width:0.5;" x1="405.71" x2="526.3067" y1="446.74" y2="446.74"/></g><!--class Step_4_KuKa--><g id="elem_Step_4_KuKa"><rect codeLine="32" fill="#F1F1F1" height="48" id="Step_4_KuKa" rx="2.5" ry="2.5" style="stroke:#181818;stroke-width:0.5;" width="122.5967" x="404.71" y="539.89"/><ellipse cx="419.71" cy="555.89" fill="#ADD1B2" rx="11" ry="11" style="stroke:#181818;stroke-width:1.0;"/><path d="M422.6788,561.5306 Q422.1006,561.8275 421.46,561.9681 Q420.8194,562.1244 420.1163,562.1244 Q417.6163,562.1244 416.2881,560.4838 Q414.9756,558.8275 414.9756,555.7025 Q414.9756,552.5775 416.2881,550.9213 Q417.6163,549.265 420.1163,549.265 Q420.8194,549.265 421.46,549.4213 Q422.1163,549.5775 422.6788,549.8744 L422.6788,552.5931 Q422.0538,552.015 421.46,551.7494 Q420.8663,551.4681 420.2413,551.4681 Q418.8975,551.4681 418.21,552.5463 Q417.5225,553.6088 417.5225,555.7025 Q417.5225,557.7963 418.21,558.8744 Q418.8975,559.9369 420.2413,559.9369 Q420.8663,559.9369 421.46,559.6713 Q422.0538,559.39 422.6788,558.8119 L422.6788,561.5306 Z " fill="#000000"/><text fill="#000000" font-family="sans-serif" font-size="14" lengthAdjust="spacing" textLength="90.5967" x="433.71" y="560.7367">Step_4_KuKa</text><line style="stroke:#181818;stroke-width:0.5;" x1="405.71" x2="526.3067" y1="571.89" y2="571.89"/><line style="stroke:#181818;stroke-width:0.5;" x1="405.71" x2="526.3067" y1="579.89" y2="579.89"/></g><!--class Step_5_KuKa--><g id="elem_Step_5_KuKa"><rect codeLine="35" fill="#F1F1F1" height="48" id="Step_5_KuKa" rx="2.5" ry="2.5" style="stroke:#181818;stroke-width:0.5;" width="122.5967" x="404.71" y="664.89"/><ellipse cx="419.71" cy="680.89" fill="#ADD1B2" rx="11" ry="11" style="stroke:#181818;stroke-width:1.0;"/><path d="M422.6788,686.5306 Q422.1006,686.8275 421.46,686.9681 Q420.8194,687.1244 420.1163,687.1244 Q417.6163,687.1244 416.2881,685.4838 Q414.9756,683.8275 414.9756,680.7025 Q414.9756,677.5775 416.2881,675.9213 Q417.6163,674.265 420.1163,674.265 Q420.8194,674.265 421.46,674.4213 Q422.1163,674.5775 422.6788,674.8744 L422.6788,677.5931 Q422.0538,677.015 421.46,676.7494 Q420.8663,676.4681 420.2413,676.4681 Q418.8975,676.4681 418.21,677.5463 Q417.5225,678.6088 417.5225,680.7025 Q417.5225,682.7963 418.21,683.8744 Q418.8975,684.9369 420.2413,684.9369 Q420.8663,684.9369 421.46,684.6713 Q422.0538,684.39 422.6788,683.8119 L422.6788,686.5306 Z " fill="#000000"/><text fill="#000000" font-family="sans-serif" font-size="14" lengthAdjust="spacing" textLength="90.5967" x="433.71" y="685.7367">Step_5_KuKa</text><line style="stroke:#181818;stroke-width:0.5;" x1="405.71" x2="526.3067" y1="696.89" y2="696.89"/><line style="stroke:#181818;stroke-width:0.5;" x1="405.71" x2="526.3067" y1="704.89" y2="704.89"/></g><!--class DoosanRobot--><g id="elem_DoosanRobot"><rect codeLine="45" fill="#F1F1F1" height="48" id="DoosanRobot" rx="2.5" ry="2.5" style="stroke:#181818;stroke-width:0.5;" width="125.8916" x="683.06" y="7"/><ellipse cx="698.06" cy="23" fill="#ADD1B2" rx="11" ry="11" style="stroke:#181818;stroke-width:1.0;"/><path d="M701.0288,28.6406 Q700.4506,28.9375 699.81,29.0781 Q699.1694,29.2344 698.4663,29.2344 Q695.9663,29.2344 694.6381,27.5938 Q693.3256,25.9375 693.3256,22.8125 Q693.3256,19.6875 694.6381,18.0313 Q695.9663,16.375 698.4663,16.375 Q699.1694,16.375 699.81,16.5313 Q700.4663,16.6875 701.0288,16.9844 L701.0288,19.7031 Q700.4038,19.125 699.81,18.8594 Q699.2163,18.5781 698.5913,18.5781 Q697.2475,18.5781 696.56,19.6563 Q695.8725,20.7188 695.8725,22.8125 Q695.8725,24.9063 696.56,25.9844 Q697.2475,27.0469 698.5913,27.0469 Q699.2163,27.0469 699.81,26.7813 Q700.4038,26.5 701.0288,25.9219 L701.0288,28.6406 Z " fill="#000000"/><text fill="#000000" font-family="sans-serif" font-size="14" lengthAdjust="spacing" textLength="93.8916" x="712.06" y="27.8467">DoosanRobot</text><line style="stroke:#181818;stroke-width:0.5;" x1="684.06" x2="807.9516" y1="39" y2="39"/><line style="stroke:#181818;stroke-width:0.5;" x1="684.06" x2="807.9516" y1="47" y2="47"/></g><!--class Step_1_Doosan--><g id="elem_Step_1_Doosan"><rect codeLine="46" fill="#F1F1F1" height="48" id="Step_1_Doosan" rx="2.5" ry="2.5" style="stroke:#181818;stroke-width:0.5;" width="139.4404" x="676.28" y="124.15"/><ellipse cx="691.28" cy="140.15" fill="#ADD1B2" rx="11" ry="11" style="stroke:#181818;stroke-width:1.0;"/><path d="M694.2488,145.7906 Q693.6706,146.0875 693.03,146.2281 Q692.3894,146.3844 691.6863,146.3844 Q689.1863,146.3844 687.8581,144.7437 Q686.5456,143.0875 686.5456,139.9625 Q686.5456,136.8375 687.8581,135.1812 Q689.1863,133.525 691.6863,133.525 Q692.3894,133.525 693.03,133.6812 Q693.6863,133.8375 694.2488,134.1344 L694.2488,136.8531 Q693.6238,136.275 693.03,136.0094 Q692.4363,135.7281 691.8113,135.7281 Q690.4675,135.7281 689.78,136.8062 Q689.0925,137.8687 689.0925,139.9625 Q689.0925,142.0562 689.78,143.1344 Q690.4675,144.1969 691.8113,144.1969 Q692.4363,144.1969 693.03,143.9312 Q693.6238,143.65 694.2488,143.0719 L694.2488,145.7906 Z " fill="#000000"/><text fill="#000000" font-family="sans-serif" font-size="14" lengthAdjust="spacing" textLength="107.4404" x="705.28" y="144.9967">Step_1_Doosan</text><line style="stroke:#181818;stroke-width:0.5;" x1="677.28" x2="814.7204" y1="156.15" y2="156.15"/><line style="stroke:#181818;stroke-width:0.5;" x1="677.28" x2="814.7204" y1="164.15" y2="164.15"/></g><!--class Step_2_Doosan--><g id="elem_Step_2_Doosan"><rect codeLine="49" fill="#F1F1F1" height="48" id="Step_2_Doosan" rx="2.5" ry="2.5" style="stroke:#181818;stroke-width:0.5;" width="139.4404" x="676.28" y="265.44"/><ellipse cx="691.28" cy="281.44" fill="#ADD1B2" rx="11" ry="11" style="stroke:#181818;stroke-width:1.0;"/><path d="M694.2488,287.0806 Q693.6706,287.3775 693.03,287.5181 Q692.3894,287.6744 691.6863,287.6744 Q689.1863,287.6744 687.8581,286.0338 Q686.5456,284.3775 686.5456,281.2525 Q686.5456,278.1275 687.8581,276.4713 Q689.1863,274.815 691.6863,274.815 Q692.3894,274.815 693.03,274.9713 Q693.6863,275.1275 694.2488,275.4244 L694.2488,278.1431 Q693.6238,277.565 693.03,277.2994 Q692.4363,277.0181 691.8113,277.0181 Q690.4675,277.0181 689.78,278.0963 Q689.0925,279.1588 689.0925,281.2525 Q689.0925,283.3463 689.78,284.4244 Q690.4675,285.4869 691.8113,285.4869 Q692.4363,285.4869 693.03,285.2213 Q693.6238,284.94 694.2488,284.3619 L694.2488,287.0806 Z " fill="#000000"/><text fill="#000000" font-family="sans-serif" font-size="14" lengthAdjust="spacing" textLength="107.4404" x="705.28" y="286.2867">Step_2_Doosan</text><line style="stroke:#181818;stroke-width:0.5;" x1="677.28" x2="814.7204" y1="297.44" y2="297.44"/><line style="stroke:#181818;stroke-width:0.5;" x1="677.28" x2="814.7204" y1="305.44" y2="305.44"/></g><!--class Step_3_Doosan--><g id="elem_Step_3_Doosan"><rect codeLine="52" fill="#F1F1F1" height="48" id="Step_3_Doosan" rx="2.5" ry="2.5" style="stroke:#181818;stroke-width:0.5;" width="139.4404" x="676.28" y="406.74"/><ellipse cx="691.28" cy="422.74" fill="#ADD1B2" rx="11" ry="11" style="stroke:#181818;stroke-width:1.0;"/><path d="M694.2488,428.3806 Q693.6706,428.6775 693.03,428.8181 Q692.3894,428.9744 691.6863,428.9744 Q689.1863,428.9744 687.8581,427.3338 Q686.5456,425.6775 686.5456,422.5525 Q686.5456,419.4275 687.8581,417.7713 Q689.1863,416.115 691.6863,416.115 Q692.3894,416.115 693.03,416.2713 Q693.6863,416.4275 694.2488,416.7244 L694.2488,419.4431 Q693.6238,418.865 693.03,418.5994 Q692.4363,418.3181 691.8113,418.3181 Q690.4675,418.3181 689.78,419.3963 Q689.0925,420.4588 689.0925,422.5525 Q689.0925,424.6463 689.78,425.7244 Q690.4675,426.7869 691.8113,426.7869 Q692.4363,426.7869 693.03,426.5213 Q693.6238,426.24 694.2488,425.6619 L694.2488,428.3806 Z " fill="#000000"/><text fill="#000000" font-family="sans-serif" font-size="14" lengthAdjust="spacing" textLength="107.4404" x="705.28" y="427.5867">Step_3_Doosan</text><line style="stroke:#181818;stroke-width:0.5;" x1="677.28" x2="814.7204" y1="438.74" y2="438.74"/><line style="stroke:#181818;stroke-width:0.5;" x1="677.28" x2="814.7204" y1="446.74" y2="446.74"/></g><!--class Step_4_Doosan--><g id="elem_Step_4_Doosan"><rect codeLine="55" fill="#F1F1F1" height="48" id="Step_4_Doosan" rx="2.5" ry="2.5" style="stroke:#181818;stroke-width:0.5;" width="139.4404" x="676.28" y="539.89"/><ellipse cx="691.28" cy="555.89" fill="#ADD1B2" rx="11" ry="11" style="stroke:#181818;stroke-width:1.0;"/><path d="M694.2488,561.5306 Q693.6706,561.8275 693.03,561.9681 Q692.3894,562.1244 691.6863,562.1244 Q689.1863,562.1244 687.8581,560.4838 Q686.5456,558.8275 686.5456,555.7025 Q686.5456,552.5775 687.8581,550.9213 Q689.1863,549.265 691.6863,549.265 Q692.3894,549.265 693.03,549.4213 Q693.6863,549.5775 694.2488,549.8744 L694.2488,552.5931 Q693.6238,552.015 693.03,551.7494 Q692.4363,551.4681 691.8113,551.4681 Q690.4675,551.4681 689.78,552.5463 Q689.0925,553.6088 689.0925,555.7025 Q689.0925,557.7963 689.78,558.8744 Q690.4675,559.9369 691.8113,559.9369 Q692.4363,559.9369 693.03,559.6713 Q693.6238,559.39 694.2488,558.8119 L694.2488,561.5306 Z " fill="#000000"/><text fill="#000000" font-family="sans-serif" font-size="14" lengthAdjust="spacing" textLength="107.4404" x="705.28" y="560.7367">Step_4_Doosan</text><line style="stroke:#181818;stroke-width:0.5;" x1="677.28" x2="814.7204" y1="571.89" y2="571.89"/><line style="stroke:#181818;stroke-width:0.5;" x1="677.28" x2="814.7204" y1="579.89" y2="579.89"/></g><!--class Step_5_Doosan--><g id="elem_Step_5_Doosan"><rect codeLine="58" fill="#F1F1F1" height="48" id="Step_5_Doosan" rx="2.5" ry="2.5" style="stroke:#181818;stroke-width:0.5;" width="139.4404" x="676.28" y="664.89"/><ellipse cx="691.28" cy="680.89" fill="#ADD1B2" rx="11" ry="11" style="stroke:#181818;stroke-width:1.0;"/><path d="M694.2488,686.5306 Q693.6706,686.8275 693.03,686.9681 Q692.3894,687.1244 691.6863,687.1244 Q689.1863,687.1244 687.8581,685.4838 Q686.5456,683.8275 686.5456,680.7025 Q686.5456,677.5775 687.8581,675.9213 Q689.1863,674.265 691.6863,674.265 Q692.3894,674.265 693.03,674.4213 Q693.6863,674.5775 694.2488,674.8744 L694.2488,677.5931 Q693.6238,677.015 693.03,676.7494 Q692.4363,676.4681 691.8113,676.4681 Q690.4675,676.4681 689.78,677.5463 Q689.0925,678.6088 689.0925,680.7025 Q689.0925,682.7963 689.78,683.8744 Q690.4675,684.9369 691.8113,684.9369 Q692.4363,684.9369 693.03,684.6713 Q693.6238,684.39 694.2488,683.8119 L694.2488,686.5306 Z " fill="#000000"/><text fill="#000000" font-family="sans-serif" font-size="14" lengthAdjust="spacing" textLength="107.4404" x="705.28" y="685.7367">Step_5_Doosan</text><line style="stroke:#181818;stroke-width:0.5;" x1="677.28" x2="814.7204" y1="696.89" y2="696.89"/><line style="stroke:#181818;stroke-width:0.5;" x1="677.28" x2="814.7204" y1="704.89" y2="704.89"/></g><!--link WeldingRobot to Step_1_Welding--><g id="link_WeldingRobot_Step_1_Welding"><path codeLine="16" d="M186,55.3 C186,72.65 186,78.53 186,97.59 " fill="none" id="WeldingRobot-to-Step_1_Welding" style="stroke:#181818;stroke-width:1.0;"/><polygon fill="none" points="186,115.59,192,97.59,180,97.59,186,115.59" style="stroke:#181818;stroke-width:1.0;"/></g><!--link Step_1_Welding to Step_2_Welding--><g id="link_Step_1_Welding_Step_2_Welding"><path codeLine="17" d="M184.17,180.56 C183.69,190.11 183.24,200.63 183,210.3 C182.63,225.63 182.2604,224.683 182.9804,238.913 " fill="none" id="Step_1_Welding-to-Step_2_Welding" style="stroke:#181818;stroke-width:1.0;"/><polygon fill="none" points="183.89,256.89,188.9727,238.6098,176.9881,239.2162,183.89,256.89" style="stroke:#181818;stroke-width:1.0;"/><text fill="#000000" font-family="sans-serif" font-size="13" lengthAdjust="spacing" textLength="238.7544" x="184" y="223.3669">Place the mold into the welding tool.</text></g><!--link Step_2_Welding to Step_3_Welding--><g id="link_Step_2_Welding_Step_3_Welding"><path codeLine="18" d="M186,322.05 C186,344.85 186,357.49 186,380.26 " fill="none" id="Step_2_Welding-to-Step_3_Welding" style="stroke:#181818;stroke-width:1.0;"/><polygon fill="none" points="186,398.26,192,380.26,180,380.26,186,398.26" style="stroke:#181818;stroke-width:1.0;"/><text fill="#000000" font-family="sans-serif" font-size="13" lengthAdjust="spacing" textLength="207.543" x="187" y="364.6569">Take the hammer out the mold.</text></g><!--link KuKaRobot to Step_1_KuKa--><g id="link_KuKaRobot_Step_1_KuKa"><path codeLine="39" d="M466,55.3 C466,75.28 466,85.91 466,105.88 " fill="none" id="KuKaRobot-to-Step_1_KuKa" style="stroke:#181818;stroke-width:1.0;"/><polygon fill="none" points="466,123.88,472,105.88,460,105.88,466,123.88" style="stroke:#181818;stroke-width:1.0;"/></g><!--link Step_1_KuKa to Step_2_KuKa--><g id="link_Step_1_KuKa_Step_2_KuKa"><path codeLine="40" d="M464.6,172.37 C463.97,183.79 463.31,197.76 463,210.3 C462.55,228.76 462.3662,231.6915 463.2862,247.2315 " fill="none" id="Step_1_KuKa-to-Step_2_KuKa" style="stroke:#181818;stroke-width:1.0;"/><polygon fill="none" points="464.35,265.2,469.2757,246.8769,457.2967,247.5861,464.35,265.2" style="stroke:#181818;stroke-width:1.0;"/><text fill="#000000" font-family="sans-serif" font-size="13" lengthAdjust="spacing" textLength="238.7544" x="464" y="223.3669">Place the mold into the welding tool.</text></g><!--link Step_2_KuKa to Step_3_KuKa--><g id="link_Step_2_KuKa_Step_3_KuKa"><path codeLine="41" d="M466,313.76 C466,339.47 466,362.61 466,388.35 " fill="none" id="Step_2_KuKa-to-Step_3_KuKa" style="stroke:#181818;stroke-width:1.0;"/><polygon fill="none" points="466,406.35,472,388.35,460,388.35,466,406.35" style="stroke:#181818;stroke-width:1.0;"/><text fill="#000000" font-family="sans-serif" font-size="13" lengthAdjust="spacing" textLength="211.6753" x="467" y="364.6569">Follow the created guide videos.</text></g><!--link Step_3_KuKa to Step_4_KuKa--><g id="link_Step_3_KuKa_Step_4_KuKa"><path codeLine="42" d="M466,455.19 C466,479.06 466,497.85 466,521.65 " fill="none" id="Step_3_KuKa-to-Step_4_KuKa" style="stroke:#181818;stroke-width:1.0;"/><polygon fill="none" points="466,539.65,472,521.65,460,521.65,466,539.65" style="stroke:#181818;stroke-width:1.0;"/><text fill="#000000" font-family="sans-serif" font-size="13" lengthAdjust="spacing" textLength="211.6753" x="467" y="505.9569">Follow the created guide videos.</text></g><!--link Step_4_KuKa to Step_5_KuKa--><g id="link_Step_4_KuKa_Step_5_KuKa"><path codeLine="43" d="M466,588.31 C466,610.2 466,624.69 466,646.55 " fill="none" id="Step_4_KuKa-to-Step_5_KuKa" style="stroke:#181818;stroke-width:1.0;"/><polygon fill="none" points="466,664.55,472,646.55,460,646.55,466,664.55" style="stroke:#181818;stroke-width:1.0;"/><text fill="#000000" font-family="sans-serif" font-size="13" lengthAdjust="spacing" textLength="211.6753" x="467" y="630.9569">Follow the created guide videos.</text></g><!--link DoosanRobot to Step_1_Doosan--><g id="link_DoosanRobot_Step_1_Doosan"><path codeLine="62" d="M746,55.3 C746,75.28 746,85.91 746,105.88 " fill="none" id="DoosanRobot-to-Step_1_Doosan" style="stroke:#181818;stroke-width:1.0;"/><polygon fill="none" points="746,123.88,752,105.88,740,105.88,746,123.88" style="stroke:#181818;stroke-width:1.0;"/></g><!--link Step_1_Doosan to Step_2_Doosan--><g id="link_Step_1_Doosan_Step_2_Doosan"><path codeLine="63" d="M746,172.46 C746,198.18 746,221.31 746,247.05 " fill="none" id="Step_1_Doosan-to-Step_2_Doosan" style="stroke:#181818;stroke-width:1.0;"/><polygon fill="none" points="746,265.05,752,247.05,740,247.05,746,265.05" style="stroke:#181818;stroke-width:1.0;"/><text fill="#000000" font-family="sans-serif" font-size="13" lengthAdjust="spacing" textLength="238.7544" x="747" y="223.3669">Place the mold into the welding tool.</text></g><!--link Step_2_Doosan to Step_3_Doosan--><g id="link_Step_2_Doosan_Step_3_Doosan"><path codeLine="64" d="M746,313.76 C746,339.47 746,362.61 746,388.35 " fill="none" id="Step_2_Doosan-to-Step_3_Doosan" style="stroke:#181818;stroke-width:1.0;"/><polygon fill="none" points="746,406.35,752,388.35,740,388.35,746,406.35" style="stroke:#181818;stroke-width:1.0;"/><text fill="#000000" font-family="sans-serif" font-size="13" lengthAdjust="spacing" textLength="211.6753" x="747" y="364.6569">Follow the created guide videos.</text></g><!--link Step_3_Doosan to Step_4_Doosan--><g id="link_Step_3_Doosan_Step_4_Doosan"><path codeLine="65" d="M746,455.19 C746,479.06 746,497.85 746,521.65 " fill="none" id="Step_3_Doosan-to-Step_4_Doosan" style="stroke:#181818;stroke-width:1.0;"/><polygon fill="none" points="746,539.65,752,521.65,740,521.65,746,539.65" style="stroke:#181818;stroke-width:1.0;"/><text fill="#000000" font-family="sans-serif" font-size="13" lengthAdjust="spacing" textLength="27.8091" x="747" y="505.9569">Test</text></g><!--link Step_4_Doosan to Step_5_Doosan--><g id="link_Step_4_Doosan_Step_5_Doosan"><path codeLine="66" d="M746,588.31 C746,610.2 746,624.69 746,646.55 " fill="none" id="Step_4_Doosan-to-Step_5_Doosan" style="stroke:#181818;stroke-width:1.0;"/><polygon fill="none" points="746,664.55,752,646.55,740,646.55,746,664.55" style="stroke:#181818;stroke-width:1.0;"/><text fill="#000000" font-family="sans-serif" font-size="13" lengthAdjust="spacing" textLength="27.8091" x="747" y="630.9569">Test</text></g><!--SRC=[bL9TJy9047pVNx7y04YqvSK74m9e28e4INmqH- -4whLhUeV4gFzTsXxS1z30KvEPdUdiphMuU4jpWVtHhFymn4GofQ1bmDcmF-zDxW_mmQZt-3GP84zPHZa7CEeN8NcQBsUq80rM_Ap5v-lLgs7n1n1xIebi8GNgbS0Lop9HO4QIT-0l55vxmcb1ou9bbQue_uCiIQYeU4qL_9LoGRXSRp_gY5_a-GtpT_fsKsm5uEw1xVRlRR0211lP4Hls1gUI9VM2vMQOvYRVnane8jc1G6Qj8iTgpZwyKz5Qxuqx0Fi2nkinEt7zagesFdRX1Z9g8kCcihiZovFkatdtB55m0xgNh80BpnYOH3kJEvAIDfKkAGJJWjSFf7uiokYZK1zVfez3VVTi_Qx10P5Y-OaEQ_9aYurqr4p7pNJNqcMRJaglpne7FwxRgO4kRFN0AB96vpPxu15RZxbG6dpGxT2R-mS0]--></g></svg>