<svg xmlns="http://www.w3.org/2000/svg" xmlns:xlink="http://www.w3.org/1999/xlink" contentStyleType="text/css" height="1204px" preserveAspectRatio="none" style="width:451px;height:1204px;background:#FFFFFF;" version="1.1" viewBox="0 0 451 1204" width="451px" zoomAndPan="magnify"><defs/><g><!--cluster Project Overview--><g id="cluster_Project Overview"><path d="M8.5,6 L144.2227,6 A3.75,3.75 0 0 1 146.7227,8.5 L153.7227,28.2969 L441.66,28.2969 A2.5,2.5 0 0 1 444.16,30.7969 L444.16,1194.5 A2.5,2.5 0 0 1 441.66,1197 L8.5,1197 A2.5,2.5 0 0 1 6,1194.5 L6,8.5 A2.5,2.5 0 0 1 8.5,6 " fill="none" style="stroke:#000000;stroke-width:1.5;"/><line style="stroke:#000000;stroke-width:1.5;" x1="6" x2="153.7227" y1="28.2969" y2="28.2969"/><text fill="#000000" font-family="sans-serif" font-size="14" font-weight="bold" lengthAdjust="spacing" textLength="134.7227" x="10" y="20.9951">Project Overview</text></g><!--cluster WeldingRobot--><g id="cluster_WeldingRobot"><path d="M32.5,910 L144.7754,910 A3.75,3.75 0 0 1 147.2754,912.5 L154.2754,932.2969 L417.66,932.2969 A2.5,2.5 0 0 1 420.16,934.7969 L420.16,1170.5 A2.5,2.5 0 0 1 417.66,1173 L32.5,1173 A2.5,2.5 0 0 1 30,1170.5 L30,912.5 A2.5,2.5 0 0 1 32.5,910 " fill="none" style="stroke:#000000;stroke-width:1.5;"/><line style="stroke:#000000;stroke-width:1.5;" x1="30" x2="154.2754" y1="932.2969" y2="932.2969"/><text fill="#000000" font-family="sans-serif" font-size="14" font-weight="bold" lengthAdjust="spacing" textLength="111.2754" x="34" y="924.9951">WeldingRobot</text></g><!--cluster KuKaRobot--><g id="cluster_KuKaRobot"><path d="M32.5,623 L121.3418,623 A3.75,3.75 0 0 1 123.8418,625.5 L130.8418,645.2969 L417.66,645.2969 A2.5,2.5 0 0 1 420.16,647.7969 L420.16,883.5 A2.5,2.5 0 0 1 417.66,886 L32.5,886 A2.5,2.5 0 0 1 30,883.5 L30,625.5 A2.5,2.5 0 0 1 32.5,623 " fill="none" style="stroke:#000000;stroke-width:1.5;"/><line style="stroke:#000000;stroke-width:1.5;" x1="30" x2="130.8418" y1="645.2969" y2="645.2969"/><text fill="#000000" font-family="sans-serif" font-size="14" font-weight="bold" lengthAdjust="spacing" textLength="87.8418" x="34" y="637.9951">KuKaRobot</text></g><!--cluster DoosanRobot--><g id="cluster_DoosanRobot"><path d="M32.5,336 L138.835,336 A3.75,3.75 0 0 1 141.335,338.5 L148.335,358.2969 L417.66,358.2969 A2.5,2.5 0 0 1 420.16,360.7969 L420.16,596.5 A2.5,2.5 0 0 1 417.66,599 L32.5,599 A2.5,2.5 0 0 1 30,596.5 L30,338.5 A2.5,2.5 0 0 1 32.5,336 " fill="none" style="stroke:#000000;stroke-width:1.5;"/><line style="stroke:#000000;stroke-width:1.5;" x1="30" x2="148.335" y1="358.2969" y2="358.2969"/><text fill="#000000" font-family="sans-serif" font-size="14" font-weight="bold" lengthAdjust="spacing" textLength="105.335" x="34" y="350.9951">DoosanRobot</text></g><!--cluster AMR--><g id="cluster_AMR"><path d="M32.5,49 L69.0469,49 A3.75,3.75 0 0 1 71.5469,51.5 L78.5469,71.2969 L417.66,71.2969 A2.5,2.5 0 0 1 420.16,73.7969 L420.16,309.5 A2.5,2.5 0 0 1 417.66,312 L32.5,312 A2.5,2.5 0 0 1 30,309.5 L30,51.5 A2.5,2.5 0 0 1 32.5,49 " fill="none" style="stroke:#000000;stroke-width:1.5;"/><line style="stroke:#000000;stroke-width:1.5;" x1="30" x2="78.5469" y1="71.2969" y2="71.2969"/><text fill="#000000" font-family="sans-serif" font-size="14" font-weight="bold" lengthAdjust="spacing" textLength="35.5469" x="34" y="63.9951">AMR</text></g><!--class Bram--><g id="elem_Bram"><rect codeLine="6" fill="#F1F1F1" height="96.8906" id="Bram" rx="2.5" ry="2.5" style="stroke:#181818;stroke-width:0.5;" width="358.1582" x="46" y="1060.55"/><ellipse cx="202.0405" cy="1076.55" fill="#ADD1B2" rx="11" ry="11" style="stroke:#181818;stroke-width:1.0;"/><path d="M205.0093,1082.1906 Q204.4312,1082.4875 203.7905,1082.6281 Q203.1499,1082.7844 202.4468,1082.7844 Q199.9468,1082.7844 198.6187,1081.1438 Q197.3062,1079.4875 197.3062,1076.3625 Q197.3062,1073.2375 198.6187,1071.5813 Q199.9468,1069.925 202.4468,1069.925 Q203.1499,1069.925 203.7905,1070.0813 Q204.4468,1070.2375 205.0093,1070.5344 L205.0093,1073.2531 Q204.3843,1072.675 203.7905,1072.4094 Q203.1968,1072.1281 202.5718,1072.1281 Q201.228,1072.1281 200.5405,1073.2063 Q199.853,1074.2688 199.853,1076.3625 Q199.853,1078.4563 200.5405,1079.5344 Q201.228,1080.5969 202.5718,1080.5969 Q203.1968,1080.5969 203.7905,1080.3313 Q204.3843,1080.05 205.0093,1079.4719 L205.0093,1082.1906 Z " fill="#000000"/><text fill="#000000" font-family="sans-serif" font-size="14" lengthAdjust="spacing" textLength="37.5771" x="222.5405" y="1081.3967">Bram</text><line style="stroke:#181818;stroke-width:0.5;" x1="47" x2="403.1582" y1="1092.55" y2="1092.55"/><ellipse cx="57" cy="1106.1984" fill="none" rx="3" ry="3" style="stroke:#038048;stroke-width:1.0;"/><text fill="#000000" font-family="sans-serif" font-size="14" lengthAdjust="spacing" textLength="101.1514" x="66" y="1109.5451">Project Leader</text><ellipse cx="57" cy="1122.4953" fill="none" rx="3" ry="3" style="stroke:#038048;stroke-width:1.0;"/><text fill="#000000" font-family="sans-serif" font-size="14" lengthAdjust="spacing" textLength="187.4141" x="66" y="1125.842">Develops student program</text><ellipse cx="57" cy="1138.7922" fill="none" rx="3" ry="3" style="stroke:#038048;stroke-width:1.0;"/><text fill="#000000" font-family="sans-serif" font-size="14" lengthAdjust="spacing" textLength="332.1582" x="66" y="1142.1389">Explains to other students how the robot works</text><line style="stroke:#181818;stroke-width:0.5;" x1="47" x2="403.1582" y1="1149.4406" y2="1149.4406"/></g><!--class Project_Group--><g id="elem_Project_Group"><rect codeLine="11" fill="#F1F1F1" height="80.5938" id="Project_Group" rx="2.5" ry="2.5" style="stroke:#181818;stroke-width:0.5;" width="228.9248" x="110.62" y="944.7"/><ellipse cx="171.641" cy="960.7" fill="#ADD1B2" rx="11" ry="11" style="stroke:#181818;stroke-width:1.0;"/><path d="M174.6097,966.3406 Q174.0316,966.6375 173.391,966.7781 Q172.7504,966.9344 172.0472,966.9344 Q169.5472,966.9344 168.2191,965.2938 Q166.9066,963.6375 166.9066,960.5125 Q166.9066,957.3875 168.2191,955.7313 Q169.5472,954.075 172.0472,954.075 Q172.7504,954.075 173.391,954.2313 Q174.0472,954.3875 174.6097,954.6844 L174.6097,957.4031 Q173.9847,956.825 173.391,956.5594 Q172.7972,956.2781 172.1722,956.2781 Q170.8285,956.2781 170.141,957.3563 Q169.4535,958.4188 169.4535,960.5125 Q169.4535,962.6063 170.141,963.6844 Q170.8285,964.7469 172.1722,964.7469 Q172.7972,964.7469 173.391,964.4813 Q173.9847,964.2 174.6097,963.6219 L174.6097,966.3406 Z " fill="#000000"/><text fill="#000000" font-family="sans-serif" font-size="14" lengthAdjust="spacing" textLength="98.3828" x="192.141" y="965.5467">Project_Group</text><line style="stroke:#181818;stroke-width:0.5;" x1="111.62" x2="338.5448" y1="976.7" y2="976.7"/><ellipse cx="121.62" cy="990.3484" fill="none" rx="3" ry="3" style="stroke:#038048;stroke-width:1.0;"/><text fill="#000000" font-family="sans-serif" font-size="14" lengthAdjust="spacing" textLength="167.4189" x="130.62" y="993.6951">Assists Bram as needed</text><ellipse cx="121.62" cy="1006.6453" fill="none" rx="3" ry="3" style="stroke:#038048;stroke-width:1.0;"/><text fill="#000000" font-family="sans-serif" font-size="14" lengthAdjust="spacing" textLength="202.9248" x="130.62" y="1009.992">Learns from Bram's progress</text><line style="stroke:#181818;stroke-width:0.5;" x1="111.62" x2="338.5448" y1="1017.2938" y2="1017.2938"/></g><!--class Dylan--><g id="elem_Dylan"><rect codeLine="18" fill="#F1F1F1" height="96.8906" id="Dylan" rx="2.5" ry="2.5" style="stroke:#181818;stroke-width:0.5;" width="358.1582" x="46" y="773.55"/><ellipse cx="200.6255" cy="789.55" fill="#ADD1B2" rx="11" ry="11" style="stroke:#181818;stroke-width:1.0;"/><path d="M203.5942,795.1906 Q203.0161,795.4875 202.3755,795.6281 Q201.7349,795.7844 201.0317,795.7844 Q198.5317,795.7844 197.2036,794.1438 Q195.8911,792.4875 195.8911,789.3625 Q195.8911,786.2375 197.2036,784.5813 Q198.5317,782.925 201.0317,782.925 Q201.7349,782.925 202.3755,783.0813 Q203.0317,783.2375 203.5942,783.5344 L203.5942,786.2531 Q202.9692,785.675 202.3755,785.4094 Q201.7817,785.1281 201.1567,785.1281 Q199.813,785.1281 199.1255,786.2063 Q198.438,787.2688 198.438,789.3625 Q198.438,791.4563 199.1255,792.5344 Q199.813,793.5969 201.1567,793.5969 Q201.7817,793.5969 202.3755,793.3313 Q202.9692,793.05 203.5942,792.4719 L203.5942,795.1906 Z " fill="#000000"/><text fill="#000000" font-family="sans-serif" font-size="14" lengthAdjust="spacing" textLength="40.4072" x="221.1255" y="794.3967">Dylan</text><line style="stroke:#181818;stroke-width:0.5;" x1="47" x2="403.1582" y1="805.55" y2="805.55"/><ellipse cx="57" cy="819.1984" fill="none" rx="3" ry="3" style="stroke:#038048;stroke-width:1.0;"/><text fill="#000000" font-family="sans-serif" font-size="14" lengthAdjust="spacing" textLength="101.1514" x="66" y="822.5451">Project Leader</text><ellipse cx="57" cy="835.4953" fill="none" rx="3" ry="3" style="stroke:#038048;stroke-width:1.0;"/><text fill="#000000" font-family="sans-serif" font-size="14" lengthAdjust="spacing" textLength="187.4141" x="66" y="838.842">Develops student program</text><ellipse cx="57" cy="851.7922" fill="none" rx="3" ry="3" style="stroke:#038048;stroke-width:1.0;"/><text fill="#000000" font-family="sans-serif" font-size="14" lengthAdjust="spacing" textLength="332.1582" x="66" y="855.1389">Explains to other students how the robot works</text><line style="stroke:#181818;stroke-width:0.5;" x1="47" x2="403.1582" y1="862.4406" y2="862.4406"/></g><!--class Project_Group--><g id="elem_Project_Group"><rect codeLine="23" fill="#F1F1F1" height="80.5938" id="Project_Group" rx="2.5" ry="2.5" style="stroke:#181818;stroke-width:0.5;" width="231.7549" x="109.2" y="657.7"/><ellipse cx="171.636" cy="673.7" fill="#ADD1B2" rx="11" ry="11" style="stroke:#181818;stroke-width:1.0;"/><path d="M174.6048,679.3406 Q174.0267,679.6375 173.386,679.7781 Q172.7454,679.9344 172.0423,679.9344 Q169.5423,679.9344 168.2142,678.2938 Q166.9017,676.6375 166.9017,673.5125 Q166.9017,670.3875 168.2142,668.7313 Q169.5423,667.075 172.0423,667.075 Q172.7454,667.075 173.386,667.2313 Q174.0423,667.3875 174.6048,667.6844 L174.6048,670.4031 Q173.9798,669.825 173.386,669.5594 Q172.7923,669.2781 172.1673,669.2781 Q170.8235,669.2781 170.136,670.3563 Q169.4485,671.4188 169.4485,673.5125 Q169.4485,675.6063 170.136,676.6844 Q170.8235,677.7469 172.1673,677.7469 Q172.7923,677.7469 173.386,677.4813 Q173.9798,677.2 174.6048,676.6219 L174.6048,679.3406 Z " fill="#000000"/><text fill="#000000" font-family="sans-serif" font-size="14" lengthAdjust="spacing" textLength="98.3828" x="192.136" y="678.5467">Project_Group</text><line style="stroke:#181818;stroke-width:0.5;" x1="110.2" x2="339.9549" y1="689.7" y2="689.7"/><ellipse cx="120.2" cy="703.3484" fill="none" rx="3" ry="3" style="stroke:#038048;stroke-width:1.0;"/><text fill="#000000" font-family="sans-serif" font-size="14" lengthAdjust="spacing" textLength="170.249" x="129.2" y="706.6951">Assists Dylan as needed</text><ellipse cx="120.2" cy="719.6453" fill="none" rx="3" ry="3" style="stroke:#038048;stroke-width:1.0;"/><text fill="#000000" font-family="sans-serif" font-size="14" lengthAdjust="spacing" textLength="205.7549" x="129.2" y="722.992">Learns from Dylan's progress</text><line style="stroke:#181818;stroke-width:0.5;" x1="110.2" x2="339.9549" y1="730.2938" y2="730.2938"/></g><!--class Gijs--><g id="elem_Gijs"><rect codeLine="30" fill="#F1F1F1" height="96.8906" id="Gijs" rx="2.5" ry="2.5" style="stroke:#181818;stroke-width:0.5;" width="358.1582" x="46" y="486.55"/><ellipse cx="207.8682" cy="502.55" fill="#ADD1B2" rx="11" ry="11" style="stroke:#181818;stroke-width:1.0;"/><path d="M210.8369,508.1906 Q210.2588,508.4875 209.6182,508.6281 Q208.9775,508.7844 208.2744,508.7844 Q205.7744,508.7844 204.4463,507.1437 Q203.1338,505.4875 203.1338,502.3625 Q203.1338,499.2375 204.4463,497.5812 Q205.7744,495.925 208.2744,495.925 Q208.9775,495.925 209.6182,496.0812 Q210.2744,496.2375 210.8369,496.5344 L210.8369,499.2531 Q210.2119,498.675 209.6182,498.4094 Q209.0244,498.1281 208.3994,498.1281 Q207.0557,498.1281 206.3682,499.2062 Q205.6807,500.2687 205.6807,502.3625 Q205.6807,504.4562 206.3682,505.5344 Q207.0557,506.5969 208.3994,506.5969 Q209.0244,506.5969 209.6182,506.3312 Q210.2119,506.05 210.8369,505.4719 L210.8369,508.1906 Z " fill="#000000"/><text fill="#000000" font-family="sans-serif" font-size="14" lengthAdjust="spacing" textLength="25.9219" x="228.3682" y="507.3967">Gijs</text><line style="stroke:#181818;stroke-width:0.5;" x1="47" x2="403.1582" y1="518.55" y2="518.55"/><ellipse cx="57" cy="532.1984" fill="none" rx="3" ry="3" style="stroke:#038048;stroke-width:1.0;"/><text fill="#000000" font-family="sans-serif" font-size="14" lengthAdjust="spacing" textLength="101.1514" x="66" y="535.5451">Project Leader</text><ellipse cx="57" cy="548.4953" fill="none" rx="3" ry="3" style="stroke:#038048;stroke-width:1.0;"/><text fill="#000000" font-family="sans-serif" font-size="14" lengthAdjust="spacing" textLength="187.4141" x="66" y="551.842">Develops student program</text><ellipse cx="57" cy="564.7922" fill="none" rx="3" ry="3" style="stroke:#038048;stroke-width:1.0;"/><text fill="#000000" font-family="sans-serif" font-size="14" lengthAdjust="spacing" textLength="332.1582" x="66" y="568.1389">Explains to other students how the robot works</text><line style="stroke:#181818;stroke-width:0.5;" x1="47" x2="403.1582" y1="575.4406" y2="575.4406"/></g><!--class Project_Group--><g id="elem_Project_Group"><rect codeLine="35" fill="#F1F1F1" height="80.5938" id="Project_Group" rx="2.5" ry="2.5" style="stroke:#181818;stroke-width:0.5;" width="217.2695" x="116.44" y="370.7"/><ellipse cx="171.6334" cy="386.7" fill="#ADD1B2" rx="11" ry="11" style="stroke:#181818;stroke-width:1.0;"/><path d="M174.6021,392.3406 Q174.024,392.6375 173.3834,392.7781 Q172.7427,392.9344 172.0396,392.9344 Q169.5396,392.9344 168.2115,391.2938 Q166.899,389.6375 166.899,386.5125 Q166.899,383.3875 168.2115,381.7313 Q169.5396,380.075 172.0396,380.075 Q172.7427,380.075 173.3834,380.2313 Q174.0396,380.3875 174.6021,380.6844 L174.6021,383.4031 Q173.9771,382.825 173.3834,382.5594 Q172.7896,382.2781 172.1646,382.2781 Q170.8209,382.2781 170.1334,383.3563 Q169.4459,384.4188 169.4459,386.5125 Q169.4459,388.6063 170.1334,389.6844 Q170.8209,390.7469 172.1646,390.7469 Q172.7896,390.7469 173.3834,390.4813 Q173.9771,390.2 174.6021,389.6219 L174.6021,392.3406 Z " fill="#000000"/><text fill="#000000" font-family="sans-serif" font-size="14" lengthAdjust="spacing" textLength="98.3828" x="192.1334" y="391.5467">Project_Group</text><line style="stroke:#181818;stroke-width:0.5;" x1="117.44" x2="332.7095" y1="402.7" y2="402.7"/><ellipse cx="127.44" cy="416.3484" fill="none" rx="3" ry="3" style="stroke:#038048;stroke-width:1.0;"/><text fill="#000000" font-family="sans-serif" font-size="14" lengthAdjust="spacing" textLength="155.7637" x="136.44" y="419.6951">Assists Gijs as needed</text><ellipse cx="127.44" cy="432.6453" fill="none" rx="3" ry="3" style="stroke:#038048;stroke-width:1.0;"/><text fill="#000000" font-family="sans-serif" font-size="14" lengthAdjust="spacing" textLength="191.2695" x="136.44" y="435.992">Learns from Gijs's progress</text><line style="stroke:#181818;stroke-width:0.5;" x1="117.44" x2="332.7095" y1="443.2938" y2="443.2938"/></g><!--class Hailing--><g id="elem_Hailing"><rect codeLine="42" fill="#F1F1F1" height="96.8906" id="Hailing" rx="2.5" ry="2.5" style="stroke:#181818;stroke-width:0.5;" width="358.1582" x="46" y="199.55"/><ellipse cx="196.5615" cy="215.55" fill="#ADD1B2" rx="11" ry="11" style="stroke:#181818;stroke-width:1.0;"/><path d="M199.5303,221.1906 Q198.9521,221.4875 198.3115,221.6281 Q197.6709,221.7844 196.9678,221.7844 Q194.4678,221.7844 193.1396,220.1437 Q191.8271,218.4875 191.8271,215.3625 Q191.8271,212.2375 193.1396,210.5812 Q194.4678,208.925 196.9678,208.925 Q197.6709,208.925 198.3115,209.0812 Q198.9678,209.2375 199.5303,209.5344 L199.5303,212.2531 Q198.9053,211.675 198.3115,211.4094 Q197.7178,211.1281 197.0928,211.1281 Q195.749,211.1281 195.0615,212.2062 Q194.374,213.2687 194.374,215.3625 Q194.374,217.4562 195.0615,218.5344 Q195.749,219.5969 197.0928,219.5969 Q197.7178,219.5969 198.3115,219.3312 Q198.9053,219.05 199.5303,218.4719 L199.5303,221.1906 Z " fill="#000000"/><text fill="#000000" font-family="sans-serif" font-size="14" lengthAdjust="spacing" textLength="48.5352" x="217.0615" y="220.3967">Hailing</text><line style="stroke:#181818;stroke-width:0.5;" x1="47" x2="403.1582" y1="231.55" y2="231.55"/><ellipse cx="57" cy="245.1984" fill="none" rx="3" ry="3" style="stroke:#038048;stroke-width:1.0;"/><text fill="#000000" font-family="sans-serif" font-size="14" lengthAdjust="spacing" textLength="101.1514" x="66" y="248.5451">Project Leader</text><ellipse cx="57" cy="261.4953" fill="none" rx="3" ry="3" style="stroke:#038048;stroke-width:1.0;"/><text fill="#000000" font-family="sans-serif" font-size="14" lengthAdjust="spacing" textLength="187.4141" x="66" y="264.842">Develops student program</text><ellipse cx="57" cy="277.7922" fill="none" rx="3" ry="3" style="stroke:#038048;stroke-width:1.0;"/><text fill="#000000" font-family="sans-serif" font-size="14" lengthAdjust="spacing" textLength="332.1582" x="66" y="281.1389">Explains to other students how the robot works</text><line style="stroke:#181818;stroke-width:0.5;" x1="47" x2="403.1582" y1="288.4406" y2="288.4406"/></g><!--class Project_Group--><g id="elem_Project_Group"><rect codeLine="47" fill="#F1F1F1" height="80.5938" id="Project_Group" rx="2.5" ry="2.5" style="stroke:#181818;stroke-width:0.5;" width="239.8828" x="105.14" y="83.7"/><ellipse cx="171.64" cy="99.7" fill="#ADD1B2" rx="11" ry="11" style="stroke:#181818;stroke-width:1.0;"/><path d="M174.6088,105.3406 Q174.0306,105.6375 173.39,105.7781 Q172.7494,105.9344 172.0463,105.9344 Q169.5463,105.9344 168.2181,104.2938 Q166.9056,102.6375 166.9056,99.5125 Q166.9056,96.3875 168.2181,94.7313 Q169.5463,93.075 172.0463,93.075 Q172.7494,93.075 173.39,93.2313 Q174.0463,93.3875 174.6088,93.6844 L174.6088,96.4031 Q173.9838,95.825 173.39,95.5594 Q172.7963,95.2781 172.1713,95.2781 Q170.8275,95.2781 170.14,96.3563 Q169.4525,97.4188 169.4525,99.5125 Q169.4525,101.6063 170.14,102.6844 Q170.8275,103.7469 172.1713,103.7469 Q172.7963,103.7469 173.39,103.4813 Q173.9838,103.2 174.6088,102.6219 L174.6088,105.3406 Z " fill="#000000"/><text fill="#000000" font-family="sans-serif" font-size="14" lengthAdjust="spacing" textLength="98.3828" x="192.14" y="104.5467">Project_Group</text><line style="stroke:#181818;stroke-width:0.5;" x1="106.14" x2="344.0228" y1="115.7" y2="115.7"/><ellipse cx="116.14" cy="129.3484" fill="none" rx="3" ry="3" style="stroke:#038048;stroke-width:1.0;"/><text fill="#000000" font-family="sans-serif" font-size="14" lengthAdjust="spacing" textLength="178.377" x="125.14" y="132.6951">Assists Hailing as needed</text><ellipse cx="116.14" cy="145.6453" fill="none" rx="3" ry="3" style="stroke:#038048;stroke-width:1.0;"/><text fill="#000000" font-family="sans-serif" font-size="14" lengthAdjust="spacing" textLength="213.8828" x="125.14" y="148.992">Learns from Hailing's progress</text><line style="stroke:#181818;stroke-width:0.5;" x1="106.14" x2="344.0228" y1="156.2938" y2="156.2938"/></g><!--SRC=[rPF1QiCm44Jl-Oebbnxw5IakAIIb8HHwBAgziPKuMh4hsot5_rx9jagmQV7LUzJEI3CFP5LwKJd2-i1qnjJ1IurSQspMyBq2FwzamH5ya7DqXKop5saogsvfe_iDoqoR_4XU5vrXzdXomSuwBzoDE-xJKed00wlhZIdCFSH0UrGPycYPO8qbMG5nLOR6WMNA_IqZsUEdBPKs4YAGAv2ZNg2W1lm9S8WC3V55VitjADyGvNtBLDb9q8s85ZUqK086CSDi9F8jsESuiOSOX7VIHqOPFzkEqEwgdPfmxNCbNwKoomVNrvX3hbFEHvSGYJ9_mDlgiooVNTTY3heWd4zkytoS4djIklIVVFdGOf4vt0RjV-ZQ7m00]--></g></svg>