<svg xmlns="http://www.w3.org/2000/svg" xmlns:xlink="http://www.w3.org/1999/xlink" contentStyleType="text/css" height="227px" preserveAspectRatio="none" style="width:2863px;height:227px;background:#FFFFFF;" version="1.1" viewBox="0 0 2863 227" width="2863px" zoomAndPan="magnify"><defs/><g><!--cluster Project Overview--><g id="cluster_Project Overview"><path d="M8.5,6 L144.2227,6 A3.75,3.75 0 0 1 146.7227,8.5 L153.7227,28.2969 L2853.5,28.2969 A2.5,2.5 0 0 1 2856,30.7969 L2856,218.39 A2.5,2.5 0 0 1 2853.5,220.89 L8.5,220.89 A2.5,2.5 0 0 1 6,218.39 L6,8.5 A2.5,2.5 0 0 1 8.5,6 " fill="none" style="stroke:#000000;stroke-width:1.5;"/><line style="stroke:#000000;stroke-width:1.5;" x1="6" x2="153.7227" y1="28.2969" y2="28.2969"/><text fill="#000000" font-family="sans-serif" font-size="14" font-weight="bold" lengthAdjust="spacing" textLength="134.7227" x="10" y="20.9951">Project Overview</text></g><!--cluster WeldingRobot--><g id="cluster_WeldingRobot"><path d="M32.5,49 L144.7754,49 A3.75,3.75 0 0 1 147.2754,51.5 L154.2754,71.2969 L787.5,71.2969 A2.5,2.5 0 0 1 790,73.7969 L790,194.39 A2.5,2.5 0 0 1 787.5,196.89 L32.5,196.89 A2.5,2.5 0 0 1 30,194.39 L30,51.5 A2.5,2.5 0 0 1 32.5,49 " fill="none" style="stroke:#000000;stroke-width:1.5;"/><line style="stroke:#000000;stroke-width:1.5;" x1="30" x2="154.2754" y1="71.2969" y2="71.2969"/><text fill="#000000" font-family="sans-serif" font-size="14" font-weight="bold" lengthAdjust="spacing" textLength="111.2754" x="34" y="63.9951">WeldingRobot</text></g><!--cluster KuKaRobot--><g id="cluster_KuKaRobot"><path d="M816.5,49 L905.3418,49 A3.75,3.75 0 0 1 907.8418,51.5 L914.8418,71.2969 L1571.5,71.2969 A2.5,2.5 0 0 1 1574,73.7969 L1574,194.39 A2.5,2.5 0 0 1 1571.5,196.89 L816.5,196.89 A2.5,2.5 0 0 1 814,194.39 L814,51.5 A2.5,2.5 0 0 1 816.5,49 " fill="none" style="stroke:#000000;stroke-width:1.5;"/><line style="stroke:#000000;stroke-width:1.5;" x1="814" x2="914.8418" y1="71.2969" y2="71.2969"/><text fill="#000000" font-family="sans-serif" font-size="14" font-weight="bold" lengthAdjust="spacing" textLength="87.8418" x="818" y="63.9951">KuKaRobot</text></g><!--cluster DoosanRobot--><g id="cluster_DoosanRobot"><path d="M1600.5,49 L1706.835,49 A3.75,3.75 0 0 1 1709.335,51.5 L1716.335,71.2969 L2355.5,71.2969 A2.5,2.5 0 0 1 2358,73.7969 L2358,194.39 A2.5,2.5 0 0 1 2355.5,196.89 L1600.5,196.89 A2.5,2.5 0 0 1 1598,194.39 L1598,51.5 A2.5,2.5 0 0 1 1600.5,49 " fill="none" style="stroke:#000000;stroke-width:1.5;"/><line style="stroke:#000000;stroke-width:1.5;" x1="1598" x2="1716.335" y1="71.2969" y2="71.2969"/><text fill="#000000" font-family="sans-serif" font-size="14" font-weight="bold" lengthAdjust="spacing" textLength="105.335" x="1602" y="63.9951">DoosanRobot</text></g><!--class Hailing--><g id="elem_Hailing"><rect codeLine="2" fill="#F1F1F1" height="80.5938" id="Hailing" rx="2.5" ry="2.5" style="stroke:#181818;stroke-width:0.5;" width="463.5273" x="2376.24" y="92.15"/><ellipse cx="2579.4861" cy="108.15" fill="#ADD1B2" rx="11" ry="11" style="stroke:#181818;stroke-width:1.0;"/><path d="M2582.4548,113.7906 Q2581.8767,114.0875 2581.2361,114.2281 Q2580.5955,114.3844 2579.8923,114.3844 Q2577.3923,114.3844 2576.0642,112.7437 Q2574.7517,111.0875 2574.7517,107.9625 Q2574.7517,104.8375 2576.0642,103.1812 Q2577.3923,101.525 2579.8923,101.525 Q2580.5955,101.525 2581.2361,101.6812 Q2581.8923,101.8375 2582.4548,102.1344 L2582.4548,104.8531 Q2581.8298,104.275 2581.2361,104.0094 Q2580.6423,103.7281 2580.0173,103.7281 Q2578.6736,103.7281 2577.9861,104.8062 Q2577.2986,105.8687 2577.2986,107.9625 Q2577.2986,110.0562 2577.9861,111.1344 Q2578.6736,112.1969 2580.0173,112.1969 Q2580.6423,112.1969 2581.2361,111.9312 Q2581.8298,111.65 2582.4548,111.0719 L2582.4548,113.7906 Z " fill="#000000"/><text fill="#000000" font-family="sans-serif" font-size="14" lengthAdjust="spacing" textLength="48.5352" x="2599.9861" y="112.9967">Hailing</text><line style="stroke:#181818;stroke-width:0.5;" x1="2377.24" x2="2838.7673" y1="124.15" y2="124.15"/><ellipse cx="2387.24" cy="137.7984" fill="none" rx="3" ry="3" style="stroke:#038048;stroke-width:1.0;"/><text fill="#000000" font-family="sans-serif" font-size="14" lengthAdjust="spacing" textLength="437.5273" x="2396.24" y="141.1451">Make sure the documentation of the 3 projects stays on point.</text><ellipse cx="2387.24" cy="154.0953" fill="none" rx="3" ry="3" style="stroke:#038048;stroke-width:1.0;"/><text fill="#000000" font-family="sans-serif" font-size="14" lengthAdjust="spacing" textLength="219.2764" x="2396.24" y="157.442">Communication with the client.</text><line style="stroke:#181818;stroke-width:0.5;" x1="2377.24" x2="2838.7673" y1="164.7437" y2="164.7437"/></g><!--class Bram--><g id="elem_Bram"><rect codeLine="7" fill="#F1F1F1" height="96.8906" id="Bram" rx="2.5" ry="2.5" style="stroke:#181818;stroke-width:0.5;" width="399.4609" x="46.27" y="84"/><ellipse cx="222.9619" cy="100" fill="#ADD1B2" rx="11" ry="11" style="stroke:#181818;stroke-width:1.0;"/><path d="M225.9306,105.6406 Q225.3525,105.9375 224.7119,106.0781 Q224.0713,106.2344 223.3681,106.2344 Q220.8681,106.2344 219.54,104.5938 Q218.2275,102.9375 218.2275,99.8125 Q218.2275,96.6875 219.54,95.0313 Q220.8681,93.375 223.3681,93.375 Q224.0713,93.375 224.7119,93.5313 Q225.3681,93.6875 225.9306,93.9844 L225.9306,96.7031 Q225.3056,96.125 224.7119,95.8594 Q224.1181,95.5781 223.4931,95.5781 Q222.1494,95.5781 221.4619,96.6563 Q220.7744,97.7188 220.7744,99.8125 Q220.7744,101.9063 221.4619,102.9844 Q222.1494,104.0469 223.4931,104.0469 Q224.1181,104.0469 224.7119,103.7813 Q225.3056,103.5 225.9306,102.9219 L225.9306,105.6406 Z " fill="#000000"/><text fill="#000000" font-family="sans-serif" font-size="14" lengthAdjust="spacing" textLength="37.5771" x="243.4619" y="104.8467">Bram</text><line style="stroke:#181818;stroke-width:0.5;" x1="47.27" x2="444.7309" y1="116" y2="116"/><ellipse cx="57.27" cy="129.6484" fill="none" rx="3" ry="3" style="stroke:#038048;stroke-width:1.0;"/><text fill="#000000" font-family="sans-serif" font-size="14" lengthAdjust="spacing" textLength="101.6914" x="66.27" y="132.9951">Project leader.</text><ellipse cx="57.27" cy="145.9453" fill="none" rx="3" ry="3" style="stroke:#038048;stroke-width:1.0;"/><text fill="#000000" font-family="sans-serif" font-size="14" lengthAdjust="spacing" textLength="193.4434" x="66.27" y="149.292">Develop stundent program.</text><ellipse cx="57.27" cy="162.2422" fill="none" rx="3" ry="3" style="stroke:#038048;stroke-width:1.0;"/><text fill="#000000" font-family="sans-serif" font-size="14" lengthAdjust="spacing" textLength="373.4609" x="66.27" y="165.5889">Explain the rest of the students how the robot works.</text><line style="stroke:#181818;stroke-width:0.5;" x1="47.27" x2="444.7309" y1="172.8906" y2="172.8906"/></g><!--class Project_group--><g id="elem_Project_group"><rect codeLine="12" fill="#F1F1F1" height="80.5938" id="Project_group" rx="2.5" ry="2.5" style="stroke:#181818;stroke-width:0.5;" width="293.0459" x="480.48" y="92.15"/><ellipse cx="574.5425" cy="108.15" fill="#ADD1B2" rx="11" ry="11" style="stroke:#181818;stroke-width:1.0;"/><path d="M577.5113,113.7906 Q576.9331,114.0875 576.2925,114.2281 Q575.6519,114.3844 574.9488,114.3844 Q572.4488,114.3844 571.1206,112.7437 Q569.8081,111.0875 569.8081,107.9625 Q569.8081,104.8375 571.1206,103.1812 Q572.4488,101.525 574.9488,101.525 Q575.6519,101.525 576.2925,101.6812 Q576.9488,101.8375 577.5113,102.1344 L577.5113,104.8531 Q576.8863,104.275 576.2925,104.0094 Q575.6988,103.7281 575.0738,103.7281 Q573.73,103.7281 573.0425,104.8062 Q572.355,105.8687 572.355,107.9625 Q572.355,110.0562 573.0425,111.1344 Q573.73,112.1969 575.0738,112.1969 Q575.6988,112.1969 576.2925,111.9312 Q576.8863,111.65 577.5113,111.0719 L577.5113,113.7906 Z " fill="#000000"/><text fill="#000000" font-family="sans-serif" font-size="14" lengthAdjust="spacing" textLength="96.4209" x="595.0425" y="112.9967">Project_group</text><line style="stroke:#181818;stroke-width:0.5;" x1="481.48" x2="772.5259" y1="124.15" y2="124.15"/><ellipse cx="491.48" cy="137.7984" fill="none" rx="3" ry="3" style="stroke:#038048;stroke-width:1.0;"/><text fill="#000000" font-family="sans-serif" font-size="14" lengthAdjust="spacing" textLength="191.29" x="500.48" y="141.1451">Assist bram where needed.</text><ellipse cx="491.48" cy="154.0953" fill="none" rx="3" ry="3" style="stroke:#038048;stroke-width:1.0;"/><text fill="#000000" font-family="sans-serif" font-size="14" lengthAdjust="spacing" textLength="267.0459" x="500.48" y="157.442">Learn from the progress Bram makes.</text><line style="stroke:#181818;stroke-width:0.5;" x1="481.48" x2="772.5259" y1="164.7437" y2="164.7437"/></g><!--class Dylan--><g id="elem_Dylan"><rect codeLine="19" fill="#F1F1F1" height="96.8906" id="Dylan" rx="2.5" ry="2.5" style="stroke:#181818;stroke-width:0.5;" width="399.4609" x="830.27" y="84"/><ellipse cx="1005.5469" cy="100" fill="#ADD1B2" rx="11" ry="11" style="stroke:#181818;stroke-width:1.0;"/><path d="M1008.5156,105.6406 Q1007.9375,105.9375 1007.2969,106.0781 Q1006.6562,106.2344 1005.9531,106.2344 Q1003.4531,106.2344 1002.125,104.5938 Q1000.8125,102.9375 1000.8125,99.8125 Q1000.8125,96.6875 1002.125,95.0313 Q1003.4531,93.375 1005.9531,93.375 Q1006.6562,93.375 1007.2969,93.5313 Q1007.9531,93.6875 1008.5156,93.9844 L1008.5156,96.7031 Q1007.8906,96.125 1007.2969,95.8594 Q1006.7031,95.5781 1006.0781,95.5781 Q1004.7344,95.5781 1004.0469,96.6563 Q1003.3594,97.7188 1003.3594,99.8125 Q1003.3594,101.9063 1004.0469,102.9844 Q1004.7344,104.0469 1006.0781,104.0469 Q1006.7031,104.0469 1007.2969,103.7813 Q1007.8906,103.5 1008.5156,102.9219 L1008.5156,105.6406 Z " fill="#000000"/><text fill="#000000" font-family="sans-serif" font-size="14" lengthAdjust="spacing" textLength="40.4072" x="1026.0469" y="104.8467">Dylan</text><line style="stroke:#181818;stroke-width:0.5;" x1="831.27" x2="1228.7309" y1="116" y2="116"/><ellipse cx="841.27" cy="129.6484" fill="none" rx="3" ry="3" style="stroke:#038048;stroke-width:1.0;"/><text fill="#000000" font-family="sans-serif" font-size="14" lengthAdjust="spacing" textLength="101.6914" x="850.27" y="132.9951">Project leader.</text><ellipse cx="841.27" cy="145.9453" fill="none" rx="3" ry="3" style="stroke:#038048;stroke-width:1.0;"/><text fill="#000000" font-family="sans-serif" font-size="14" lengthAdjust="spacing" textLength="193.4434" x="850.27" y="149.292">Develop stundent program.</text><ellipse cx="841.27" cy="162.2422" fill="none" rx="3" ry="3" style="stroke:#038048;stroke-width:1.0;"/><text fill="#000000" font-family="sans-serif" font-size="14" lengthAdjust="spacing" textLength="373.4609" x="850.27" y="165.5889">Explain the rest of the students how the robot works.</text><line style="stroke:#181818;stroke-width:0.5;" x1="831.27" x2="1228.7309" y1="172.8906" y2="172.8906"/></g><!--class Project_group--><g id="elem_Project_group"><rect codeLine="24" fill="#F1F1F1" height="80.5938" id="Project_group" rx="2.5" ry="2.5" style="stroke:#181818;stroke-width:0.5;" width="293.0459" x="1264.48" y="92.15"/><ellipse cx="1358.5425" cy="108.15" fill="#ADD1B2" rx="11" ry="11" style="stroke:#181818;stroke-width:1.0;"/><path d="M1361.5113,113.7906 Q1360.9331,114.0875 1360.2925,114.2281 Q1359.6519,114.3844 1358.9488,114.3844 Q1356.4488,114.3844 1355.1206,112.7437 Q1353.8081,111.0875 1353.8081,107.9625 Q1353.8081,104.8375 1355.1206,103.1812 Q1356.4488,101.525 1358.9488,101.525 Q1359.6519,101.525 1360.2925,101.6812 Q1360.9488,101.8375 1361.5113,102.1344 L1361.5113,104.8531 Q1360.8863,104.275 1360.2925,104.0094 Q1359.6988,103.7281 1359.0738,103.7281 Q1357.73,103.7281 1357.0425,104.8062 Q1356.355,105.8687 1356.355,107.9625 Q1356.355,110.0562 1357.0425,111.1344 Q1357.73,112.1969 1359.0738,112.1969 Q1359.6988,112.1969 1360.2925,111.9312 Q1360.8863,111.65 1361.5113,111.0719 L1361.5113,113.7906 Z " fill="#000000"/><text fill="#000000" font-family="sans-serif" font-size="14" lengthAdjust="spacing" textLength="96.4209" x="1379.0425" y="112.9967">Project_group</text><line style="stroke:#181818;stroke-width:0.5;" x1="1265.48" x2="1556.5259" y1="124.15" y2="124.15"/><ellipse cx="1275.48" cy="137.7984" fill="none" rx="3" ry="3" style="stroke:#038048;stroke-width:1.0;"/><text fill="#000000" font-family="sans-serif" font-size="14" lengthAdjust="spacing" textLength="191.29" x="1284.48" y="141.1451">Assist bram where needed.</text><ellipse cx="1275.48" cy="154.0953" fill="none" rx="3" ry="3" style="stroke:#038048;stroke-width:1.0;"/><text fill="#000000" font-family="sans-serif" font-size="14" lengthAdjust="spacing" textLength="267.0459" x="1284.48" y="157.442">Learn from the progress Bram makes.</text><line style="stroke:#181818;stroke-width:0.5;" x1="1265.48" x2="1556.5259" y1="164.7437" y2="164.7437"/></g><!--class Gijs--><g id="elem_Gijs"><rect codeLine="31" fill="#F1F1F1" height="96.8906" id="Gijs" rx="2.5" ry="2.5" style="stroke:#181818;stroke-width:0.5;" width="399.4609" x="1614.27" y="84"/><ellipse cx="1796.7895" cy="100" fill="#ADD1B2" rx="11" ry="11" style="stroke:#181818;stroke-width:1.0;"/><path d="M1799.7583,105.6406 Q1799.1802,105.9375 1798.5395,106.0781 Q1797.8989,106.2344 1797.1958,106.2344 Q1794.6958,106.2344 1793.3677,104.5938 Q1792.0552,102.9375 1792.0552,99.8125 Q1792.0552,96.6875 1793.3677,95.0313 Q1794.6958,93.375 1797.1958,93.375 Q1797.8989,93.375 1798.5395,93.5313 Q1799.1958,93.6875 1799.7583,93.9844 L1799.7583,96.7031 Q1799.1333,96.125 1798.5395,95.8594 Q1797.9458,95.5781 1797.3208,95.5781 Q1795.977,95.5781 1795.2895,96.6563 Q1794.602,97.7188 1794.602,99.8125 Q1794.602,101.9063 1795.2895,102.9844 Q1795.977,104.0469 1797.3208,104.0469 Q1797.9458,104.0469 1798.5395,103.7813 Q1799.1333,103.5 1799.7583,102.9219 L1799.7583,105.6406 Z " fill="#000000"/><text fill="#000000" font-family="sans-serif" font-size="14" lengthAdjust="spacing" textLength="25.9219" x="1817.2895" y="104.8467">Gijs</text><line style="stroke:#181818;stroke-width:0.5;" x1="1615.27" x2="2012.7309" y1="116" y2="116"/><ellipse cx="1625.27" cy="129.6484" fill="none" rx="3" ry="3" style="stroke:#038048;stroke-width:1.0;"/><text fill="#000000" font-family="sans-serif" font-size="14" lengthAdjust="spacing" textLength="101.6914" x="1634.27" y="132.9951">Project leader.</text><ellipse cx="1625.27" cy="145.9453" fill="none" rx="3" ry="3" style="stroke:#038048;stroke-width:1.0;"/><text fill="#000000" font-family="sans-serif" font-size="14" lengthAdjust="spacing" textLength="193.4434" x="1634.27" y="149.292">Develop stundent program.</text><ellipse cx="1625.27" cy="162.2422" fill="none" rx="3" ry="3" style="stroke:#038048;stroke-width:1.0;"/><text fill="#000000" font-family="sans-serif" font-size="14" lengthAdjust="spacing" textLength="373.4609" x="1634.27" y="165.5889">Explain the rest of the students how the robot works.</text><line style="stroke:#181818;stroke-width:0.5;" x1="1615.27" x2="2012.7309" y1="172.8906" y2="172.8906"/></g><!--class Project_group--><g id="elem_Project_group"><rect codeLine="36" fill="#F1F1F1" height="80.5938" id="Project_group" rx="2.5" ry="2.5" style="stroke:#181818;stroke-width:0.5;" width="293.0459" x="2048.48" y="92.15"/><ellipse cx="2142.5425" cy="108.15" fill="#ADD1B2" rx="11" ry="11" style="stroke:#181818;stroke-width:1.0;"/><path d="M2145.5113,113.7906 Q2144.9331,114.0875 2144.2925,114.2281 Q2143.6519,114.3844 2142.9488,114.3844 Q2140.4488,114.3844 2139.1206,112.7437 Q2137.8081,111.0875 2137.8081,107.9625 Q2137.8081,104.8375 2139.1206,103.1812 Q2140.4488,101.525 2142.9488,101.525 Q2143.6519,101.525 2144.2925,101.6812 Q2144.9488,101.8375 2145.5113,102.1344 L2145.5113,104.8531 Q2144.8863,104.275 2144.2925,104.0094 Q2143.6988,103.7281 2143.0738,103.7281 Q2141.73,103.7281 2141.0425,104.8062 Q2140.355,105.8687 2140.355,107.9625 Q2140.355,110.0562 2141.0425,111.1344 Q2141.73,112.1969 2143.0738,112.1969 Q2143.6988,112.1969 2144.2925,111.9312 Q2144.8863,111.65 2145.5113,111.0719 L2145.5113,113.7906 Z " fill="#000000"/><text fill="#000000" font-family="sans-serif" font-size="14" lengthAdjust="spacing" textLength="96.4209" x="2163.0425" y="112.9967">Project_group</text><line style="stroke:#181818;stroke-width:0.5;" x1="2049.48" x2="2340.5259" y1="124.15" y2="124.15"/><ellipse cx="2059.48" cy="137.7984" fill="none" rx="3" ry="3" style="stroke:#038048;stroke-width:1.0;"/><text fill="#000000" font-family="sans-serif" font-size="14" lengthAdjust="spacing" textLength="191.29" x="2068.48" y="141.1451">Assist bram where needed.</text><ellipse cx="2059.48" cy="154.0953" fill="none" rx="3" ry="3" style="stroke:#038048;stroke-width:1.0;"/><text fill="#000000" font-family="sans-serif" font-size="14" lengthAdjust="spacing" textLength="267.0459" x="2068.48" y="157.442">Learn from the progress Bram makes.</text><line style="stroke:#181818;stroke-width:0.5;" x1="2049.48" x2="2340.5259" y1="164.7437" y2="164.7437"/></g><!--SRC=[xP71JiCm343l-mfhLwHT-09W2AGnWRXmH5xhjLcJE8hJbcdglvEcL1kTXiHzEUHWn_RpYyEime9W_kPvHrc0ruPyewYTms46yMGQHU0PbLQsW0EaO7zkO8qLWTIU89G4EMUr8HimABR0snIy1JVq5P20Uu6OSgniM9pqUM1ZQgkoeR9LeKorcLOqFkpIxKRO3z9vn7dd3OSHz0Xxxz6S18SXutwQC2U_c6INr91c5o5hcyUfFNOHsqpVFNuvZSecFayInZrZNLycK78x97iqQDbNSkpHJK1_c3uBpxKx8xuJKN72fj-cBIbgjaGvvLEc5q9lOUlPfCc9d4OD9lxH6K4t-wrpLQ_mWilbNgEzolo7p2MpeBsWyqdjv6hpJvlTDm00]--></g></svg>